<?xml version="1.0" encoding="UTF-8" ?>
<svg version="1.1" width="64" height="32" xmlns="http://www.w3.org/2000/svg" shape-rendering="crispEdges">
<rect x="0" y="0" width="64" height="2" fill="#181425" />
<rect x="0" y="2" width="2" height="30" fill="#181425" />
<rect x="2" y="2" width="2" height="2" fill="#FFFFFF" />
<rect x="4" y="2" width="56" height="2" fill="#C0CBDC" />
<rect x="60" y="2" width="2" height="2" fill="#FFFFFF" />
<rect x="62" y="2" width="2" height="30" fill="#181425" />
<rect x="2" y="4" width="2" height="24" fill="#8B9BB4" />
<rect x="4" y="4" width="56" height="2" fill="#FFFFFF" />
<rect x="60" y="4" width="2" height="24" fill="#8B9BB4" />
<rect x="4" y="6" width="4" height="22" fill="#C0CBDC" />
<rect x="8" y="6" width="2" height="4" fill="#3A4466" />
<rect x="10" y="6" width="44" height="4" fill="#5A6988" />
<rect x="54" y="6" width="2" height="4" fill="#3A4466" />
<rect x="56" y="6" width="4" height="22" fill="#C0CBDC" />
<rect x="8" y="10" width="2" height="12" fill="#5A6988" />
<rect x="10" y="10" width="44" height="14" fill="#8B9BB4" />
<rect x="54" y="10" width="2" height="12" fill="#5A6988" />
<rect x="8" y="22" width="2" height="2" fill="#3A4466" />
<rect x="54" y="22" width="2" height="2" fill="#3A4466" />
<rect x="8" y="24" width="48" height="4" fill="#C0CBDC" />
<rect x="2" y="28" width="2" height="2" fill="#5A6988" />
<rect x="4" y="28" width="56" height="2" fill="#8B9BB4" />
<rect x="60" y="28" width="2" height="2" fill="#5A6988" />
<rect x="2" y="30" width="60" height="2" fill="#181425" />
</svg>