<?xml version="1.0" encoding="UTF-8" ?>
<svg version="1.1" width="96" height="32" xmlns="http://www.w3.org/2000/svg" shape-rendering="crispEdges">
<rect x="0" y="0" width="96" height="2" fill="#181425" />
<rect x="0" y="2" width="2" height="30" fill="#181425" />
<rect x="2" y="2" width="2" height="2" fill="#FFFFFF" />
<rect x="4" y="2" width="88" height="2" fill="#C0CBDC" />
<rect x="92" y="2" width="2" height="2" fill="#FFFFFF" />
<rect x="94" y="2" width="2" height="30" fill="#181425" />
<rect x="2" y="4" width="2" height="24" fill="#8B9BB4" />
<rect x="4" y="4" width="88" height="2" fill="#FFFFFF" />
<rect x="92" y="4" width="2" height="24" fill="#8B9BB4" />
<rect x="4" y="6" width="4" height="22" fill="#C0CBDC" />
<rect x="8" y="6" width="18" height="2" fill="#3A4466" />
<rect x="26" y="6" width="4" height="22" fill="#C0CBDC" />
<rect x="30" y="6" width="2" height="4" fill="#3A4466" />
<rect x="32" y="6" width="54" height="4" fill="#5A6988" />
<rect x="86" y="6" width="2" height="4" fill="#3A4466" />
<rect x="88" y="6" width="4" height="22" fill="#C0CBDC" />
<rect x="8" y="8" width="8" height="1" fill="#3A4466" />
<rect x="16" y="8" width="2" height="3" fill="#8B9BB4" />
<rect x="18" y="8" width="8" height="1" fill="#3A4466" />
<rect x="8" y="9" width="6" height="1" fill="#3A4466" />
<rect x="14" y="9" width="2" height="3" fill="#8B9BB4" />
<rect x="18" y="9" width="2" height="3" fill="#8B9BB4" />
<rect x="20" y="9" width="6" height="1" fill="#3A4466" />
<rect x="8" y="10" width="5" height="1" fill="#3A4466" />
<rect x="13" y="10" width="1" height="4" fill="#8B9BB4" />
<rect x="20" y="10" width="1" height="5" fill="#8B9BB4" />
<rect x="21" y="10" width="5" height="1" fill="#3A4466" />
<rect x="30" y="10" width="2" height="12" fill="#5A6988" />
<rect x="32" y="10" width="54" height="14" fill="#8B9BB4" />
<rect x="86" y="10" width="2" height="12" fill="#5A6988" />
<rect x="8" y="11" width="4" height="13" fill="#3A4466" />
<rect x="12" y="11" width="1" height="3" fill="#8B9BB4" />
<rect x="16" y="11" width="2" height="4" fill="#3A4466" />
<rect x="21" y="11" width="1" height="3" fill="#8B9BB4" />
<rect x="22" y="11" width="4" height="13" fill="#3A4466" />
<rect x="14" y="12" width="1" height="1" fill="#8B9BB4" />
<rect x="15" y="12" width="1" height="12" fill="#3A4466" />
<rect x="18" y="12" width="1" height="2" fill="#3A4466" />
<rect x="19" y="12" width="1" height="4" fill="#8B9BB4" />
<rect x="14" y="13" width="1" height="11" fill="#3A4466" />
<rect x="12" y="14" width="2" height="10" fill="#3A4466" />
<rect x="18" y="14" width="1" height="3" fill="#8B9BB4" />
<rect x="21" y="14" width="1" height="10" fill="#3A4466" />
<rect x="16" y="15" width="1" height="1" fill="#3A4466" />
<rect x="17" y="15" width="1" height="4" fill="#8B9BB4" />
<rect x="20" y="15" width="1" height="9" fill="#3A4466" />
<rect x="16" y="16" width="1" height="3" fill="#8B9BB4" />
<rect x="19" y="16" width="1" height="8" fill="#3A4466" />
<rect x="18" y="17" width="1" height="7" fill="#3A4466" />
<rect x="16" y="19" width="2" height="1" fill="#3A4466" />
<rect x="16" y="20" width="2" height="2" fill="#8B9BB4" />
<rect x="16" y="22" width="2" height="2" fill="#3A4466" />
<rect x="30" y="22" width="2" height="2" fill="#3A4466" />
<rect x="86" y="22" width="2" height="2" fill="#3A4466" />
<rect x="8" y="24" width="18" height="4" fill="#C0CBDC" />
<rect x="30" y="24" width="58" height="4" fill="#C0CBDC" />
<rect x="2" y="28" width="2" height="2" fill="#5A6988" />
<rect x="4" y="28" width="88" height="2" fill="#8B9BB4" />
<rect x="92" y="28" width="2" height="2" fill="#5A6988" />
<rect x="2" y="30" width="92" height="2" fill="#181425" />
</svg>