<?xml version="1.0" encoding="UTF-8" ?>
<svg version="1.1" width="256" height="32" xmlns="http://www.w3.org/2000/svg" shape-rendering="crispEdges">
<rect x="49" y="3" width="3" height="1" fill="#181425" />
<rect x="16" y="4" width="3" height="1" fill="#181425" />
<rect x="48" y="4" width="1" height="1" fill="#181425" />
<rect x="49" y="4" width="3" height="1" fill="#E43B44" />
<rect x="52" y="4" width="3" height="1" fill="#181425" />
<rect x="15" y="5" width="1" height="1" fill="#181425" />
<rect x="16" y="5" width="3" height="1" fill="#E43B44" />
<rect x="19" y="5" width="3" height="1" fill="#181425" />
<rect x="39" y="5" width="2" height="1" fill="#181425" />
<rect x="47" y="5" width="1" height="1" fill="#181425" />
<rect x="48" y="5" width="3" height="1" fill="#E43B44" />
<rect x="51" y="5" width="1" height="2" fill="#A22633" />
<rect x="52" y="5" width="1" height="1" fill="#181425" />
<rect x="53" y="5" width="1" height="1" fill="#E43B44" />
<rect x="54" y="5" width="1" height="1" fill="#181425" />
<rect x="14" y="6" width="1" height="1" fill="#181425" />
<rect x="15" y="6" width="3" height="1" fill="#E43B44" />
<rect x="18" y="6" width="1" height="2" fill="#A22633" />
<rect x="19" y="6" width="1" height="1" fill="#181425" />
<rect x="20" y="6" width="1" height="1" fill="#E43B44" />
<rect x="21" y="6" width="1" height="1" fill="#181425" />
<rect x="39" y="6" width="1" height="3" fill="#181425" />
<rect x="40" y="6" width="1" height="3" fill="#FFFFFF" />
<rect x="41" y="6" width="1" height="1" fill="#181425" />
<rect x="46" y="6" width="1" height="3" fill="#181425" />
<rect x="47" y="6" width="1" height="1" fill="#C0CBDC" />
<rect x="48" y="6" width="2" height="1" fill="#FFFFFF" />
<rect x="50" y="6" width="1" height="4" fill="#181425" />
<rect x="52" y="6" width="1" height="1" fill="#E43B44" />
<rect x="53" y="6" width="1" height="1" fill="#181425" />
<rect x="91" y="6" width="3" height="1" fill="#181425" />
<rect x="13" y="7" width="1" height="3" fill="#181425" />
<rect x="14" y="7" width="1" height="1" fill="#C0CBDC" />
<rect x="15" y="7" width="2" height="1" fill="#FFFFFF" />
<rect x="17" y="7" width="1" height="4" fill="#181425" />
<rect x="19" y="7" width="1" height="1" fill="#E43B44" />
<rect x="20" y="7" width="1" height="1" fill="#181425" />
<rect x="41" y="7" width="1" height="1" fill="#8B9BB4" />
<rect x="42" y="7" width="1" height="2" fill="#181425" />
<rect x="47" y="7" width="1" height="3" fill="#8B9BB4" />
<rect x="48" y="7" width="2" height="1" fill="#C0CBDC" />
<rect x="51" y="7" width="2" height="1" fill="#181425" />
<rect x="90" y="7" width="1" height="1" fill="#181425" />
<rect x="91" y="7" width="3" height="1" fill="#E43B44" />
<rect x="94" y="7" width="2" height="1" fill="#181425" />
<rect x="123" y="7" width="3" height="1" fill="#181425" />
<rect x="8" y="8" width="2" height="1" fill="#181425" />
<rect x="14" y="8" width="1" height="3" fill="#8B9BB4" />
<rect x="15" y="8" width="2" height="1" fill="#C0CBDC" />
<rect x="18" y="8" width="2" height="1" fill="#181425" />
<rect x="41" y="8" width="1" height="3" fill="#FFFFFF" />
<rect x="48" y="8" width="1" height="2" fill="#C0CBDC" />
<rect x="49" y="8" width="1" height="1" fill="#181425" />
<rect x="89" y="8" width="1" height="1" fill="#181425" />
<rect x="90" y="8" width="3" height="1" fill="#E43B44" />
<rect x="93" y="8" width="1" height="2" fill="#A22633" />
<rect x="94" y="8" width="1" height="2" fill="#E43B44" />
<rect x="95" y="8" width="1" height="2" fill="#181425" />
<rect x="122" y="8" width="1" height="1" fill="#181425" />
<rect x="123" y="8" width="3" height="1" fill="#E43B44" />
<rect x="126" y="8" width="2" height="1" fill="#181425" />
<rect x="155" y="8" width="3" height="1" fill="#E43B44" />
<rect x="187" y="8" width="3" height="1" fill="#E43B44" />
<rect x="8" y="9" width="1" height="3" fill="#181425" />
<rect x="9" y="9" width="1" height="3" fill="#FFFFFF" />
<rect x="10" y="9" width="1" height="1" fill="#181425" />
<rect x="15" y="9" width="1" height="2" fill="#C0CBDC" />
<rect x="16" y="9" width="1" height="1" fill="#181425" />
<rect x="40" y="9" width="1" height="2" fill="#181425" />
<rect x="42" y="9" width="1" height="1" fill="#8B9BB4" />
<rect x="43" y="9" width="3" height="1" fill="#181425" />
<rect x="46" y="9" width="1" height="2" fill="#5A6988" />
<rect x="49" y="9" width="1" height="1" fill="#C0CBDC" />
<rect x="51" y="9" width="2" height="1" fill="#181425" />
<rect x="82" y="9" width="3" height="1" fill="#181425" />
<rect x="88" y="9" width="1" height="1" fill="#181425" />
<rect x="89" y="9" width="1" height="1" fill="#8B9BB4" />
<rect x="90" y="9" width="1" height="2" fill="#C0CBDC" />
<rect x="91" y="9" width="1" height="2" fill="#FFFFFF" />
<rect x="92" y="9" width="1" height="3" fill="#181425" />
<rect x="121" y="9" width="1" height="1" fill="#181425" />
<rect x="122" y="9" width="3" height="1" fill="#E43B44" />
<rect x="125" y="9" width="1" height="2" fill="#A22633" />
<rect x="126" y="9" width="1" height="2" fill="#E43B44" />
<rect x="127" y="9" width="1" height="2" fill="#181425" />
<rect x="154" y="9" width="3" height="1" fill="#E43B44" />
<rect x="157" y="9" width="1" height="2" fill="#A22633" />
<rect x="158" y="9" width="1" height="2" fill="#E43B44" />
<rect x="186" y="9" width="3" height="1" fill="#E43B44" />
<rect x="10" y="10" width="1" height="1" fill="#8B9BB4" />
<rect x="11" y="10" width="2" height="2" fill="#181425" />
<rect x="13" y="10" width="1" height="2" fill="#5A6988" />
<rect x="16" y="10" width="1" height="1" fill="#C0CBDC" />
<rect x="18" y="10" width="1" height="1" fill="#181425" />
<rect x="42" y="10" width="1" height="1" fill="#733E39" />
<rect x="43" y="10" width="1" height="1" fill="#181425" />
<rect x="44" y="10" width="2" height="2" fill="#5A6988" />
<rect x="47" y="10" width="2" height="1" fill="#5A6988" />
<rect x="49" y="10" width="1" height="1" fill="#8B9BB4" />
<rect x="50" y="10" width="2" height="1" fill="#FFFFFF" />
<rect x="52" y="10" width="1" height="2" fill="#C0CBDC" />
<rect x="53" y="10" width="3" height="1" fill="#181425" />
<rect x="82" y="10" width="1" height="2" fill="#181425" />
<rect x="83" y="10" width="2" height="2" fill="#C28569" />
<rect x="85" y="10" width="3" height="1" fill="#181425" />
<rect x="88" y="10" width="1" height="2" fill="#8B9BB4" />
<rect x="89" y="10" width="1" height="3" fill="#C0CBDC" />
<rect x="93" y="10" width="2" height="1" fill="#181425" />
<rect x="115" y="10" width="3" height="1" fill="#181425" />
<rect x="120" y="10" width="1" height="1" fill="#181425" />
<rect x="121" y="10" width="1" height="1" fill="#8B9BB4" />
<rect x="122" y="10" width="1" height="2" fill="#C0CBDC" />
<rect x="123" y="10" width="1" height="2" fill="#FFFFFF" />
<rect x="124" y="10" width="1" height="2" fill="#181425" />
<rect x="153" y="10" width="1" height="1" fill="#8B9BB4" />
<rect x="154" y="10" width="1" height="2" fill="#C0CBDC" />
<rect x="155" y="10" width="1" height="2" fill="#FFFFFF" />
<rect x="185" y="10" width="1" height="1" fill="#8B9BB4" />
<rect x="186" y="10" width="1" height="2" fill="#C0CBDC" />
<rect x="187" y="10" width="1" height="2" fill="#FFFFFF" />
<rect x="10" y="11" width="1" height="3" fill="#FFFFFF" />
<rect x="14" y="11" width="2" height="1" fill="#5A6988" />
<rect x="16" y="11" width="1" height="1" fill="#8B9BB4" />
<rect x="17" y="11" width="2" height="1" fill="#FFFFFF" />
<rect x="19" y="11" width="1" height="1" fill="#181425" />
<rect x="39" y="11" width="1" height="2" fill="#181425" />
<rect x="40" y="11" width="2" height="1" fill="#733E39" />
<rect x="42" y="11" width="2" height="2" fill="#C28569" />
<rect x="46" y="11" width="1" height="1" fill="#C0CBDC" />
<rect x="47" y="11" width="2" height="1" fill="#FFFFFF" />
<rect x="49" y="11" width="3" height="1" fill="#C0CBDC" />
<rect x="53" y="11" width="1" height="2" fill="#8B9BB4" />
<rect x="54" y="11" width="2" height="2" fill="#E8B796" />
<rect x="56" y="11" width="1" height="3" fill="#181425" />
<rect x="85" y="11" width="3" height="1" fill="#5A6988" />
<rect x="90" y="11" width="1" height="1" fill="#181425" />
<rect x="91" y="11" width="1" height="1" fill="#C0CBDC" />
<rect x="115" y="11" width="1" height="1" fill="#181425" />
<rect x="116" y="11" width="2" height="2" fill="#C28569" />
<rect x="118" y="11" width="2" height="1" fill="#181425" />
<rect x="120" y="11" width="1" height="2" fill="#8B9BB4" />
<rect x="121" y="11" width="1" height="3" fill="#C0CBDC" />
<rect x="125" y="11" width="2" height="1" fill="#181425" />
<rect x="148" y="11" width="2" height="1" fill="#C28569" />
<rect x="152" y="11" width="1" height="2" fill="#8B9BB4" />
<rect x="153" y="11" width="1" height="3" fill="#C0CBDC" />
<rect x="184" y="11" width="1" height="2" fill="#8B9BB4" />
<rect x="185" y="11" width="1" height="3" fill="#C0CBDC" />
<rect x="9" y="12" width="1" height="2" fill="#181425" />
<rect x="11" y="12" width="1" height="1" fill="#8B9BB4" />
<rect x="12" y="12" width="1" height="2" fill="#5A6988" />
<rect x="13" y="12" width="1" height="1" fill="#C0CBDC" />
<rect x="14" y="12" width="2" height="1" fill="#FFFFFF" />
<rect x="16" y="12" width="4" height="1" fill="#C0CBDC" />
<rect x="20" y="12" width="1" height="1" fill="#181425" />
<rect x="40" y="12" width="2" height="1" fill="#181425" />
<rect x="44" y="12" width="2" height="1" fill="#181425" />
<rect x="46" y="12" width="1" height="2" fill="#8B9BB4" />
<rect x="47" y="12" width="3" height="2" fill="#C0CBDC" />
<rect x="50" y="12" width="1" height="1" fill="#8B9BB4" />
<rect x="51" y="12" width="2" height="1" fill="#181425" />
<rect x="68" y="12" width="2" height="1" fill="#181425" />
<rect x="83" y="12" width="2" height="1" fill="#181425" />
<rect x="85" y="12" width="1" height="1" fill="#5A6988" />
<rect x="86" y="12" width="1" height="1" fill="#8B9BB4" />
<rect x="87" y="12" width="1" height="1" fill="#FFFFFF" />
<rect x="88" y="12" width="1" height="1" fill="#5A6988" />
<rect x="90" y="12" width="1" height="1" fill="#C0CBDC" />
<rect x="91" y="12" width="1" height="1" fill="#181425" />
<rect x="118" y="12" width="2" height="1" fill="#5A6988" />
<rect x="122" y="12" width="1" height="1" fill="#181425" />
<rect x="123" y="12" width="1" height="1" fill="#C0CBDC" />
<rect x="149" y="12" width="1" height="1" fill="#C28569" />
<rect x="150" y="12" width="2" height="1" fill="#5A6988" />
<rect x="154" y="12" width="1" height="1" fill="#181425" />
<rect x="155" y="12" width="1" height="1" fill="#C0CBDC" />
<rect x="182" y="12" width="2" height="1" fill="#5A6988" />
<rect x="186" y="12" width="1" height="1" fill="#181425" />
<rect x="187" y="12" width="1" height="1" fill="#C0CBDC" />
<rect x="215" y="12" width="1" height="1" fill="#5A6988" />
<rect x="216" y="12" width="1" height="1" fill="#8B9BB4" />
<rect x="217" y="12" width="1" height="2" fill="#C0CBDC" />
<rect x="11" y="13" width="1" height="1" fill="#733E39" />
<rect x="13" y="13" width="1" height="2" fill="#8B9BB4" />
<rect x="14" y="13" width="3" height="2" fill="#C0CBDC" />
<rect x="17" y="13" width="1" height="1" fill="#8B9BB4" />
<rect x="18" y="13" width="2" height="1" fill="#C0CBDC" />
<rect x="20" y="13" width="1" height="1" fill="#8B9BB4" />
<rect x="21" y="13" width="1" height="1" fill="#181425" />
<rect x="41" y="13" width="3" height="1" fill="#181425" />
<rect x="45" y="13" width="1" height="4" fill="#181425" />
<rect x="50" y="13" width="1" height="1" fill="#5A6988" />
<rect x="51" y="13" width="1" height="1" fill="#181425" />
<rect x="53" y="13" width="3" height="1" fill="#181425" />
<rect x="68" y="13" width="1" height="2" fill="#181425" />
<rect x="69" y="13" width="1" height="1" fill="#FFFFFF" />
<rect x="70" y="13" width="1" height="1" fill="#181425" />
<rect x="81" y="13" width="3" height="1" fill="#181425" />
<rect x="84" y="13" width="1" height="1" fill="#8B9BB4" />
<rect x="85" y="13" width="3" height="2" fill="#C0CBDC" />
<rect x="88" y="13" width="2" height="1" fill="#FFFFFF" />
<rect x="90" y="13" width="1" height="1" fill="#181425" />
<rect x="100" y="13" width="2" height="1" fill="#181425" />
<rect x="116" y="13" width="1" height="1" fill="#181425" />
<rect x="117" y="13" width="1" height="1" fill="#5A6988" />
<rect x="118" y="13" width="1" height="1" fill="#8B9BB4" />
<rect x="119" y="13" width="1" height="1" fill="#FFFFFF" />
<rect x="120" y="13" width="1" height="1" fill="#5A6988" />
<rect x="122" y="13" width="1" height="1" fill="#C0CBDC" />
<rect x="149" y="13" width="1" height="1" fill="#5A6988" />
<rect x="150" y="13" width="1" height="1" fill="#8B9BB4" />
<rect x="151" y="13" width="1" height="1" fill="#FFFFFF" />
<rect x="152" y="13" width="1" height="1" fill="#5A6988" />
<rect x="154" y="13" width="1" height="1" fill="#C0CBDC" />
<rect x="181" y="13" width="1" height="1" fill="#5A6988" />
<rect x="182" y="13" width="1" height="1" fill="#8B9BB4" />
<rect x="183" y="13" width="1" height="1" fill="#FFFFFF" />
<rect x="184" y="13" width="1" height="1" fill="#5A6988" />
<rect x="186" y="13" width="1" height="1" fill="#C0CBDC" />
<rect x="214" y="13" width="1" height="1" fill="#8B9BB4" />
<rect x="215" y="13" width="1" height="1" fill="#FFFFFF" />
<rect x="216" y="13" width="1" height="1" fill="#5A6988" />
<rect x="247" y="13" width="1" height="1" fill="#FFFFFF" />
<rect x="248" y="13" width="1" height="1" fill="#5A6988" />
<rect x="8" y="14" width="1" height="2" fill="#181425" />
<rect x="9" y="14" width="2" height="1" fill="#733E39" />
<rect x="11" y="14" width="2" height="2" fill="#C28569" />
<rect x="17" y="14" width="1" height="1" fill="#5A6988" />
<rect x="18" y="14" width="1" height="1" fill="#181425" />
<rect x="19" y="14" width="1" height="1" fill="#8B9BB4" />
<rect x="20" y="14" width="2" height="2" fill="#E8B796" />
<rect x="22" y="14" width="1" height="3" fill="#181425" />
<rect x="46" y="14" width="3" height="1" fill="#5A6988" />
<rect x="49" y="14" width="3" height="2" fill="#8B9BB4" />
<rect x="52" y="14" width="1" height="7" fill="#181425" />
<rect x="69" y="14" width="1" height="1" fill="#8B9BB4" />
<rect x="70" y="14" width="1" height="2" fill="#FFFFFF" />
<rect x="71" y="14" width="1" height="1" fill="#181425" />
<rect x="78" y="14" width="3" height="1" fill="#181425" />
<rect x="81" y="14" width="2" height="2" fill="#733E39" />
<rect x="83" y="14" width="1" height="2" fill="#5A6988" />
<rect x="84" y="14" width="1" height="2" fill="#C0CBDC" />
<rect x="88" y="14" width="2" height="2" fill="#C0CBDC" />
<rect x="90" y="14" width="1" height="1" fill="#FFFFFF" />
<rect x="91" y="14" width="1" height="1" fill="#181425" />
<rect x="100" y="14" width="1" height="1" fill="#181425" />
<rect x="101" y="14" width="1" height="1" fill="#FFFFFF" />
<rect x="102" y="14" width="1" height="1" fill="#181425" />
<rect x="110" y="14" width="6" height="1" fill="#181425" />
<rect x="116" y="14" width="1" height="1" fill="#8B9BB4" />
<rect x="117" y="14" width="3" height="2" fill="#C0CBDC" />
<rect x="120" y="14" width="1" height="1" fill="#FFFFFF" />
<rect x="121" y="14" width="1" height="1" fill="#8B9BB4" />
<rect x="122" y="14" width="1" height="2" fill="#181425" />
<rect x="133" y="14" width="1" height="1" fill="#FFFFFF" />
<rect x="148" y="14" width="1" height="1" fill="#8B9BB4" />
<rect x="149" y="14" width="3" height="2" fill="#C0CBDC" />
<rect x="152" y="14" width="1" height="1" fill="#FFFFFF" />
<rect x="153" y="14" width="1" height="1" fill="#8B9BB4" />
<rect x="180" y="14" width="1" height="1" fill="#8B9BB4" />
<rect x="181" y="14" width="3" height="2" fill="#C0CBDC" />
<rect x="184" y="14" width="1" height="1" fill="#FFFFFF" />
<rect x="185" y="14" width="1" height="1" fill="#8B9BB4" />
<rect x="213" y="14" width="3" height="2" fill="#C0CBDC" />
<rect x="216" y="14" width="1" height="1" fill="#FFFFFF" />
<rect x="217" y="14" width="1" height="1" fill="#8B9BB4" />
<rect x="247" y="14" width="1" height="1" fill="#C0CBDC" />
<rect x="248" y="14" width="1" height="1" fill="#FFFFFF" />
<rect x="9" y="15" width="2" height="1" fill="#181425" />
<rect x="13" y="15" width="3" height="1" fill="#5A6988" />
<rect x="16" y="15" width="3" height="2" fill="#8B9BB4" />
<rect x="19" y="15" width="1" height="3" fill="#181425" />
<rect x="46" y="15" width="2" height="1" fill="#733E39" />
<rect x="48" y="15" width="1" height="3" fill="#181425" />
<rect x="69" y="15" width="1" height="1" fill="#181425" />
<rect x="71" y="15" width="1" height="2" fill="#FFFFFF" />
<rect x="72" y="15" width="1" height="1" fill="#181425" />
<rect x="78" y="15" width="1" height="2" fill="#181425" />
<rect x="79" y="15" width="1" height="2" fill="#733E39" />
<rect x="80" y="15" width="1" height="1" fill="#3E2731" />
<rect x="85" y="15" width="2" height="1" fill="#C0CBDC" />
<rect x="87" y="15" width="1" height="2" fill="#8B9BB4" />
<rect x="90" y="15" width="1" height="1" fill="#C0CBDC" />
<rect x="91" y="15" width="1" height="1" fill="#8B9BB4" />
<rect x="92" y="15" width="1" height="1" fill="#181425" />
<rect x="101" y="15" width="1" height="1" fill="#8B9BB4" />
<rect x="102" y="15" width="1" height="2" fill="#FFFFFF" />
<rect x="103" y="15" width="1" height="1" fill="#181425" />
<rect x="110" y="15" width="1" height="1" fill="#181425" />
<rect x="111" y="15" width="1" height="2" fill="#733E39" />
<rect x="112" y="15" width="1" height="1" fill="#3E2731" />
<rect x="113" y="15" width="2" height="2" fill="#733E39" />
<rect x="115" y="15" width="1" height="2" fill="#5A6988" />
<rect x="116" y="15" width="1" height="2" fill="#C0CBDC" />
<rect x="120" y="15" width="1" height="2" fill="#C0CBDC" />
<rect x="121" y="15" width="1" height="1" fill="#FFFFFF" />
<rect x="133" y="15" width="1" height="1" fill="#8B9BB4" />
<rect x="134" y="15" width="1" height="2" fill="#FFFFFF" />
<rect x="143" y="15" width="1" height="2" fill="#733E39" />
<rect x="144" y="15" width="1" height="1" fill="#3E2731" />
<rect x="145" y="15" width="2" height="2" fill="#733E39" />
<rect x="147" y="15" width="1" height="2" fill="#5A6988" />
<rect x="148" y="15" width="1" height="2" fill="#C0CBDC" />
<rect x="152" y="15" width="1" height="2" fill="#C0CBDC" />
<rect x="153" y="15" width="1" height="1" fill="#FFFFFF" />
<rect x="177" y="15" width="2" height="2" fill="#733E39" />
<rect x="179" y="15" width="1" height="2" fill="#5A6988" />
<rect x="180" y="15" width="1" height="2" fill="#C0CBDC" />
<rect x="184" y="15" width="1" height="2" fill="#C0CBDC" />
<rect x="185" y="15" width="1" height="1" fill="#FFFFFF" />
<rect x="216" y="15" width="1" height="1" fill="#C0CBDC" />
<rect x="10" y="16" width="3" height="1" fill="#181425" />
<rect x="13" y="16" width="2" height="2" fill="#733E39" />
<rect x="15" y="16" width="1" height="4" fill="#181425" />
<rect x="20" y="16" width="2" height="1" fill="#181425" />
<rect x="46" y="16" width="1" height="1" fill="#3E2731" />
<rect x="47" y="16" width="1" height="2" fill="#733E39" />
<rect x="49" y="16" width="1" height="5" fill="#181425" />
<rect x="50" y="16" width="2" height="3" fill="#B86F50" />
<rect x="70" y="16" width="1" height="1" fill="#181425" />
<rect x="72" y="16" width="1" height="2" fill="#FFFFFF" />
<rect x="73" y="16" width="3" height="1" fill="#181425" />
<rect x="80" y="16" width="2" height="1" fill="#733E39" />
<rect x="82" y="16" width="2" height="1" fill="#181425" />
<rect x="84" y="16" width="1" height="1" fill="#5A6988" />
<rect x="85" y="16" width="2" height="1" fill="#8B9BB4" />
<rect x="88" y="16" width="2" height="1" fill="#181425" />
<rect x="90" y="16" width="1" height="1" fill="#8B9BB4" />
<rect x="91" y="16" width="2" height="2" fill="#E8B796" />
<rect x="93" y="16" width="1" height="3" fill="#181425" />
<rect x="103" y="16" width="1" height="2" fill="#FFFFFF" />
<rect x="104" y="16" width="1" height="1" fill="#181425" />
<rect x="112" y="16" width="1" height="1" fill="#733E39" />
<rect x="117" y="16" width="2" height="1" fill="#C0CBDC" />
<rect x="119" y="16" width="1" height="1" fill="#8B9BB4" />
<rect x="121" y="16" width="2" height="1" fill="#C0CBDC" />
<rect x="123" y="16" width="1" height="2" fill="#181425" />
<rect x="135" y="16" width="1" height="2" fill="#FFFFFF" />
<rect x="144" y="16" width="1" height="1" fill="#733E39" />
<rect x="149" y="16" width="2" height="1" fill="#C0CBDC" />
<rect x="151" y="16" width="1" height="1" fill="#8B9BB4" />
<rect x="153" y="16" width="2" height="1" fill="#C0CBDC" />
<rect x="167" y="16" width="1" height="2" fill="#FFFFFF" />
<rect x="181" y="16" width="2" height="1" fill="#C0CBDC" />
<rect x="183" y="16" width="1" height="1" fill="#8B9BB4" />
<rect x="185" y="16" width="2" height="1" fill="#C0CBDC" />
<rect x="213" y="16" width="2" height="1" fill="#C0CBDC" />
<rect x="215" y="16" width="1" height="1" fill="#8B9BB4" />
<rect x="12" y="17" width="1" height="2" fill="#181425" />
<rect x="16" y="17" width="1" height="2" fill="#181425" />
<rect x="17" y="17" width="2" height="2" fill="#B86F50" />
<rect x="20" y="17" width="1" height="4" fill="#181425" />
<rect x="44" y="17" width="1" height="2" fill="#181425" />
<rect x="45" y="17" width="2" height="1" fill="#733E39" />
<rect x="71" y="17" width="1" height="1" fill="#181425" />
<rect x="73" y="17" width="1" height="1" fill="#8B9BB4" />
<rect x="74" y="17" width="1" height="1" fill="#733E39" />
<rect x="75" y="17" width="1" height="1" fill="#181425" />
<rect x="79" y="17" width="3" height="1" fill="#181425" />
<rect x="83" y="17" width="1" height="1" fill="#181425" />
<rect x="84" y="17" width="2" height="2" fill="#B86F50" />
<rect x="86" y="17" width="1" height="1" fill="#8B9BB4" />
<rect x="87" y="17" width="1" height="1" fill="#181425" />
<rect x="90" y="17" width="1" height="1" fill="#181425" />
<rect x="104" y="17" width="1" height="2" fill="#FFFFFF" />
<rect x="105" y="17" width="3" height="1" fill="#181425" />
<rect x="115" y="17" width="1" height="1" fill="#181425" />
<rect x="116" y="17" width="1" height="1" fill="#5A6988" />
<rect x="117" y="17" width="1" height="1" fill="#8B9BB4" />
<rect x="118" y="17" width="2" height="1" fill="#5A6988" />
<rect x="121" y="17" width="2" height="1" fill="#8B9BB4" />
<rect x="136" y="17" width="1" height="2" fill="#FFFFFF" />
<rect x="148" y="17" width="1" height="1" fill="#5A6988" />
<rect x="149" y="17" width="1" height="1" fill="#8B9BB4" />
<rect x="150" y="17" width="2" height="1" fill="#5A6988" />
<rect x="153" y="17" width="2" height="1" fill="#8B9BB4" />
<rect x="168" y="17" width="1" height="2" fill="#FFFFFF" />
<rect x="180" y="17" width="1" height="1" fill="#5A6988" />
<rect x="181" y="17" width="1" height="1" fill="#8B9BB4" />
<rect x="182" y="17" width="2" height="1" fill="#5A6988" />
<rect x="185" y="17" width="2" height="1" fill="#8B9BB4" />
<rect x="13" y="18" width="1" height="1" fill="#3E2731" />
<rect x="14" y="18" width="1" height="2" fill="#733E39" />
<rect x="19" y="18" width="1" height="3" fill="#B86F50" />
<rect x="45" y="18" width="3" height="1" fill="#181425" />
<rect x="70" y="18" width="1" height="2" fill="#181425" />
<rect x="71" y="18" width="3" height="1" fill="#733E39" />
<rect x="74" y="18" width="1" height="3" fill="#181425" />
<rect x="82" y="18" width="1" height="1" fill="#181425" />
<rect x="83" y="18" width="1" height="3" fill="#B86F50" />
<rect x="86" y="18" width="1" height="1" fill="#181425" />
<rect x="91" y="18" width="2" height="1" fill="#181425" />
<rect x="105" y="18" width="1" height="1" fill="#8B9BB4" />
<rect x="106" y="18" width="1" height="1" fill="#733E39" />
<rect x="107" y="18" width="1" height="1" fill="#181425" />
<rect x="114" y="18" width="1" height="1" fill="#181425" />
<rect x="115" y="18" width="3" height="1" fill="#B86F50" />
<rect x="122" y="18" width="2" height="2" fill="#E8B796" />
<rect x="124" y="18" width="1" height="2" fill="#181425" />
<rect x="137" y="18" width="1" height="1" fill="#8B9BB4" />
<rect x="138" y="18" width="1" height="1" fill="#733E39" />
<rect x="147" y="18" width="3" height="1" fill="#B86F50" />
<rect x="154" y="18" width="2" height="1" fill="#E8B796" />
<rect x="179" y="18" width="3" height="1" fill="#B86F50" />
<rect x="12" y="19" width="2" height="1" fill="#733E39" />
<rect x="17" y="19" width="1" height="2" fill="#181425" />
<rect x="18" y="19" width="1" height="1" fill="#733E39" />
<rect x="50" y="19" width="1" height="1" fill="#733E39" />
<rect x="51" y="19" width="1" height="2" fill="#B86F50" />
<rect x="71" y="19" width="2" height="1" fill="#181425" />
<rect x="73" y="19" width="1" height="1" fill="#733E39" />
<rect x="81" y="19" width="1" height="2" fill="#181425" />
<rect x="82" y="19" width="1" height="1" fill="#733E39" />
<rect x="84" y="19" width="1" height="1" fill="#B86F50" />
<rect x="85" y="19" width="1" height="1" fill="#181425" />
<rect x="104" y="19" width="2" height="1" fill="#733E39" />
<rect x="106" y="19" width="1" height="1" fill="#181425" />
<rect x="113" y="19" width="1" height="2" fill="#181425" />
<rect x="114" y="19" width="1" height="1" fill="#733E39" />
<rect x="115" y="19" width="2" height="1" fill="#B86F50" />
<rect x="136" y="19" width="2" height="1" fill="#733E39" />
<rect x="146" y="19" width="1" height="1" fill="#733E39" />
<rect x="147" y="19" width="2" height="1" fill="#B86F50" />
<rect x="155" y="19" width="1" height="1" fill="#E8B796" />
<rect x="168" y="19" width="1" height="1" fill="#733E39" />
<rect x="179" y="19" width="2" height="1" fill="#B86F50" />
<rect x="18" y="20" width="1" height="1" fill="#B86F50" />
<rect x="50" y="20" width="1" height="1" fill="#B86F50" />
<rect x="73" y="20" width="1" height="1" fill="#181425" />
<rect x="82" y="20" width="1" height="1" fill="#B86F50" />
<rect x="84" y="20" width="1" height="1" fill="#181425" />
<rect x="105" y="20" width="2" height="1" fill="#733E39" />
<rect x="114" y="20" width="2" height="1" fill="#B86F50" />
<rect x="137" y="20" width="2" height="1" fill="#733E39" />
<rect x="146" y="20" width="2" height="1" fill="#B86F50" />
</svg>