<?xml version="1.0" encoding="UTF-8" ?>
<svg version="1.1" width="128" height="32" xmlns="http://www.w3.org/2000/svg" shape-rendering="crispEdges">
<rect x="48" y="3" width="3" height="1" fill="#181425" />
<rect x="81" y="3" width="3" height="1" fill="#181425" />
<rect x="16" y="4" width="3" height="1" fill="#181425" />
<rect x="47" y="4" width="1" height="1" fill="#181425" />
<rect x="48" y="4" width="3" height="1" fill="#E43B44" />
<rect x="51" y="4" width="1" height="2" fill="#181425" />
<rect x="80" y="4" width="1" height="1" fill="#181425" />
<rect x="81" y="4" width="3" height="1" fill="#E43B44" />
<rect x="84" y="4" width="3" height="1" fill="#181425" />
<rect x="113" y="4" width="3" height="1" fill="#181425" />
<rect x="15" y="5" width="1" height="1" fill="#181425" />
<rect x="16" y="5" width="3" height="1" fill="#E43B44" />
<rect x="19" y="5" width="3" height="1" fill="#181425" />
<rect x="46" y="5" width="1" height="1" fill="#181425" />
<rect x="47" y="5" width="3" height="1" fill="#E43B44" />
<rect x="50" y="5" width="1" height="2" fill="#A22633" />
<rect x="52" y="5" width="2" height="1" fill="#181425" />
<rect x="79" y="5" width="1" height="1" fill="#181425" />
<rect x="80" y="5" width="3" height="1" fill="#E43B44" />
<rect x="83" y="5" width="1" height="2" fill="#A22633" />
<rect x="84" y="5" width="1" height="1" fill="#181425" />
<rect x="85" y="5" width="1" height="1" fill="#E43B44" />
<rect x="86" y="5" width="1" height="1" fill="#181425" />
<rect x="112" y="5" width="1" height="1" fill="#181425" />
<rect x="113" y="5" width="3" height="1" fill="#E43B44" />
<rect x="116" y="5" width="3" height="1" fill="#181425" />
<rect x="14" y="6" width="1" height="1" fill="#181425" />
<rect x="15" y="6" width="3" height="1" fill="#E43B44" />
<rect x="18" y="6" width="1" height="2" fill="#A22633" />
<rect x="19" y="6" width="1" height="1" fill="#181425" />
<rect x="20" y="6" width="1" height="1" fill="#E43B44" />
<rect x="21" y="6" width="1" height="1" fill="#181425" />
<rect x="45" y="6" width="1" height="3" fill="#181425" />
<rect x="46" y="6" width="1" height="1" fill="#C0CBDC" />
<rect x="47" y="6" width="2" height="1" fill="#FFFFFF" />
<rect x="49" y="6" width="1" height="4" fill="#181425" />
<rect x="51" y="6" width="2" height="1" fill="#E43B44" />
<rect x="53" y="6" width="1" height="1" fill="#181425" />
<rect x="78" y="6" width="1" height="3" fill="#181425" />
<rect x="79" y="6" width="1" height="1" fill="#C0CBDC" />
<rect x="80" y="6" width="2" height="1" fill="#FFFFFF" />
<rect x="82" y="6" width="1" height="4" fill="#181425" />
<rect x="84" y="6" width="1" height="1" fill="#E43B44" />
<rect x="85" y="6" width="1" height="1" fill="#181425" />
<rect x="111" y="6" width="1" height="1" fill="#181425" />
<rect x="112" y="6" width="3" height="1" fill="#E43B44" />
<rect x="115" y="6" width="1" height="2" fill="#A22633" />
<rect x="116" y="6" width="1" height="1" fill="#181425" />
<rect x="117" y="6" width="1" height="1" fill="#E43B44" />
<rect x="118" y="6" width="1" height="1" fill="#181425" />
<rect x="13" y="7" width="1" height="3" fill="#181425" />
<rect x="14" y="7" width="1" height="1" fill="#C0CBDC" />
<rect x="15" y="7" width="2" height="1" fill="#FFFFFF" />
<rect x="17" y="7" width="1" height="4" fill="#181425" />
<rect x="19" y="7" width="1" height="1" fill="#E43B44" />
<rect x="20" y="7" width="1" height="1" fill="#181425" />
<rect x="46" y="7" width="1" height="3" fill="#8B9BB4" />
<rect x="47" y="7" width="2" height="1" fill="#C0CBDC" />
<rect x="50" y="7" width="3" height="1" fill="#181425" />
<rect x="73" y="7" width="2" height="1" fill="#181425" />
<rect x="79" y="7" width="1" height="3" fill="#8B9BB4" />
<rect x="80" y="7" width="2" height="1" fill="#C0CBDC" />
<rect x="83" y="7" width="2" height="1" fill="#181425" />
<rect x="105" y="7" width="2" height="1" fill="#181425" />
<rect x="110" y="7" width="1" height="3" fill="#181425" />
<rect x="111" y="7" width="1" height="1" fill="#C0CBDC" />
<rect x="112" y="7" width="2" height="1" fill="#FFFFFF" />
<rect x="114" y="7" width="1" height="4" fill="#181425" />
<rect x="116" y="7" width="1" height="1" fill="#E43B44" />
<rect x="117" y="7" width="1" height="1" fill="#181425" />
<rect x="8" y="8" width="2" height="1" fill="#181425" />
<rect x="14" y="8" width="1" height="3" fill="#8B9BB4" />
<rect x="15" y="8" width="2" height="1" fill="#C0CBDC" />
<rect x="18" y="8" width="2" height="1" fill="#181425" />
<rect x="40" y="8" width="2" height="1" fill="#181425" />
<rect x="47" y="8" width="1" height="2" fill="#C0CBDC" />
<rect x="48" y="8" width="1" height="1" fill="#181425" />
<rect x="73" y="8" width="1" height="3" fill="#181425" />
<rect x="74" y="8" width="1" height="3" fill="#FFFFFF" />
<rect x="75" y="8" width="1" height="1" fill="#181425" />
<rect x="80" y="8" width="1" height="2" fill="#C0CBDC" />
<rect x="81" y="8" width="1" height="1" fill="#181425" />
<rect x="105" y="8" width="1" height="3" fill="#181425" />
<rect x="106" y="8" width="1" height="3" fill="#FFFFFF" />
<rect x="107" y="8" width="1" height="1" fill="#181425" />
<rect x="111" y="8" width="1" height="3" fill="#8B9BB4" />
<rect x="112" y="8" width="2" height="1" fill="#C0CBDC" />
<rect x="115" y="8" width="2" height="1" fill="#181425" />
<rect x="8" y="9" width="1" height="3" fill="#181425" />
<rect x="9" y="9" width="1" height="3" fill="#FFFFFF" />
<rect x="10" y="9" width="1" height="1" fill="#181425" />
<rect x="15" y="9" width="1" height="2" fill="#C0CBDC" />
<rect x="16" y="9" width="1" height="1" fill="#181425" />
<rect x="40" y="9" width="1" height="3" fill="#181425" />
<rect x="41" y="9" width="1" height="3" fill="#FFFFFF" />
<rect x="42" y="9" width="1" height="1" fill="#181425" />
<rect x="44" y="9" width="1" height="3" fill="#181425" />
<rect x="45" y="9" width="1" height="2" fill="#5A6988" />
<rect x="48" y="9" width="1" height="1" fill="#C0CBDC" />
<rect x="50" y="9" width="1" height="1" fill="#181425" />
<rect x="75" y="9" width="1" height="1" fill="#8B9BB4" />
<rect x="76" y="9" width="2" height="2" fill="#181425" />
<rect x="78" y="9" width="1" height="2" fill="#5A6988" />
<rect x="81" y="9" width="1" height="1" fill="#C0CBDC" />
<rect x="83" y="9" width="1" height="1" fill="#181425" />
<rect x="107" y="9" width="1" height="1" fill="#8B9BB4" />
<rect x="108" y="9" width="1" height="2" fill="#181425" />
<rect x="112" y="9" width="1" height="2" fill="#C0CBDC" />
<rect x="113" y="9" width="1" height="1" fill="#181425" />
<rect x="10" y="10" width="1" height="1" fill="#8B9BB4" />
<rect x="11" y="10" width="2" height="2" fill="#181425" />
<rect x="13" y="10" width="1" height="2" fill="#5A6988" />
<rect x="16" y="10" width="1" height="1" fill="#C0CBDC" />
<rect x="18" y="10" width="1" height="1" fill="#181425" />
<rect x="42" y="10" width="1" height="1" fill="#8B9BB4" />
<rect x="43" y="10" width="1" height="2" fill="#181425" />
<rect x="46" y="10" width="2" height="1" fill="#5A6988" />
<rect x="48" y="10" width="1" height="1" fill="#8B9BB4" />
<rect x="49" y="10" width="2" height="1" fill="#FFFFFF" />
<rect x="51" y="10" width="1" height="1" fill="#181425" />
<rect x="75" y="10" width="1" height="3" fill="#FFFFFF" />
<rect x="79" y="10" width="2" height="1" fill="#5A6988" />
<rect x="81" y="10" width="1" height="1" fill="#8B9BB4" />
<rect x="82" y="10" width="2" height="1" fill="#FFFFFF" />
<rect x="84" y="10" width="1" height="1" fill="#181425" />
<rect x="107" y="10" width="1" height="3" fill="#FFFFFF" />
<rect x="109" y="10" width="1" height="2" fill="#181425" />
<rect x="110" y="10" width="1" height="2" fill="#5A6988" />
<rect x="113" y="10" width="1" height="1" fill="#C0CBDC" />
<rect x="115" y="10" width="1" height="1" fill="#181425" />
<rect x="10" y="11" width="1" height="3" fill="#FFFFFF" />
<rect x="14" y="11" width="2" height="1" fill="#5A6988" />
<rect x="16" y="11" width="1" height="1" fill="#8B9BB4" />
<rect x="17" y="11" width="2" height="1" fill="#FFFFFF" />
<rect x="19" y="11" width="1" height="1" fill="#181425" />
<rect x="42" y="11" width="1" height="3" fill="#FFFFFF" />
<rect x="45" y="11" width="1" height="1" fill="#C0CBDC" />
<rect x="46" y="11" width="2" height="1" fill="#FFFFFF" />
<rect x="48" y="11" width="4" height="1" fill="#C0CBDC" />
<rect x="52" y="11" width="1" height="2" fill="#181425" />
<rect x="74" y="11" width="1" height="2" fill="#181425" />
<rect x="76" y="11" width="1" height="1" fill="#8B9BB4" />
<rect x="77" y="11" width="1" height="2" fill="#5A6988" />
<rect x="78" y="11" width="1" height="1" fill="#C0CBDC" />
<rect x="79" y="11" width="2" height="1" fill="#FFFFFF" />
<rect x="81" y="11" width="4" height="1" fill="#C0CBDC" />
<rect x="85" y="11" width="1" height="1" fill="#181425" />
<rect x="106" y="11" width="1" height="2" fill="#181425" />
<rect x="108" y="11" width="1" height="1" fill="#8B9BB4" />
<rect x="111" y="11" width="2" height="1" fill="#5A6988" />
<rect x="113" y="11" width="1" height="1" fill="#8B9BB4" />
<rect x="114" y="11" width="2" height="1" fill="#FFFFFF" />
<rect x="116" y="11" width="2" height="1" fill="#181425" />
<rect x="9" y="12" width="1" height="2" fill="#181425" />
<rect x="11" y="12" width="1" height="1" fill="#8B9BB4" />
<rect x="12" y="12" width="1" height="2" fill="#5A6988" />
<rect x="13" y="12" width="1" height="1" fill="#C0CBDC" />
<rect x="14" y="12" width="2" height="1" fill="#FFFFFF" />
<rect x="16" y="12" width="4" height="1" fill="#C0CBDC" />
<rect x="20" y="12" width="1" height="1" fill="#181425" />
<rect x="41" y="12" width="1" height="2" fill="#181425" />
<rect x="43" y="12" width="1" height="1" fill="#8B9BB4" />
<rect x="44" y="12" width="1" height="1" fill="#5A6988" />
<rect x="45" y="12" width="1" height="2" fill="#8B9BB4" />
<rect x="46" y="12" width="3" height="2" fill="#C0CBDC" />
<rect x="49" y="12" width="1" height="1" fill="#8B9BB4" />
<rect x="50" y="12" width="1" height="1" fill="#C0CBDC" />
<rect x="51" y="12" width="1" height="1" fill="#8B9BB4" />
<rect x="76" y="12" width="1" height="1" fill="#733E39" />
<rect x="78" y="12" width="1" height="2" fill="#8B9BB4" />
<rect x="79" y="12" width="3" height="2" fill="#C0CBDC" />
<rect x="82" y="12" width="1" height="1" fill="#8B9BB4" />
<rect x="83" y="12" width="2" height="1" fill="#C0CBDC" />
<rect x="85" y="12" width="1" height="1" fill="#8B9BB4" />
<rect x="86" y="12" width="1" height="1" fill="#181425" />
<rect x="108" y="12" width="1" height="1" fill="#733E39" />
<rect x="109" y="12" width="1" height="1" fill="#5A6988" />
<rect x="110" y="12" width="1" height="1" fill="#C0CBDC" />
<rect x="111" y="12" width="2" height="1" fill="#FFFFFF" />
<rect x="113" y="12" width="4" height="1" fill="#C0CBDC" />
<rect x="117" y="12" width="1" height="1" fill="#8B9BB4" />
<rect x="118" y="12" width="1" height="1" fill="#181425" />
<rect x="11" y="13" width="1" height="1" fill="#733E39" />
<rect x="13" y="13" width="1" height="2" fill="#8B9BB4" />
<rect x="14" y="13" width="3" height="2" fill="#C0CBDC" />
<rect x="17" y="13" width="1" height="1" fill="#8B9BB4" />
<rect x="18" y="13" width="2" height="1" fill="#C0CBDC" />
<rect x="20" y="13" width="1" height="1" fill="#8B9BB4" />
<rect x="21" y="13" width="1" height="1" fill="#181425" />
<rect x="43" y="13" width="1" height="1" fill="#733E39" />
<rect x="44" y="13" width="1" height="2" fill="#C28569" />
<rect x="49" y="13" width="1" height="1" fill="#5A6988" />
<rect x="50" y="13" width="1" height="1" fill="#8B9BB4" />
<rect x="51" y="13" width="2" height="2" fill="#E8B796" />
<rect x="53" y="13" width="1" height="3" fill="#181425" />
<rect x="73" y="13" width="1" height="2" fill="#181425" />
<rect x="74" y="13" width="2" height="1" fill="#733E39" />
<rect x="76" y="13" width="2" height="2" fill="#C28569" />
<rect x="82" y="13" width="1" height="1" fill="#5A6988" />
<rect x="83" y="13" width="1" height="1" fill="#181425" />
<rect x="84" y="13" width="1" height="1" fill="#8B9BB4" />
<rect x="85" y="13" width="2" height="2" fill="#E8B796" />
<rect x="87" y="13" width="1" height="3" fill="#181425" />
<rect x="105" y="13" width="1" height="2" fill="#181425" />
<rect x="106" y="13" width="2" height="1" fill="#733E39" />
<rect x="108" y="13" width="2" height="2" fill="#C28569" />
<rect x="110" y="13" width="1" height="2" fill="#8B9BB4" />
<rect x="111" y="13" width="3" height="2" fill="#C0CBDC" />
<rect x="114" y="13" width="1" height="1" fill="#8B9BB4" />
<rect x="115" y="13" width="1" height="1" fill="#C0CBDC" />
<rect x="116" y="13" width="1" height="1" fill="#8B9BB4" />
<rect x="117" y="13" width="2" height="2" fill="#E8B796" />
<rect x="119" y="13" width="1" height="3" fill="#181425" />
<rect x="8" y="14" width="1" height="2" fill="#181425" />
<rect x="9" y="14" width="2" height="1" fill="#733E39" />
<rect x="11" y="14" width="2" height="2" fill="#C28569" />
<rect x="17" y="14" width="1" height="1" fill="#5A6988" />
<rect x="18" y="14" width="1" height="1" fill="#181425" />
<rect x="19" y="14" width="1" height="1" fill="#8B9BB4" />
<rect x="20" y="14" width="2" height="2" fill="#E8B796" />
<rect x="22" y="14" width="1" height="3" fill="#181425" />
<rect x="40" y="14" width="1" height="2" fill="#181425" />
<rect x="41" y="14" width="2" height="1" fill="#733E39" />
<rect x="43" y="14" width="1" height="2" fill="#C28569" />
<rect x="45" y="14" width="3" height="1" fill="#5A6988" />
<rect x="48" y="14" width="2" height="2" fill="#8B9BB4" />
<rect x="50" y="14" width="1" height="1" fill="#181425" />
<rect x="74" y="14" width="2" height="1" fill="#181425" />
<rect x="78" y="14" width="3" height="1" fill="#5A6988" />
<rect x="81" y="14" width="3" height="2" fill="#8B9BB4" />
<rect x="84" y="14" width="1" height="7" fill="#181425" />
<rect x="106" y="14" width="2" height="1" fill="#181425" />
<rect x="114" y="14" width="2" height="1" fill="#5A6988" />
<rect x="116" y="14" width="1" height="7" fill="#181425" />
<rect x="9" y="15" width="2" height="1" fill="#181425" />
<rect x="13" y="15" width="3" height="1" fill="#5A6988" />
<rect x="16" y="15" width="3" height="2" fill="#8B9BB4" />
<rect x="19" y="15" width="1" height="3" fill="#181425" />
<rect x="41" y="15" width="2" height="1" fill="#181425" />
<rect x="44" y="15" width="1" height="4" fill="#181425" />
<rect x="45" y="15" width="2" height="3" fill="#733E39" />
<rect x="47" y="15" width="1" height="5" fill="#181425" />
<rect x="50" y="15" width="1" height="1" fill="#8B9BB4" />
<rect x="51" y="15" width="2" height="1" fill="#181425" />
<rect x="75" y="15" width="3" height="1" fill="#181425" />
<rect x="78" y="15" width="2" height="3" fill="#733E39" />
<rect x="80" y="15" width="1" height="3" fill="#181425" />
<rect x="85" y="15" width="2" height="1" fill="#181425" />
<rect x="107" y="15" width="3" height="1" fill="#181425" />
<rect x="110" y="15" width="3" height="1" fill="#5A6988" />
<rect x="113" y="15" width="3" height="2" fill="#8B9BB4" />
<rect x="117" y="15" width="2" height="1" fill="#181425" />
<rect x="10" y="16" width="3" height="1" fill="#181425" />
<rect x="13" y="16" width="2" height="2" fill="#733E39" />
<rect x="15" y="16" width="1" height="4" fill="#181425" />
<rect x="20" y="16" width="2" height="1" fill="#181425" />
<rect x="42" y="16" width="2" height="1" fill="#181425" />
<rect x="48" y="16" width="1" height="3" fill="#181425" />
<rect x="49" y="16" width="2" height="3" fill="#B86F50" />
<rect x="51" y="16" width="1" height="2" fill="#181425" />
<rect x="77" y="16" width="1" height="1" fill="#181425" />
<rect x="81" y="16" width="1" height="5" fill="#181425" />
<rect x="82" y="16" width="2" height="3" fill="#B86F50" />
<rect x="109" y="16" width="1" height="1" fill="#181425" />
<rect x="110" y="16" width="2" height="2" fill="#733E39" />
<rect x="112" y="16" width="1" height="2" fill="#181425" />
<rect x="12" y="17" width="1" height="2" fill="#181425" />
<rect x="16" y="17" width="1" height="2" fill="#181425" />
<rect x="17" y="17" width="2" height="2" fill="#B86F50" />
<rect x="20" y="17" width="1" height="4" fill="#181425" />
<rect x="76" y="17" width="1" height="2" fill="#181425" />
<rect x="77" y="17" width="1" height="1" fill="#733E39" />
<rect x="108" y="17" width="1" height="2" fill="#181425" />
<rect x="109" y="17" width="1" height="1" fill="#733E39" />
<rect x="113" y="17" width="1" height="4" fill="#181425" />
<rect x="114" y="17" width="2" height="2" fill="#B86F50" />
<rect x="13" y="18" width="1" height="1" fill="#3E2731" />
<rect x="14" y="18" width="1" height="2" fill="#733E39" />
<rect x="19" y="18" width="1" height="3" fill="#B86F50" />
<rect x="45" y="18" width="1" height="1" fill="#3E2731" />
<rect x="46" y="18" width="1" height="2" fill="#733E39" />
<rect x="51" y="18" width="1" height="3" fill="#B86F50" />
<rect x="52" y="18" width="1" height="3" fill="#181425" />
<rect x="77" y="18" width="1" height="1" fill="#3E2731" />
<rect x="78" y="18" width="1" height="2" fill="#733E39" />
<rect x="79" y="18" width="1" height="2" fill="#181425" />
<rect x="109" y="18" width="1" height="1" fill="#3E2731" />
<rect x="110" y="18" width="1" height="2" fill="#733E39" />
<rect x="111" y="18" width="1" height="2" fill="#181425" />
<rect x="12" y="19" width="2" height="1" fill="#733E39" />
<rect x="17" y="19" width="1" height="2" fill="#181425" />
<rect x="18" y="19" width="1" height="1" fill="#733E39" />
<rect x="44" y="19" width="2" height="1" fill="#733E39" />
<rect x="49" y="19" width="1" height="2" fill="#181425" />
<rect x="50" y="19" width="1" height="1" fill="#733E39" />
<rect x="76" y="19" width="2" height="1" fill="#733E39" />
<rect x="82" y="19" width="1" height="1" fill="#733E39" />
<rect x="83" y="19" width="1" height="2" fill="#B86F50" />
<rect x="108" y="19" width="2" height="1" fill="#733E39" />
<rect x="114" y="19" width="1" height="1" fill="#733E39" />
<rect x="115" y="19" width="1" height="2" fill="#B86F50" />
<rect x="18" y="20" width="1" height="1" fill="#B86F50" />
<rect x="50" y="20" width="1" height="1" fill="#B86F50" />
<rect x="82" y="20" width="1" height="1" fill="#B86F50" />
<rect x="114" y="20" width="1" height="1" fill="#B86F50" />
</svg>