<?xml version="1.0" encoding="UTF-8" ?>
<svg version="1.1" width="192" height="32" xmlns="http://www.w3.org/2000/svg" shape-rendering="crispEdges">
<rect x="48" y="3" width="3" height="1" fill="#181425" />
<rect x="144" y="3" width="3" height="1" fill="#181425" />
<rect x="16" y="4" width="3" height="1" fill="#181425" />
<rect x="47" y="4" width="1" height="1" fill="#181425" />
<rect x="48" y="4" width="3" height="1" fill="#E43B44" />
<rect x="51" y="4" width="3" height="1" fill="#181425" />
<rect x="80" y="4" width="3" height="1" fill="#181425" />
<rect x="84" y="4" width="2" height="1" fill="#181425" />
<rect x="112" y="4" width="3" height="1" fill="#181425" />
<rect x="143" y="4" width="1" height="1" fill="#181425" />
<rect x="144" y="4" width="3" height="1" fill="#E43B44" />
<rect x="147" y="4" width="3" height="1" fill="#181425" />
<rect x="176" y="4" width="3" height="1" fill="#181425" />
<rect x="180" y="4" width="2" height="1" fill="#181425" />
<rect x="15" y="5" width="1" height="1" fill="#181425" />
<rect x="16" y="5" width="3" height="1" fill="#E43B44" />
<rect x="19" y="5" width="3" height="1" fill="#181425" />
<rect x="46" y="5" width="1" height="1" fill="#181425" />
<rect x="47" y="5" width="3" height="1" fill="#E43B44" />
<rect x="50" y="5" width="1" height="2" fill="#A22633" />
<rect x="51" y="5" width="1" height="1" fill="#181425" />
<rect x="52" y="5" width="1" height="1" fill="#E43B44" />
<rect x="53" y="5" width="1" height="1" fill="#181425" />
<rect x="79" y="5" width="1" height="1" fill="#181425" />
<rect x="80" y="5" width="3" height="1" fill="#E43B44" />
<rect x="83" y="5" width="1" height="1" fill="#181425" />
<rect x="84" y="5" width="1" height="1" fill="#E43B44" />
<rect x="85" y="5" width="1" height="1" fill="#181425" />
<rect x="111" y="5" width="1" height="1" fill="#181425" />
<rect x="112" y="5" width="3" height="1" fill="#E43B44" />
<rect x="115" y="5" width="3" height="1" fill="#181425" />
<rect x="142" y="5" width="1" height="1" fill="#181425" />
<rect x="143" y="5" width="3" height="1" fill="#E43B44" />
<rect x="146" y="5" width="1" height="2" fill="#A22633" />
<rect x="147" y="5" width="1" height="1" fill="#181425" />
<rect x="148" y="5" width="1" height="1" fill="#E43B44" />
<rect x="149" y="5" width="1" height="1" fill="#181425" />
<rect x="175" y="5" width="1" height="1" fill="#181425" />
<rect x="176" y="5" width="3" height="1" fill="#E43B44" />
<rect x="179" y="5" width="1" height="1" fill="#181425" />
<rect x="180" y="5" width="1" height="1" fill="#E43B44" />
<rect x="181" y="5" width="1" height="1" fill="#181425" />
<rect x="14" y="6" width="1" height="1" fill="#181425" />
<rect x="15" y="6" width="3" height="1" fill="#E43B44" />
<rect x="18" y="6" width="1" height="2" fill="#A22633" />
<rect x="19" y="6" width="1" height="1" fill="#181425" />
<rect x="20" y="6" width="1" height="1" fill="#E43B44" />
<rect x="21" y="6" width="1" height="1" fill="#181425" />
<rect x="45" y="6" width="1" height="4" fill="#181425" />
<rect x="46" y="6" width="1" height="1" fill="#C0CBDC" />
<rect x="47" y="6" width="2" height="1" fill="#FFFFFF" />
<rect x="49" y="6" width="1" height="4" fill="#181425" />
<rect x="51" y="6" width="1" height="1" fill="#E43B44" />
<rect x="52" y="6" width="1" height="1" fill="#181425" />
<rect x="78" y="6" width="1" height="1" fill="#181425" />
<rect x="79" y="6" width="3" height="1" fill="#E43B44" />
<rect x="82" y="6" width="1" height="1" fill="#A22633" />
<rect x="83" y="6" width="1" height="1" fill="#E43B44" />
<rect x="84" y="6" width="1" height="1" fill="#181425" />
<rect x="110" y="6" width="1" height="1" fill="#181425" />
<rect x="111" y="6" width="3" height="1" fill="#E43B44" />
<rect x="114" y="6" width="1" height="2" fill="#A22633" />
<rect x="115" y="6" width="1" height="1" fill="#181425" />
<rect x="116" y="6" width="1" height="1" fill="#E43B44" />
<rect x="117" y="6" width="1" height="1" fill="#181425" />
<rect x="141" y="6" width="1" height="3" fill="#181425" />
<rect x="142" y="6" width="1" height="1" fill="#C0CBDC" />
<rect x="143" y="6" width="2" height="1" fill="#FFFFFF" />
<rect x="145" y="6" width="1" height="4" fill="#181425" />
<rect x="147" y="6" width="1" height="1" fill="#E43B44" />
<rect x="148" y="6" width="1" height="1" fill="#181425" />
<rect x="174" y="6" width="1" height="1" fill="#181425" />
<rect x="175" y="6" width="3" height="1" fill="#E43B44" />
<rect x="178" y="6" width="1" height="1" fill="#A22633" />
<rect x="179" y="6" width="1" height="1" fill="#E43B44" />
<rect x="180" y="6" width="1" height="1" fill="#181425" />
<rect x="13" y="7" width="1" height="4" fill="#181425" />
<rect x="14" y="7" width="1" height="1" fill="#C0CBDC" />
<rect x="15" y="7" width="2" height="1" fill="#FFFFFF" />
<rect x="17" y="7" width="1" height="4" fill="#181425" />
<rect x="19" y="7" width="1" height="1" fill="#E43B44" />
<rect x="20" y="7" width="1" height="1" fill="#181425" />
<rect x="46" y="7" width="1" height="3" fill="#8B9BB4" />
<rect x="47" y="7" width="2" height="1" fill="#C0CBDC" />
<rect x="50" y="7" width="2" height="1" fill="#181425" />
<rect x="77" y="7" width="1" height="3" fill="#181425" />
<rect x="78" y="7" width="1" height="1" fill="#C0CBDC" />
<rect x="79" y="7" width="2" height="1" fill="#FFFFFF" />
<rect x="81" y="7" width="3" height="1" fill="#181425" />
<rect x="109" y="7" width="1" height="3" fill="#181425" />
<rect x="110" y="7" width="1" height="1" fill="#C0CBDC" />
<rect x="111" y="7" width="2" height="1" fill="#FFFFFF" />
<rect x="113" y="7" width="1" height="4" fill="#181425" />
<rect x="115" y="7" width="1" height="1" fill="#E43B44" />
<rect x="116" y="7" width="1" height="1" fill="#181425" />
<rect x="135" y="7" width="2" height="1" fill="#181425" />
<rect x="142" y="7" width="1" height="3" fill="#8B9BB4" />
<rect x="143" y="7" width="2" height="1" fill="#C0CBDC" />
<rect x="146" y="7" width="2" height="1" fill="#181425" />
<rect x="173" y="7" width="1" height="4" fill="#181425" />
<rect x="174" y="7" width="1" height="1" fill="#C0CBDC" />
<rect x="175" y="7" width="2" height="1" fill="#FFFFFF" />
<rect x="177" y="7" width="3" height="1" fill="#181425" />
<rect x="14" y="8" width="1" height="3" fill="#8B9BB4" />
<rect x="15" y="8" width="2" height="1" fill="#C0CBDC" />
<rect x="18" y="8" width="2" height="1" fill="#181425" />
<rect x="47" y="8" width="1" height="2" fill="#C0CBDC" />
<rect x="48" y="8" width="1" height="1" fill="#181425" />
<rect x="71" y="8" width="2" height="1" fill="#181425" />
<rect x="78" y="8" width="1" height="3" fill="#8B9BB4" />
<rect x="79" y="8" width="2" height="1" fill="#C0CBDC" />
<rect x="81" y="8" width="1" height="3" fill="#181425" />
<rect x="104" y="8" width="2" height="1" fill="#181425" />
<rect x="110" y="8" width="1" height="3" fill="#8B9BB4" />
<rect x="111" y="8" width="2" height="1" fill="#C0CBDC" />
<rect x="114" y="8" width="2" height="1" fill="#181425" />
<rect x="135" y="8" width="1" height="3" fill="#181425" />
<rect x="136" y="8" width="1" height="2" fill="#FFFFFF" />
<rect x="137" y="8" width="1" height="1" fill="#181425" />
<rect x="143" y="8" width="1" height="2" fill="#C0CBDC" />
<rect x="144" y="8" width="1" height="1" fill="#181425" />
<rect x="174" y="8" width="1" height="3" fill="#8B9BB4" />
<rect x="175" y="8" width="2" height="1" fill="#C0CBDC" />
<rect x="177" y="8" width="1" height="3" fill="#181425" />
<rect x="15" y="9" width="1" height="2" fill="#C0CBDC" />
<rect x="16" y="9" width="1" height="1" fill="#181425" />
<rect x="48" y="9" width="1" height="1" fill="#C0CBDC" />
<rect x="71" y="9" width="1" height="3" fill="#181425" />
<rect x="72" y="9" width="1" height="2" fill="#FFFFFF" />
<rect x="73" y="9" width="1" height="1" fill="#181425" />
<rect x="79" y="9" width="1" height="2" fill="#C0CBDC" />
<rect x="80" y="9" width="1" height="1" fill="#181425" />
<rect x="104" y="9" width="1" height="5" fill="#181425" />
<rect x="105" y="9" width="1" height="4" fill="#FFFFFF" />
<rect x="106" y="9" width="1" height="1" fill="#181425" />
<rect x="111" y="9" width="1" height="2" fill="#C0CBDC" />
<rect x="112" y="9" width="1" height="1" fill="#181425" />
<rect x="137" y="9" width="1" height="2" fill="#FFFFFF" />
<rect x="138" y="9" width="1" height="1" fill="#181425" />
<rect x="140" y="9" width="1" height="2" fill="#181425" />
<rect x="141" y="9" width="1" height="2" fill="#5A6988" />
<rect x="144" y="9" width="1" height="1" fill="#C0CBDC" />
<rect x="175" y="9" width="1" height="2" fill="#C0CBDC" />
<rect x="176" y="9" width="1" height="1" fill="#181425" />
<rect x="16" y="10" width="1" height="1" fill="#C0CBDC" />
<rect x="38" y="10" width="4" height="1" fill="#181425" />
<rect x="44" y="10" width="1" height="1" fill="#181425" />
<rect x="45" y="10" width="3" height="1" fill="#5A6988" />
<rect x="48" y="10" width="2" height="1" fill="#FFFFFF" />
<rect x="50" y="10" width="1" height="4" fill="#181425" />
<rect x="73" y="10" width="1" height="2" fill="#FFFFFF" />
<rect x="74" y="10" width="1" height="1" fill="#181425" />
<rect x="76" y="10" width="1" height="2" fill="#181425" />
<rect x="77" y="10" width="1" height="2" fill="#5A6988" />
<rect x="80" y="10" width="1" height="1" fill="#C0CBDC" />
<rect x="106" y="10" width="1" height="1" fill="#8B9BB4" />
<rect x="107" y="10" width="2" height="2" fill="#181425" />
<rect x="109" y="10" width="1" height="2" fill="#5A6988" />
<rect x="112" y="10" width="1" height="1" fill="#C0CBDC" />
<rect x="114" y="10" width="1" height="1" fill="#181425" />
<rect x="136" y="10" width="1" height="1" fill="#8B9BB4" />
<rect x="138" y="10" width="1" height="3" fill="#FFFFFF" />
<rect x="139" y="10" width="1" height="1" fill="#181425" />
<rect x="142" y="10" width="2" height="1" fill="#5A6988" />
<rect x="144" y="10" width="1" height="1" fill="#8B9BB4" />
<rect x="145" y="10" width="1" height="1" fill="#FFFFFF" />
<rect x="146" y="10" width="1" height="1" fill="#181425" />
<rect x="176" y="10" width="1" height="1" fill="#C0CBDC" />
<rect x="12" y="11" width="1" height="2" fill="#181425" />
<rect x="13" y="11" width="3" height="1" fill="#5A6988" />
<rect x="16" y="11" width="2" height="1" fill="#FFFFFF" />
<rect x="18" y="11" width="1" height="4" fill="#181425" />
<rect x="38" y="11" width="1" height="1" fill="#181425" />
<rect x="39" y="11" width="2" height="1" fill="#FFFFFF" />
<rect x="41" y="11" width="1" height="1" fill="#8B9BB4" />
<rect x="42" y="11" width="2" height="1" fill="#181425" />
<rect x="44" y="11" width="1" height="2" fill="#733E39" />
<rect x="45" y="11" width="1" height="1" fill="#C0CBDC" />
<rect x="46" y="11" width="2" height="1" fill="#FFFFFF" />
<rect x="48" y="11" width="2" height="2" fill="#C0CBDC" />
<rect x="72" y="11" width="1" height="1" fill="#8B9BB4" />
<rect x="74" y="11" width="1" height="3" fill="#FFFFFF" />
<rect x="75" y="11" width="1" height="1" fill="#181425" />
<rect x="78" y="11" width="2" height="1" fill="#5A6988" />
<rect x="80" y="11" width="1" height="1" fill="#8B9BB4" />
<rect x="81" y="11" width="1" height="1" fill="#FFFFFF" />
<rect x="82" y="11" width="1" height="1" fill="#181425" />
<rect x="106" y="11" width="1" height="3" fill="#FFFFFF" />
<rect x="110" y="11" width="2" height="1" fill="#5A6988" />
<rect x="112" y="11" width="1" height="1" fill="#8B9BB4" />
<rect x="113" y="11" width="2" height="1" fill="#FFFFFF" />
<rect x="115" y="11" width="1" height="1" fill="#181425" />
<rect x="136" y="11" width="1" height="3" fill="#181425" />
<rect x="137" y="11" width="1" height="1" fill="#8B9BB4" />
<rect x="139" y="11" width="1" height="1" fill="#8B9BB4" />
<rect x="140" y="11" width="1" height="2" fill="#5A6988" />
<rect x="141" y="11" width="1" height="1" fill="#C0CBDC" />
<rect x="142" y="11" width="2" height="1" fill="#FFFFFF" />
<rect x="144" y="11" width="2" height="1" fill="#C0CBDC" />
<rect x="146" y="11" width="1" height="1" fill="#FFFFFF" />
<rect x="147" y="11" width="1" height="2" fill="#181425" />
<rect x="166" y="11" width="4" height="1" fill="#181425" />
<rect x="172" y="11" width="1" height="1" fill="#181425" />
<rect x="173" y="11" width="3" height="1" fill="#5A6988" />
<rect x="176" y="11" width="1" height="1" fill="#8B9BB4" />
<rect x="177" y="11" width="1" height="1" fill="#FFFFFF" />
<rect x="178" y="11" width="1" height="6" fill="#181425" />
<rect x="8" y="12" width="4" height="1" fill="#181425" />
<rect x="13" y="12" width="1" height="1" fill="#C0CBDC" />
<rect x="14" y="12" width="2" height="1" fill="#FFFFFF" />
<rect x="16" y="12" width="2" height="2" fill="#C0CBDC" />
<rect x="39" y="12" width="1" height="1" fill="#181425" />
<rect x="40" y="12" width="3" height="1" fill="#FFFFFF" />
<rect x="43" y="12" width="1" height="1" fill="#8B9BB4" />
<rect x="45" y="12" width="1" height="2" fill="#8B9BB4" />
<rect x="46" y="12" width="2" height="2" fill="#C0CBDC" />
<rect x="72" y="12" width="1" height="3" fill="#181425" />
<rect x="73" y="12" width="1" height="1" fill="#8B9BB4" />
<rect x="75" y="12" width="1" height="1" fill="#8B9BB4" />
<rect x="76" y="12" width="1" height="2" fill="#5A6988" />
<rect x="77" y="12" width="1" height="1" fill="#C0CBDC" />
<rect x="78" y="12" width="2" height="1" fill="#FFFFFF" />
<rect x="80" y="12" width="2" height="1" fill="#C0CBDC" />
<rect x="82" y="12" width="1" height="2" fill="#8B9BB4" />
<rect x="83" y="12" width="1" height="2" fill="#181425" />
<rect x="107" y="12" width="1" height="1" fill="#181425" />
<rect x="108" y="12" width="1" height="3" fill="#5A6988" />
<rect x="109" y="12" width="1" height="1" fill="#C0CBDC" />
<rect x="110" y="12" width="2" height="1" fill="#FFFFFF" />
<rect x="112" y="12" width="4" height="1" fill="#C0CBDC" />
<rect x="116" y="12" width="1" height="1" fill="#181425" />
<rect x="137" y="12" width="1" height="1" fill="#181425" />
<rect x="139" y="12" width="1" height="1" fill="#FFFFFF" />
<rect x="141" y="12" width="1" height="2" fill="#8B9BB4" />
<rect x="142" y="12" width="3" height="2" fill="#C0CBDC" />
<rect x="145" y="12" width="2" height="1" fill="#8B9BB4" />
<rect x="166" y="12" width="1" height="1" fill="#181425" />
<rect x="167" y="12" width="2" height="1" fill="#FFFFFF" />
<rect x="169" y="12" width="1" height="1" fill="#8B9BB4" />
<rect x="170" y="12" width="2" height="1" fill="#181425" />
<rect x="172" y="12" width="1" height="2" fill="#733E39" />
<rect x="173" y="12" width="1" height="1" fill="#C0CBDC" />
<rect x="174" y="12" width="2" height="1" fill="#FFFFFF" />
<rect x="176" y="12" width="2" height="1" fill="#C0CBDC" />
<rect x="8" y="13" width="1" height="1" fill="#181425" />
<rect x="9" y="13" width="3" height="1" fill="#FFFFFF" />
<rect x="12" y="13" width="2" height="1" fill="#8B9BB4" />
<rect x="14" y="13" width="2" height="2" fill="#C0CBDC" />
<rect x="40" y="13" width="2" height="1" fill="#181425" />
<rect x="42" y="13" width="1" height="1" fill="#FFFFFF" />
<rect x="43" y="13" width="1" height="2" fill="#733E39" />
<rect x="44" y="13" width="1" height="2" fill="#C28569" />
<rect x="48" y="13" width="1" height="1" fill="#C0CBDC" />
<rect x="49" y="13" width="1" height="1" fill="#5A6988" />
<rect x="73" y="13" width="1" height="1" fill="#181425" />
<rect x="75" y="13" width="1" height="1" fill="#FFFFFF" />
<rect x="77" y="13" width="1" height="2" fill="#8B9BB4" />
<rect x="78" y="13" width="3" height="2" fill="#C0CBDC" />
<rect x="81" y="13" width="1" height="1" fill="#8B9BB4" />
<rect x="103" y="13" width="1" height="2" fill="#181425" />
<rect x="105" y="13" width="1" height="1" fill="#8B9BB4" />
<rect x="107" y="13" width="1" height="1" fill="#5A6988" />
<rect x="109" y="13" width="1" height="2" fill="#8B9BB4" />
<rect x="110" y="13" width="3" height="2" fill="#C0CBDC" />
<rect x="113" y="13" width="1" height="1" fill="#8B9BB4" />
<rect x="114" y="13" width="2" height="1" fill="#C0CBDC" />
<rect x="116" y="13" width="1" height="1" fill="#8B9BB4" />
<rect x="117" y="13" width="1" height="1" fill="#181425" />
<rect x="137" y="13" width="2" height="1" fill="#733E39" />
<rect x="139" y="13" width="2" height="2" fill="#C28569" />
<rect x="145" y="13" width="1" height="1" fill="#5A6988" />
<rect x="146" y="13" width="2" height="2" fill="#E8B796" />
<rect x="148" y="13" width="1" height="3" fill="#181425" />
<rect x="167" y="13" width="1" height="1" fill="#181425" />
<rect x="168" y="13" width="3" height="1" fill="#FFFFFF" />
<rect x="171" y="13" width="1" height="1" fill="#8B9BB4" />
<rect x="173" y="13" width="1" height="2" fill="#8B9BB4" />
<rect x="174" y="13" width="3" height="2" fill="#C0CBDC" />
<rect x="177" y="13" width="1" height="1" fill="#8B9BB4" />
<rect x="9" y="14" width="2" height="1" fill="#181425" />
<rect x="11" y="14" width="2" height="1" fill="#FFFFFF" />
<rect x="13" y="14" width="1" height="1" fill="#8B9BB4" />
<rect x="16" y="14" width="1" height="1" fill="#C0CBDC" />
<rect x="17" y="14" width="1" height="1" fill="#5A6988" />
<rect x="42" y="14" width="1" height="1" fill="#181425" />
<rect x="45" y="14" width="3" height="1" fill="#5A6988" />
<rect x="48" y="14" width="1" height="2" fill="#8B9BB4" />
<rect x="49" y="14" width="1" height="3" fill="#181425" />
<rect x="73" y="14" width="2" height="1" fill="#733E39" />
<rect x="75" y="14" width="2" height="2" fill="#C28569" />
<rect x="81" y="14" width="1" height="1" fill="#5A6988" />
<rect x="82" y="14" width="2" height="2" fill="#E8B796" />
<rect x="84" y="14" width="1" height="3" fill="#181425" />
<rect x="104" y="14" width="2" height="1" fill="#733E39" />
<rect x="106" y="14" width="2" height="2" fill="#C28569" />
<rect x="113" y="14" width="1" height="1" fill="#5A6988" />
<rect x="114" y="14" width="1" height="1" fill="#181425" />
<rect x="115" y="14" width="1" height="1" fill="#8B9BB4" />
<rect x="116" y="14" width="2" height="2" fill="#E8B796" />
<rect x="118" y="14" width="1" height="3" fill="#181425" />
<rect x="137" y="14" width="2" height="1" fill="#181425" />
<rect x="141" y="14" width="2" height="1" fill="#5A6988" />
<rect x="143" y="14" width="3" height="1" fill="#8B9BB4" />
<rect x="168" y="14" width="2" height="1" fill="#181425" />
<rect x="170" y="14" width="1" height="1" fill="#FFFFFF" />
<rect x="171" y="14" width="1" height="2" fill="#733E39" />
<rect x="172" y="14" width="1" height="2" fill="#C28569" />
<rect x="177" y="14" width="1" height="1" fill="#5A6988" />
<rect x="11" y="15" width="2" height="1" fill="#181425" />
<rect x="13" y="15" width="3" height="1" fill="#5A6988" />
<rect x="16" y="15" width="3" height="2" fill="#8B9BB4" />
<rect x="19" y="15" width="1" height="2" fill="#181425" />
<rect x="43" y="15" width="3" height="1" fill="#181425" />
<rect x="46" y="15" width="2" height="3" fill="#B86F50" />
<rect x="73" y="15" width="2" height="1" fill="#181425" />
<rect x="77" y="15" width="3" height="1" fill="#5A6988" />
<rect x="80" y="15" width="2" height="2" fill="#8B9BB4" />
<rect x="104" y="15" width="2" height="1" fill="#181425" />
<rect x="108" y="15" width="1" height="2" fill="#181425" />
<rect x="109" y="15" width="3" height="1" fill="#5A6988" />
<rect x="112" y="15" width="3" height="2" fill="#8B9BB4" />
<rect x="115" y="15" width="1" height="2" fill="#181425" />
<rect x="138" y="15" width="4" height="1" fill="#181425" />
<rect x="142" y="15" width="1" height="3" fill="#733E39" />
<rect x="143" y="15" width="2" height="1" fill="#8B9BB4" />
<rect x="145" y="15" width="3" height="1" fill="#181425" />
<rect x="170" y="15" width="1" height="1" fill="#181425" />
<rect x="173" y="15" width="3" height="1" fill="#5A6988" />
<rect x="176" y="15" width="2" height="2" fill="#8B9BB4" />
<rect x="12" y="16" width="1" height="1" fill="#181425" />
<rect x="13" y="16" width="2" height="2" fill="#733E39" />
<rect x="15" y="16" width="1" height="2" fill="#181425" />
<rect x="45" y="16" width="1" height="2" fill="#181425" />
<rect x="48" y="16" width="1" height="1" fill="#733E39" />
<rect x="74" y="16" width="2" height="1" fill="#181425" />
<rect x="76" y="16" width="3" height="1" fill="#B86F50" />
<rect x="79" y="16" width="1" height="2" fill="#181425" />
<rect x="82" y="16" width="1" height="1" fill="#8B9BB4" />
<rect x="83" y="16" width="1" height="2" fill="#181425" />
<rect x="105" y="16" width="3" height="1" fill="#181425" />
<rect x="109" y="16" width="2" height="2" fill="#B86F50" />
<rect x="111" y="16" width="1" height="2" fill="#181425" />
<rect x="116" y="16" width="2" height="1" fill="#181425" />
<rect x="141" y="16" width="1" height="2" fill="#181425" />
<rect x="143" y="16" width="2" height="2" fill="#B86F50" />
<rect x="145" y="16" width="1" height="1" fill="#181425" />
<rect x="171" y="16" width="1" height="1" fill="#181425" />
<rect x="172" y="16" width="3" height="1" fill="#733E39" />
<rect x="175" y="16" width="1" height="2" fill="#181425" />
<rect x="11" y="17" width="1" height="2" fill="#181425" />
<rect x="12" y="17" width="1" height="1" fill="#733E39" />
<rect x="16" y="17" width="1" height="1" fill="#181425" />
<rect x="17" y="17" width="3" height="1" fill="#B86F50" />
<rect x="20" y="17" width="1" height="1" fill="#181425" />
<rect x="48" y="17" width="2" height="1" fill="#B86F50" />
<rect x="50" y="17" width="1" height="3" fill="#181425" />
<rect x="74" y="17" width="1" height="3" fill="#181425" />
<rect x="75" y="17" width="1" height="1" fill="#733E39" />
<rect x="76" y="17" width="2" height="1" fill="#B86F50" />
<rect x="78" y="17" width="1" height="1" fill="#181425" />
<rect x="80" y="17" width="3" height="1" fill="#733E39" />
<rect x="107" y="17" width="1" height="2" fill="#181425" />
<rect x="108" y="17" width="1" height="1" fill="#B86F50" />
<rect x="112" y="17" width="1" height="1" fill="#181425" />
<rect x="113" y="17" width="3" height="1" fill="#733E39" />
<rect x="116" y="17" width="1" height="1" fill="#181425" />
<rect x="145" y="17" width="1" height="2" fill="#733E39" />
<rect x="146" y="17" width="1" height="3" fill="#181425" />
<rect x="170" y="17" width="1" height="3" fill="#181425" />
<rect x="171" y="17" width="1" height="1" fill="#3E2731" />
<rect x="172" y="17" width="2" height="1" fill="#733E39" />
<rect x="174" y="17" width="1" height="1" fill="#181425" />
<rect x="176" y="17" width="3" height="1" fill="#B86F50" />
<rect x="179" y="17" width="1" height="1" fill="#181425" />
<rect x="12" y="18" width="1" height="1" fill="#3E2731" />
<rect x="13" y="18" width="1" height="2" fill="#733E39" />
<rect x="14" y="18" width="1" height="2" fill="#181425" />
<rect x="17" y="18" width="1" height="1" fill="#181425" />
<rect x="18" y="18" width="3" height="1" fill="#B86F50" />
<rect x="21" y="18" width="1" height="3" fill="#181425" />
<rect x="46" y="18" width="1" height="2" fill="#181425" />
<rect x="47" y="18" width="1" height="1" fill="#B86F50" />
<rect x="48" y="18" width="1" height="2" fill="#733E39" />
<rect x="49" y="18" width="1" height="1" fill="#B86F50" />
<rect x="75" y="18" width="2" height="1" fill="#B86F50" />
<rect x="77" y="18" width="1" height="1" fill="#181425" />
<rect x="80" y="18" width="1" height="1" fill="#181425" />
<rect x="81" y="18" width="1" height="1" fill="#3E2731" />
<rect x="82" y="18" width="2" height="2" fill="#733E39" />
<rect x="84" y="18" width="1" height="3" fill="#181425" />
<rect x="108" y="18" width="1" height="1" fill="#733E39" />
<rect x="109" y="18" width="1" height="2" fill="#B86F50" />
<rect x="110" y="18" width="1" height="2" fill="#181425" />
<rect x="113" y="18" width="1" height="1" fill="#181425" />
<rect x="114" y="18" width="3" height="1" fill="#733E39" />
<rect x="117" y="18" width="1" height="3" fill="#181425" />
<rect x="142" y="18" width="1" height="2" fill="#181425" />
<rect x="143" y="18" width="1" height="1" fill="#733E39" />
<rect x="144" y="18" width="1" height="2" fill="#B86F50" />
<rect x="171" y="18" width="2" height="1" fill="#733E39" />
<rect x="173" y="18" width="1" height="1" fill="#181425" />
<rect x="176" y="18" width="1" height="1" fill="#181425" />
<rect x="177" y="18" width="1" height="1" fill="#733E39" />
<rect x="178" y="18" width="2" height="2" fill="#B86F50" />
<rect x="180" y="18" width="1" height="3" fill="#181425" />
<rect x="11" y="19" width="2" height="1" fill="#733E39" />
<rect x="18" y="19" width="1" height="1" fill="#181425" />
<rect x="19" y="19" width="1" height="1" fill="#733E39" />
<rect x="20" y="19" width="1" height="1" fill="#B86F50" />
<rect x="47" y="19" width="1" height="1" fill="#733E39" />
<rect x="49" y="19" width="1" height="1" fill="#181425" />
<rect x="75" y="19" width="2" height="1" fill="#181425" />
<rect x="81" y="19" width="1" height="1" fill="#181425" />
<rect x="107" y="19" width="2" height="1" fill="#B86F50" />
<rect x="114" y="19" width="1" height="1" fill="#181425" />
<rect x="115" y="19" width="1" height="1" fill="#3E2731" />
<rect x="116" y="19" width="1" height="1" fill="#733E39" />
<rect x="143" y="19" width="1" height="1" fill="#B86F50" />
<rect x="145" y="19" width="1" height="1" fill="#181425" />
<rect x="171" y="19" width="2" height="1" fill="#181425" />
<rect x="177" y="19" width="1" height="1" fill="#181425" />
<rect x="19" y="20" width="2" height="1" fill="#181425" />
<rect x="82" y="20" width="2" height="1" fill="#181425" />
<rect x="115" y="20" width="2" height="1" fill="#181425" />
<rect x="178" y="20" width="2" height="1" fill="#181425" />
</svg>