<?xml version="1.0" encoding="UTF-8" ?>
<svg version="1.1" width="256" height="32" xmlns="http://www.w3.org/2000/svg" shape-rendering="crispEdges">
<rect x="48" y="3" width="4" height="1" fill="#181425" />
<rect x="15" y="4" width="4" height="1" fill="#181425" />
<rect x="47" y="4" width="1" height="1" fill="#181425" />
<rect x="48" y="4" width="2" height="2" fill="#B55088" />
<rect x="50" y="4" width="1" height="1" fill="#68386C" />
<rect x="51" y="4" width="1" height="1" fill="#181425" />
<rect x="14" y="5" width="1" height="1" fill="#181425" />
<rect x="15" y="5" width="2" height="2" fill="#B55088" />
<rect x="17" y="5" width="1" height="1" fill="#68386C" />
<rect x="18" y="5" width="1" height="1" fill="#181425" />
<rect x="45" y="5" width="2" height="1" fill="#181425" />
<rect x="47" y="5" width="1" height="1" fill="#68386C" />
<rect x="50" y="5" width="1" height="2" fill="#181425" />
<rect x="90" y="5" width="4" height="1" fill="#181425" />
<rect x="12" y="6" width="2" height="1" fill="#181425" />
<rect x="14" y="6" width="1" height="1" fill="#68386C" />
<rect x="17" y="6" width="1" height="2" fill="#181425" />
<rect x="44" y="6" width="1" height="2" fill="#181425" />
<rect x="45" y="6" width="3" height="1" fill="#F6757A" />
<rect x="48" y="6" width="1" height="1" fill="#B55088" />
<rect x="49" y="6" width="1" height="1" fill="#68386C" />
<rect x="51" y="6" width="2" height="1" fill="#181425" />
<rect x="89" y="6" width="1" height="1" fill="#181425" />
<rect x="90" y="6" width="2" height="2" fill="#B55088" />
<rect x="92" y="6" width="1" height="1" fill="#68386C" />
<rect x="93" y="6" width="1" height="1" fill="#181425" />
<rect x="122" y="6" width="4" height="1" fill="#181425" />
<rect x="11" y="7" width="1" height="2" fill="#181425" />
<rect x="12" y="7" width="3" height="1" fill="#F6757A" />
<rect x="15" y="7" width="1" height="1" fill="#B55088" />
<rect x="16" y="7" width="1" height="1" fill="#68386C" />
<rect x="18" y="7" width="2" height="1" fill="#181425" />
<rect x="41" y="7" width="2" height="1" fill="#181425" />
<rect x="45" y="7" width="2" height="1" fill="#181425" />
<rect x="47" y="7" width="1" height="1" fill="#68386C" />
<rect x="48" y="7" width="3" height="1" fill="#F6757A" />
<rect x="51" y="7" width="1" height="1" fill="#B55088" />
<rect x="52" y="7" width="1" height="1" fill="#181425" />
<rect x="87" y="7" width="2" height="1" fill="#181425" />
<rect x="89" y="7" width="1" height="1" fill="#68386C" />
<rect x="92" y="7" width="1" height="2" fill="#181425" />
<rect x="121" y="7" width="1" height="1" fill="#181425" />
<rect x="122" y="7" width="2" height="2" fill="#B55088" />
<rect x="124" y="7" width="1" height="1" fill="#68386C" />
<rect x="125" y="7" width="1" height="1" fill="#181425" />
<rect x="12" y="8" width="2" height="1" fill="#181425" />
<rect x="14" y="8" width="1" height="1" fill="#68386C" />
<rect x="15" y="8" width="3" height="1" fill="#F6757A" />
<rect x="18" y="8" width="1" height="1" fill="#B55088" />
<rect x="19" y="8" width="1" height="1" fill="#181425" />
<rect x="40" y="8" width="1" height="2" fill="#181425" />
<rect x="41" y="8" width="2" height="1" fill="#733E39" />
<rect x="43" y="8" width="1" height="3" fill="#181425" />
<rect x="46" y="8" width="1" height="1" fill="#181425" />
<rect x="47" y="8" width="2" height="2" fill="#E8B796" />
<rect x="49" y="8" width="3" height="1" fill="#181425" />
<rect x="86" y="8" width="1" height="3" fill="#181425" />
<rect x="87" y="8" width="3" height="1" fill="#F6757A" />
<rect x="90" y="8" width="1" height="1" fill="#B55088" />
<rect x="91" y="8" width="1" height="1" fill="#68386C" />
<rect x="93" y="8" width="2" height="1" fill="#181425" />
<rect x="119" y="8" width="2" height="1" fill="#181425" />
<rect x="121" y="8" width="1" height="1" fill="#68386C" />
<rect x="124" y="8" width="1" height="2" fill="#181425" />
<rect x="154" y="8" width="2" height="2" fill="#B55088" />
<rect x="156" y="8" width="1" height="1" fill="#68386C" />
<rect x="8" y="9" width="2" height="1" fill="#181425" />
<rect x="13" y="9" width="1" height="1" fill="#181425" />
<rect x="14" y="9" width="2" height="2" fill="#E8B796" />
<rect x="16" y="9" width="3" height="1" fill="#181425" />
<rect x="41" y="9" width="1" height="5" fill="#181425" />
<rect x="42" y="9" width="1" height="2" fill="#733E39" />
<rect x="44" y="9" width="2" height="1" fill="#181425" />
<rect x="46" y="9" width="1" height="1" fill="#68386C" />
<rect x="49" y="9" width="1" height="1" fill="#E8B796" />
<rect x="50" y="9" width="3" height="1" fill="#181425" />
<rect x="67" y="9" width="3" height="1" fill="#181425" />
<rect x="82" y="9" width="3" height="1" fill="#181425" />
<rect x="87" y="9" width="2" height="1" fill="#181425" />
<rect x="89" y="9" width="1" height="1" fill="#68386C" />
<rect x="90" y="9" width="3" height="1" fill="#F6757A" />
<rect x="93" y="9" width="1" height="1" fill="#B55088" />
<rect x="94" y="9" width="1" height="1" fill="#181425" />
<rect x="118" y="9" width="1" height="2" fill="#181425" />
<rect x="119" y="9" width="3" height="1" fill="#F6757A" />
<rect x="122" y="9" width="1" height="1" fill="#B55088" />
<rect x="123" y="9" width="1" height="1" fill="#68386C" />
<rect x="125" y="9" width="2" height="1" fill="#181425" />
<rect x="153" y="9" width="1" height="1" fill="#68386C" />
<rect x="186" y="9" width="2" height="1" fill="#B55088" />
<rect x="7" y="10" width="1" height="2" fill="#181425" />
<rect x="8" y="10" width="2" height="1" fill="#733E39" />
<rect x="10" y="10" width="1" height="3" fill="#181425" />
<rect x="12" y="10" width="1" height="2" fill="#181425" />
<rect x="13" y="10" width="1" height="1" fill="#68386C" />
<rect x="16" y="10" width="1" height="1" fill="#E8B796" />
<rect x="17" y="10" width="2" height="1" fill="#181425" />
<rect x="44" y="10" width="1" height="1" fill="#181425" />
<rect x="45" y="10" width="1" height="2" fill="#68386C" />
<rect x="46" y="10" width="4" height="3" fill="#B55088" />
<rect x="50" y="10" width="3" height="2" fill="#F6757A" />
<rect x="53" y="10" width="3" height="1" fill="#181425" />
<rect x="67" y="10" width="1" height="2" fill="#181425" />
<rect x="68" y="10" width="2" height="2" fill="#733E39" />
<rect x="70" y="10" width="1" height="1" fill="#181425" />
<rect x="82" y="10" width="1" height="2" fill="#181425" />
<rect x="83" y="10" width="2" height="2" fill="#C28569" />
<rect x="85" y="10" width="1" height="1" fill="#181425" />
<rect x="87" y="10" width="1" height="1" fill="#181425" />
<rect x="88" y="10" width="4" height="1" fill="#E8B796" />
<rect x="92" y="10" width="1" height="2" fill="#181425" />
<rect x="115" y="10" width="3" height="1" fill="#181425" />
<rect x="119" y="10" width="2" height="1" fill="#181425" />
<rect x="121" y="10" width="1" height="1" fill="#68386C" />
<rect x="122" y="10" width="3" height="1" fill="#F6757A" />
<rect x="125" y="10" width="1" height="1" fill="#B55088" />
<rect x="126" y="10" width="1" height="1" fill="#181425" />
<rect x="151" y="10" width="3" height="1" fill="#F6757A" />
<rect x="154" y="10" width="1" height="1" fill="#B55088" />
<rect x="155" y="10" width="1" height="1" fill="#68386C" />
<rect x="184" y="10" width="2" height="1" fill="#F6757A" />
<rect x="186" y="10" width="1" height="1" fill="#B55088" />
<rect x="187" y="10" width="1" height="1" fill="#68386C" />
<rect x="8" y="11" width="1" height="4" fill="#181425" />
<rect x="9" y="11" width="1" height="2" fill="#733E39" />
<rect x="13" y="11" width="4" height="3" fill="#B55088" />
<rect x="17" y="11" width="2" height="2" fill="#F6757A" />
<rect x="19" y="11" width="1" height="1" fill="#181425" />
<rect x="42" y="11" width="2" height="2" fill="#C28569" />
<rect x="44" y="11" width="1" height="2" fill="#68386C" />
<rect x="53" y="11" width="1" height="2" fill="#B55088" />
<rect x="54" y="11" width="2" height="2" fill="#E8B796" />
<rect x="56" y="11" width="1" height="3" fill="#181425" />
<rect x="70" y="11" width="1" height="2" fill="#733E39" />
<rect x="71" y="11" width="1" height="1" fill="#181425" />
<rect x="85" y="11" width="2" height="1" fill="#68386C" />
<rect x="87" y="11" width="1" height="5" fill="#B55088" />
<rect x="88" y="11" width="2" height="2" fill="#E8B796" />
<rect x="90" y="11" width="1" height="1" fill="#181425" />
<rect x="91" y="11" width="1" height="1" fill="#E8B796" />
<rect x="99" y="11" width="3" height="1" fill="#181425" />
<rect x="115" y="11" width="1" height="1" fill="#181425" />
<rect x="116" y="11" width="2" height="2" fill="#C28569" />
<rect x="118" y="11" width="2" height="3" fill="#B55088" />
<rect x="120" y="11" width="4" height="1" fill="#E8B796" />
<rect x="124" y="11" width="1" height="1" fill="#181425" />
<rect x="148" y="11" width="2" height="1" fill="#C28569" />
<rect x="150" y="11" width="2" height="3" fill="#B55088" />
<rect x="152" y="11" width="1" height="3" fill="#E8B796" />
<rect x="153" y="11" width="1" height="1" fill="#68386C" />
<rect x="154" y="11" width="3" height="1" fill="#F6757A" />
<rect x="157" y="11" width="1" height="1" fill="#B55088" />
<rect x="184" y="11" width="1" height="3" fill="#E8B796" />
<rect x="185" y="11" width="1" height="1" fill="#68386C" />
<rect x="186" y="11" width="2" height="1" fill="#F6757A" />
<rect x="11" y="12" width="1" height="1" fill="#181425" />
<rect x="12" y="12" width="1" height="3" fill="#68386C" />
<rect x="19" y="12" width="1" height="2" fill="#F6757A" />
<rect x="20" y="12" width="1" height="1" fill="#181425" />
<rect x="45" y="12" width="1" height="5" fill="#181425" />
<rect x="50" y="12" width="1" height="1" fill="#B55088" />
<rect x="51" y="12" width="2" height="1" fill="#181425" />
<rect x="68" y="12" width="2" height="1" fill="#181425" />
<rect x="71" y="12" width="1" height="2" fill="#733E39" />
<rect x="72" y="12" width="1" height="1" fill="#181425" />
<rect x="83" y="12" width="2" height="1" fill="#181425" />
<rect x="85" y="12" width="1" height="4" fill="#68386C" />
<rect x="86" y="12" width="1" height="1" fill="#B55088" />
<rect x="90" y="12" width="1" height="1" fill="#E8B796" />
<rect x="91" y="12" width="1" height="1" fill="#181425" />
<rect x="99" y="12" width="1" height="1" fill="#181425" />
<rect x="100" y="12" width="2" height="2" fill="#733E39" />
<rect x="102" y="12" width="1" height="1" fill="#181425" />
<rect x="120" y="12" width="2" height="2" fill="#E8B796" />
<rect x="122" y="12" width="1" height="1" fill="#181425" />
<rect x="123" y="12" width="1" height="1" fill="#E8B796" />
<rect x="132" y="12" width="2" height="2" fill="#733E39" />
<rect x="149" y="12" width="1" height="1" fill="#C28569" />
<rect x="153" y="12" width="1" height="2" fill="#E8B796" />
<rect x="154" y="12" width="1" height="1" fill="#181425" />
<rect x="155" y="12" width="1" height="1" fill="#E8B796" />
<rect x="183" y="12" width="1" height="1" fill="#E8B796" />
<rect x="185" y="12" width="1" height="2" fill="#E8B796" />
<rect x="186" y="12" width="1" height="1" fill="#181425" />
<rect x="215" y="12" width="3" height="1" fill="#E8B796" />
<rect x="9" y="13" width="2" height="2" fill="#C28569" />
<rect x="11" y="13" width="1" height="2" fill="#68386C" />
<rect x="17" y="13" width="1" height="1" fill="#B55088" />
<rect x="18" y="13" width="1" height="1" fill="#F6757A" />
<rect x="20" y="13" width="1" height="1" fill="#B55088" />
<rect x="21" y="13" width="1" height="1" fill="#181425" />
<rect x="42" y="13" width="1" height="2" fill="#181425" />
<rect x="43" y="13" width="1" height="2" fill="#733E39" />
<rect x="44" y="13" width="1" height="1" fill="#181425" />
<rect x="46" y="13" width="3" height="1" fill="#68386C" />
<rect x="49" y="13" width="1" height="5" fill="#B55088" />
<rect x="50" y="13" width="1" height="1" fill="#68386C" />
<rect x="51" y="13" width="1" height="1" fill="#181425" />
<rect x="53" y="13" width="3" height="1" fill="#181425" />
<rect x="70" y="13" width="1" height="1" fill="#181425" />
<rect x="72" y="13" width="1" height="2" fill="#733E39" />
<rect x="73" y="13" width="1" height="1" fill="#181425" />
<rect x="81" y="13" width="3" height="1" fill="#181425" />
<rect x="84" y="13" width="1" height="3" fill="#68386C" />
<rect x="86" y="13" width="1" height="1" fill="#68386C" />
<rect x="88" y="13" width="2" height="2" fill="#F6757A" />
<rect x="90" y="13" width="1" height="1" fill="#181425" />
<rect x="102" y="13" width="1" height="2" fill="#733E39" />
<rect x="103" y="13" width="1" height="1" fill="#181425" />
<rect x="116" y="13" width="2" height="3" fill="#68386C" />
<rect x="122" y="13" width="1" height="1" fill="#E8B796" />
<rect x="134" y="13" width="1" height="2" fill="#733E39" />
<rect x="148" y="13" width="2" height="3" fill="#68386C" />
<rect x="154" y="13" width="1" height="1" fill="#E8B796" />
<rect x="166" y="13" width="1" height="2" fill="#733E39" />
<rect x="180" y="13" width="2" height="3" fill="#68386C" />
<rect x="182" y="13" width="2" height="1" fill="#B55088" />
<rect x="186" y="13" width="1" height="1" fill="#E8B796" />
<rect x="214" y="13" width="2" height="1" fill="#B55088" />
<rect x="216" y="13" width="2" height="1" fill="#E8B796" />
<rect x="247" y="13" width="1" height="2" fill="#B55088" />
<rect x="248" y="13" width="1" height="1" fill="#E8B796" />
<rect x="13" y="14" width="3" height="1" fill="#68386C" />
<rect x="16" y="14" width="1" height="5" fill="#B55088" />
<rect x="17" y="14" width="1" height="1" fill="#68386C" />
<rect x="18" y="14" width="1" height="1" fill="#181425" />
<rect x="19" y="14" width="1" height="1" fill="#B55088" />
<rect x="20" y="14" width="2" height="2" fill="#E8B796" />
<rect x="22" y="14" width="1" height="3" fill="#181425" />
<rect x="44" y="14" width="1" height="4" fill="#733E39" />
<rect x="46" y="14" width="1" height="3" fill="#68386C" />
<rect x="47" y="14" width="1" height="4" fill="#B55088" />
<rect x="48" y="14" width="1" height="1" fill="#68386C" />
<rect x="50" y="14" width="2" height="3" fill="#B55088" />
<rect x="52" y="14" width="1" height="7" fill="#181425" />
<rect x="71" y="14" width="1" height="1" fill="#181425" />
<rect x="73" y="14" width="1" height="2" fill="#733E39" />
<rect x="74" y="14" width="1" height="1" fill="#181425" />
<rect x="78" y="14" width="3" height="1" fill="#181425" />
<rect x="81" y="14" width="3" height="1" fill="#68386C" />
<rect x="86" y="14" width="1" height="4" fill="#B55088" />
<rect x="90" y="14" width="1" height="2" fill="#F6757A" />
<rect x="91" y="14" width="1" height="1" fill="#181425" />
<rect x="103" y="14" width="1" height="2" fill="#733E39" />
<rect x="104" y="14" width="2" height="1" fill="#181425" />
<rect x="110" y="14" width="3" height="1" fill="#181425" />
<rect x="113" y="14" width="3" height="1" fill="#68386C" />
<rect x="118" y="14" width="1" height="1" fill="#68386C" />
<rect x="119" y="14" width="1" height="2" fill="#B55088" />
<rect x="120" y="14" width="2" height="3" fill="#F6757A" />
<rect x="122" y="14" width="1" height="2" fill="#181425" />
<rect x="135" y="14" width="1" height="2" fill="#733E39" />
<rect x="145" y="14" width="3" height="1" fill="#68386C" />
<rect x="150" y="14" width="1" height="1" fill="#68386C" />
<rect x="151" y="14" width="1" height="2" fill="#B55088" />
<rect x="152" y="14" width="2" height="3" fill="#F6757A" />
<rect x="167" y="14" width="1" height="2" fill="#733E39" />
<rect x="179" y="14" width="1" height="1" fill="#68386C" />
<rect x="182" y="14" width="1" height="1" fill="#68386C" />
<rect x="183" y="14" width="1" height="2" fill="#B55088" />
<rect x="184" y="14" width="2" height="3" fill="#F6757A" />
<rect x="213" y="14" width="2" height="1" fill="#68386C" />
<rect x="215" y="14" width="1" height="2" fill="#B55088" />
<rect x="216" y="14" width="2" height="1" fill="#F6757A" />
<rect x="248" y="14" width="1" height="1" fill="#F6757A" />
<rect x="9" y="15" width="1" height="2" fill="#181425" />
<rect x="10" y="15" width="1" height="2" fill="#733E39" />
<rect x="11" y="15" width="2" height="1" fill="#181425" />
<rect x="13" y="15" width="1" height="3" fill="#68386C" />
<rect x="14" y="15" width="1" height="4" fill="#B55088" />
<rect x="15" y="15" width="1" height="1" fill="#68386C" />
<rect x="17" y="15" width="2" height="3" fill="#B55088" />
<rect x="19" y="15" width="1" height="3" fill="#181425" />
<rect x="43" y="15" width="1" height="4" fill="#181425" />
<rect x="48" y="15" width="1" height="1" fill="#B55088" />
<rect x="72" y="15" width="1" height="1" fill="#181425" />
<rect x="74" y="15" width="1" height="2" fill="#733E39" />
<rect x="75" y="15" width="1" height="1" fill="#181425" />
<rect x="78" y="15" width="1" height="2" fill="#181425" />
<rect x="79" y="15" width="1" height="2" fill="#733E39" />
<rect x="80" y="15" width="1" height="1" fill="#3E2731" />
<rect x="81" y="15" width="2" height="1" fill="#68386C" />
<rect x="83" y="15" width="1" height="1" fill="#B55088" />
<rect x="88" y="15" width="1" height="1" fill="#B55088" />
<rect x="89" y="15" width="1" height="1" fill="#F6757A" />
<rect x="91" y="15" width="1" height="1" fill="#B55088" />
<rect x="92" y="15" width="1" height="1" fill="#181425" />
<rect x="104" y="15" width="2" height="1" fill="#733E39" />
<rect x="106" y="15" width="1" height="1" fill="#181425" />
<rect x="110" y="15" width="1" height="1" fill="#181425" />
<rect x="111" y="15" width="1" height="2" fill="#733E39" />
<rect x="112" y="15" width="1" height="1" fill="#3E2731" />
<rect x="113" y="15" width="2" height="1" fill="#68386C" />
<rect x="115" y="15" width="1" height="1" fill="#B55088" />
<rect x="118" y="15" width="1" height="3" fill="#B55088" />
<rect x="136" y="15" width="2" height="1" fill="#733E39" />
<rect x="143" y="15" width="1" height="2" fill="#733E39" />
<rect x="144" y="15" width="1" height="1" fill="#3E2731" />
<rect x="145" y="15" width="2" height="1" fill="#68386C" />
<rect x="147" y="15" width="1" height="1" fill="#B55088" />
<rect x="150" y="15" width="1" height="3" fill="#B55088" />
<rect x="168" y="15" width="2" height="1" fill="#733E39" />
<rect x="177" y="15" width="1" height="2" fill="#733E39" />
<rect x="178" y="15" width="1" height="1" fill="#68386C" />
<rect x="179" y="15" width="1" height="1" fill="#B55088" />
<rect x="182" y="15" width="1" height="3" fill="#B55088" />
<rect x="213" y="15" width="1" height="1" fill="#68386C" />
<rect x="214" y="15" width="1" height="2" fill="#B55088" />
<rect x="216" y="15" width="1" height="1" fill="#F6757A" />
<rect x="11" y="16" width="1" height="4" fill="#733E39" />
<rect x="12" y="16" width="1" height="3" fill="#181425" />
<rect x="15" y="16" width="1" height="1" fill="#B55088" />
<rect x="20" y="16" width="2" height="1" fill="#181425" />
<rect x="48" y="16" width="1" height="2" fill="#68386C" />
<rect x="73" y="16" width="1" height="1" fill="#181425" />
<rect x="75" y="16" width="1" height="2" fill="#733E39" />
<rect x="76" y="16" width="1" height="1" fill="#181425" />
<rect x="80" y="16" width="1" height="1" fill="#733E39" />
<rect x="81" y="16" width="1" height="1" fill="#68386C" />
<rect x="82" y="16" width="1" height="1" fill="#B55088" />
<rect x="83" y="16" width="1" height="2" fill="#68386C" />
<rect x="84" y="16" width="2" height="3" fill="#B55088" />
<rect x="87" y="16" width="1" height="1" fill="#68386C" />
<rect x="88" y="16" width="2" height="1" fill="#181425" />
<rect x="90" y="16" width="1" height="1" fill="#B55088" />
<rect x="91" y="16" width="2" height="2" fill="#E8B796" />
<rect x="93" y="16" width="1" height="3" fill="#181425" />
<rect x="105" y="16" width="2" height="1" fill="#733E39" />
<rect x="107" y="16" width="1" height="1" fill="#181425" />
<rect x="112" y="16" width="1" height="1" fill="#733E39" />
<rect x="113" y="16" width="1" height="1" fill="#68386C" />
<rect x="114" y="16" width="1" height="1" fill="#B55088" />
<rect x="115" y="16" width="1" height="2" fill="#68386C" />
<rect x="116" y="16" width="2" height="3" fill="#B55088" />
<rect x="119" y="16" width="1" height="1" fill="#68386C" />
<rect x="122" y="16" width="1" height="2" fill="#B55088" />
<rect x="123" y="16" width="1" height="2" fill="#181425" />
<rect x="137" y="16" width="2" height="1" fill="#733E39" />
<rect x="144" y="16" width="1" height="1" fill="#733E39" />
<rect x="145" y="16" width="1" height="1" fill="#68386C" />
<rect x="146" y="16" width="1" height="1" fill="#B55088" />
<rect x="147" y="16" width="1" height="2" fill="#68386C" />
<rect x="148" y="16" width="2" height="3" fill="#B55088" />
<rect x="151" y="16" width="1" height="1" fill="#68386C" />
<rect x="154" y="16" width="1" height="2" fill="#B55088" />
<rect x="169" y="16" width="1" height="1" fill="#733E39" />
<rect x="178" y="16" width="1" height="1" fill="#B55088" />
<rect x="179" y="16" width="1" height="2" fill="#68386C" />
<rect x="180" y="16" width="2" height="3" fill="#B55088" />
<rect x="183" y="16" width="1" height="1" fill="#68386C" />
<rect x="186" y="16" width="1" height="1" fill="#E8B796" />
<rect x="213" y="16" width="1" height="1" fill="#B55088" />
<rect x="215" y="16" width="1" height="1" fill="#68386C" />
<rect x="10" y="17" width="1" height="3" fill="#181425" />
<rect x="15" y="17" width="1" height="2" fill="#68386C" />
<rect x="20" y="17" width="1" height="4" fill="#181425" />
<rect x="45" y="17" width="1" height="1" fill="#733E39" />
<rect x="46" y="17" width="1" height="1" fill="#3E2731" />
<rect x="50" y="17" width="1" height="1" fill="#B55088" />
<rect x="51" y="17" width="1" height="1" fill="#733E39" />
<rect x="74" y="17" width="1" height="1" fill="#181425" />
<rect x="79" y="17" width="3" height="1" fill="#181425" />
<rect x="82" y="17" width="1" height="1" fill="#68386C" />
<rect x="87" y="17" width="1" height="1" fill="#181425" />
<rect x="90" y="17" width="1" height="1" fill="#181425" />
<rect x="106" y="17" width="2" height="1" fill="#733E39" />
<rect x="108" y="17" width="1" height="1" fill="#181425" />
<rect x="114" y="17" width="1" height="1" fill="#68386C" />
<rect x="119" y="17" width="1" height="1" fill="#E8B796" />
<rect x="121" y="17" width="1" height="1" fill="#B55088" />
<rect x="138" y="17" width="2" height="1" fill="#733E39" />
<rect x="146" y="17" width="1" height="1" fill="#68386C" />
<rect x="153" y="17" width="1" height="1" fill="#B55088" />
<rect x="178" y="17" width="1" height="1" fill="#68386C" />
<rect x="13" y="18" width="1" height="1" fill="#3E2731" />
<rect x="17" y="18" width="1" height="1" fill="#B55088" />
<rect x="18" y="18" width="1" height="1" fill="#733E39" />
<rect x="19" y="18" width="1" height="3" fill="#B86F50" />
<rect x="44" y="18" width="6" height="1" fill="#181425" />
<rect x="50" y="18" width="2" height="3" fill="#B86F50" />
<rect x="82" y="18" width="1" height="1" fill="#181425" />
<rect x="83" y="18" width="1" height="3" fill="#B86F50" />
<rect x="86" y="18" width="1" height="1" fill="#181425" />
<rect x="91" y="18" width="2" height="1" fill="#181425" />
<rect x="107" y="18" width="1" height="1" fill="#733E39" />
<rect x="114" y="18" width="1" height="1" fill="#181425" />
<rect x="115" y="18" width="1" height="3" fill="#B86F50" />
<rect x="122" y="18" width="2" height="2" fill="#E8B796" />
<rect x="124" y="18" width="1" height="2" fill="#181425" />
<rect x="139" y="18" width="1" height="1" fill="#733E39" />
<rect x="147" y="18" width="1" height="3" fill="#B86F50" />
<rect x="154" y="18" width="2" height="1" fill="#E8B796" />
<rect x="179" y="18" width="1" height="2" fill="#B86F50" />
<rect x="12" y="19" width="1" height="1" fill="#3E2731" />
<rect x="13" y="19" width="2" height="1" fill="#733E39" />
<rect x="15" y="19" width="3" height="1" fill="#181425" />
<rect x="18" y="19" width="1" height="2" fill="#B86F50" />
<rect x="49" y="19" width="1" height="2" fill="#181425" />
<rect x="81" y="19" width="1" height="2" fill="#181425" />
<rect x="82" y="19" width="1" height="1" fill="#733E39" />
<rect x="84" y="19" width="1" height="1" fill="#B86F50" />
<rect x="85" y="19" width="1" height="1" fill="#181425" />
<rect x="113" y="19" width="1" height="2" fill="#181425" />
<rect x="114" y="19" width="1" height="1" fill="#733E39" />
<rect x="116" y="19" width="1" height="1" fill="#B86F50" />
<rect x="146" y="19" width="1" height="1" fill="#733E39" />
<rect x="148" y="19" width="1" height="1" fill="#B86F50" />
<rect x="155" y="19" width="1" height="1" fill="#E8B796" />
<rect x="180" y="19" width="1" height="1" fill="#B86F50" />
<rect x="17" y="20" width="1" height="1" fill="#181425" />
<rect x="82" y="20" width="1" height="1" fill="#B86F50" />
<rect x="84" y="20" width="1" height="1" fill="#181425" />
<rect x="114" y="20" width="1" height="1" fill="#B86F50" />
<rect x="146" y="20" width="1" height="1" fill="#B86F50" />
</svg>