<?xml version="1.0" encoding="UTF-8" ?>
<svg version="1.1" width="192" height="32" xmlns="http://www.w3.org/2000/svg" shape-rendering="crispEdges">
<rect x="47" y="3" width="4" height="1" fill="#181425" />
<rect x="81" y="3" width="2" height="1" fill="#181425" />
<rect x="143" y="3" width="4" height="1" fill="#181425" />
<rect x="177" y="3" width="2" height="1" fill="#181425" />
<rect x="15" y="4" width="4" height="1" fill="#181425" />
<rect x="46" y="4" width="1" height="1" fill="#181425" />
<rect x="47" y="4" width="2" height="2" fill="#B55088" />
<rect x="49" y="4" width="1" height="1" fill="#68386C" />
<rect x="50" y="4" width="1" height="1" fill="#181425" />
<rect x="79" y="4" width="2" height="1" fill="#181425" />
<rect x="81" y="4" width="1" height="1" fill="#68386C" />
<rect x="82" y="4" width="1" height="1" fill="#181425" />
<rect x="111" y="4" width="4" height="1" fill="#181425" />
<rect x="142" y="4" width="1" height="1" fill="#181425" />
<rect x="143" y="4" width="2" height="2" fill="#B55088" />
<rect x="145" y="4" width="1" height="1" fill="#68386C" />
<rect x="146" y="4" width="1" height="1" fill="#181425" />
<rect x="175" y="4" width="2" height="1" fill="#181425" />
<rect x="177" y="4" width="1" height="1" fill="#68386C" />
<rect x="178" y="4" width="1" height="1" fill="#181425" />
<rect x="14" y="5" width="1" height="1" fill="#181425" />
<rect x="15" y="5" width="2" height="2" fill="#B55088" />
<rect x="17" y="5" width="1" height="1" fill="#68386C" />
<rect x="18" y="5" width="1" height="1" fill="#181425" />
<rect x="44" y="5" width="2" height="1" fill="#181425" />
<rect x="46" y="5" width="1" height="1" fill="#68386C" />
<rect x="49" y="5" width="1" height="2" fill="#181425" />
<rect x="78" y="5" width="1" height="1" fill="#181425" />
<rect x="79" y="5" width="2" height="2" fill="#B55088" />
<rect x="81" y="5" width="1" height="3" fill="#181425" />
<rect x="110" y="5" width="1" height="1" fill="#181425" />
<rect x="111" y="5" width="2" height="2" fill="#B55088" />
<rect x="113" y="5" width="1" height="1" fill="#68386C" />
<rect x="114" y="5" width="1" height="1" fill="#181425" />
<rect x="140" y="5" width="2" height="1" fill="#181425" />
<rect x="142" y="5" width="1" height="1" fill="#68386C" />
<rect x="145" y="5" width="1" height="2" fill="#181425" />
<rect x="174" y="5" width="1" height="1" fill="#181425" />
<rect x="175" y="5" width="2" height="2" fill="#B55088" />
<rect x="177" y="5" width="1" height="3" fill="#181425" />
<rect x="12" y="6" width="2" height="1" fill="#181425" />
<rect x="14" y="6" width="1" height="1" fill="#68386C" />
<rect x="17" y="6" width="1" height="2" fill="#181425" />
<rect x="43" y="6" width="1" height="2" fill="#181425" />
<rect x="44" y="6" width="3" height="1" fill="#F6757A" />
<rect x="47" y="6" width="1" height="1" fill="#B55088" />
<rect x="48" y="6" width="1" height="1" fill="#68386C" />
<rect x="50" y="6" width="2" height="1" fill="#181425" />
<rect x="76" y="6" width="2" height="1" fill="#181425" />
<rect x="78" y="6" width="1" height="1" fill="#68386C" />
<rect x="108" y="6" width="2" height="1" fill="#181425" />
<rect x="110" y="6" width="1" height="1" fill="#68386C" />
<rect x="113" y="6" width="1" height="2" fill="#181425" />
<rect x="139" y="6" width="1" height="2" fill="#181425" />
<rect x="140" y="6" width="3" height="1" fill="#F6757A" />
<rect x="143" y="6" width="1" height="1" fill="#B55088" />
<rect x="144" y="6" width="1" height="1" fill="#68386C" />
<rect x="146" y="6" width="2" height="1" fill="#181425" />
<rect x="172" y="6" width="2" height="1" fill="#181425" />
<rect x="174" y="6" width="1" height="1" fill="#68386C" />
<rect x="11" y="7" width="1" height="2" fill="#181425" />
<rect x="12" y="7" width="3" height="1" fill="#F6757A" />
<rect x="15" y="7" width="1" height="1" fill="#B55088" />
<rect x="16" y="7" width="1" height="1" fill="#68386C" />
<rect x="18" y="7" width="2" height="1" fill="#181425" />
<rect x="39" y="7" width="3" height="1" fill="#181425" />
<rect x="44" y="7" width="2" height="1" fill="#181425" />
<rect x="46" y="7" width="1" height="1" fill="#68386C" />
<rect x="47" y="7" width="3" height="1" fill="#F6757A" />
<rect x="50" y="7" width="1" height="1" fill="#B55088" />
<rect x="51" y="7" width="1" height="1" fill="#181425" />
<rect x="75" y="7" width="1" height="2" fill="#181425" />
<rect x="76" y="7" width="3" height="1" fill="#F6757A" />
<rect x="79" y="7" width="1" height="1" fill="#B55088" />
<rect x="80" y="7" width="1" height="1" fill="#68386C" />
<rect x="82" y="7" width="2" height="1" fill="#181425" />
<rect x="107" y="7" width="1" height="2" fill="#181425" />
<rect x="108" y="7" width="3" height="1" fill="#F6757A" />
<rect x="111" y="7" width="1" height="1" fill="#B55088" />
<rect x="112" y="7" width="1" height="1" fill="#68386C" />
<rect x="114" y="7" width="2" height="1" fill="#181425" />
<rect x="137" y="7" width="2" height="1" fill="#181425" />
<rect x="140" y="7" width="2" height="2" fill="#181425" />
<rect x="142" y="7" width="1" height="1" fill="#68386C" />
<rect x="143" y="7" width="3" height="1" fill="#F6757A" />
<rect x="146" y="7" width="1" height="1" fill="#B55088" />
<rect x="147" y="7" width="1" height="1" fill="#181425" />
<rect x="171" y="7" width="1" height="2" fill="#181425" />
<rect x="172" y="7" width="3" height="1" fill="#F6757A" />
<rect x="175" y="7" width="1" height="1" fill="#B55088" />
<rect x="176" y="7" width="1" height="1" fill="#68386C" />
<rect x="178" y="7" width="2" height="1" fill="#181425" />
<rect x="12" y="8" width="2" height="1" fill="#181425" />
<rect x="14" y="8" width="1" height="1" fill="#68386C" />
<rect x="15" y="8" width="3" height="1" fill="#F6757A" />
<rect x="18" y="8" width="1" height="1" fill="#B55088" />
<rect x="19" y="8" width="1" height="1" fill="#181425" />
<rect x="39" y="8" width="1" height="1" fill="#181425" />
<rect x="40" y="8" width="2" height="1" fill="#733E39" />
<rect x="42" y="8" width="1" height="2" fill="#181425" />
<rect x="45" y="8" width="1" height="2" fill="#181425" />
<rect x="46" y="8" width="2" height="2" fill="#E8B796" />
<rect x="48" y="8" width="3" height="1" fill="#181425" />
<rect x="73" y="8" width="2" height="1" fill="#181425" />
<rect x="76" y="8" width="2" height="2" fill="#181425" />
<rect x="78" y="8" width="1" height="1" fill="#68386C" />
<rect x="79" y="8" width="3" height="1" fill="#F6757A" />
<rect x="82" y="8" width="1" height="1" fill="#B55088" />
<rect x="83" y="8" width="1" height="1" fill="#181425" />
<rect x="105" y="8" width="2" height="1" fill="#181425" />
<rect x="108" y="8" width="2" height="2" fill="#181425" />
<rect x="110" y="8" width="1" height="1" fill="#68386C" />
<rect x="111" y="8" width="3" height="1" fill="#F6757A" />
<rect x="114" y="8" width="1" height="1" fill="#B55088" />
<rect x="115" y="8" width="1" height="1" fill="#181425" />
<rect x="137" y="8" width="1" height="2" fill="#181425" />
<rect x="138" y="8" width="2" height="2" fill="#733E39" />
<rect x="142" y="8" width="2" height="2" fill="#E8B796" />
<rect x="144" y="8" width="3" height="1" fill="#181425" />
<rect x="167" y="8" width="3" height="1" fill="#181425" />
<rect x="172" y="8" width="2" height="1" fill="#181425" />
<rect x="174" y="8" width="1" height="1" fill="#68386C" />
<rect x="175" y="8" width="3" height="1" fill="#F6757A" />
<rect x="178" y="8" width="1" height="1" fill="#B55088" />
<rect x="179" y="8" width="1" height="1" fill="#181425" />
<rect x="13" y="9" width="1" height="2" fill="#181425" />
<rect x="14" y="9" width="2" height="2" fill="#E8B796" />
<rect x="16" y="9" width="3" height="1" fill="#181425" />
<rect x="40" y="9" width="1" height="2" fill="#181425" />
<rect x="41" y="9" width="1" height="2" fill="#733E39" />
<rect x="48" y="9" width="1" height="1" fill="#E8B796" />
<rect x="49" y="9" width="2" height="1" fill="#181425" />
<rect x="73" y="9" width="1" height="2" fill="#181425" />
<rect x="74" y="9" width="2" height="2" fill="#733E39" />
<rect x="78" y="9" width="2" height="2" fill="#E8B796" />
<rect x="80" y="9" width="3" height="1" fill="#181425" />
<rect x="105" y="9" width="1" height="2" fill="#181425" />
<rect x="106" y="9" width="2" height="2" fill="#733E39" />
<rect x="110" y="9" width="2" height="2" fill="#E8B796" />
<rect x="112" y="9" width="3" height="1" fill="#181425" />
<rect x="140" y="9" width="1" height="2" fill="#181425" />
<rect x="141" y="9" width="1" height="1" fill="#68386C" />
<rect x="144" y="9" width="1" height="1" fill="#E8B796" />
<rect x="145" y="9" width="2" height="1" fill="#181425" />
<rect x="167" y="9" width="1" height="1" fill="#181425" />
<rect x="168" y="9" width="2" height="1" fill="#733E39" />
<rect x="170" y="9" width="1" height="2" fill="#181425" />
<rect x="173" y="9" width="1" height="2" fill="#181425" />
<rect x="174" y="9" width="2" height="2" fill="#E8B796" />
<rect x="176" y="9" width="3" height="1" fill="#181425" />
<rect x="7" y="10" width="3" height="1" fill="#181425" />
<rect x="16" y="10" width="1" height="1" fill="#E8B796" />
<rect x="17" y="10" width="2" height="1" fill="#181425" />
<rect x="42" y="10" width="1" height="3" fill="#733E39" />
<rect x="43" y="10" width="2" height="2" fill="#181425" />
<rect x="45" y="10" width="3" height="3" fill="#B55088" />
<rect x="48" y="10" width="2" height="2" fill="#F6757A" />
<rect x="50" y="10" width="1" height="4" fill="#181425" />
<rect x="76" y="10" width="1" height="2" fill="#181425" />
<rect x="77" y="10" width="1" height="1" fill="#68386C" />
<rect x="80" y="10" width="1" height="1" fill="#E8B796" />
<rect x="81" y="10" width="2" height="1" fill="#181425" />
<rect x="108" y="10" width="1" height="2" fill="#181425" />
<rect x="109" y="10" width="1" height="1" fill="#68386C" />
<rect x="112" y="10" width="1" height="1" fill="#E8B796" />
<rect x="113" y="10" width="2" height="1" fill="#181425" />
<rect x="138" y="10" width="1" height="6" fill="#181425" />
<rect x="139" y="10" width="1" height="3" fill="#733E39" />
<rect x="141" y="10" width="3" height="3" fill="#B55088" />
<rect x="144" y="10" width="2" height="2" fill="#F6757A" />
<rect x="146" y="10" width="1" height="1" fill="#181425" />
<rect x="168" y="10" width="1" height="2" fill="#181425" />
<rect x="169" y="10" width="1" height="2" fill="#733E39" />
<rect x="176" y="10" width="1" height="1" fill="#E8B796" />
<rect x="177" y="10" width="2" height="1" fill="#181425" />
<rect x="7" y="11" width="1" height="2" fill="#181425" />
<rect x="8" y="11" width="2" height="2" fill="#733E39" />
<rect x="10" y="11" width="1" height="1" fill="#181425" />
<rect x="12" y="11" width="1" height="3" fill="#181425" />
<rect x="13" y="11" width="3" height="3" fill="#B55088" />
<rect x="16" y="11" width="2" height="2" fill="#F6757A" />
<rect x="18" y="11" width="1" height="4" fill="#181425" />
<rect x="41" y="11" width="1" height="2" fill="#181425" />
<rect x="74" y="11" width="1" height="9" fill="#181425" />
<rect x="75" y="11" width="1" height="3" fill="#733E39" />
<rect x="77" y="11" width="3" height="3" fill="#B55088" />
<rect x="80" y="11" width="2" height="2" fill="#F6757A" />
<rect x="82" y="11" width="1" height="1" fill="#181425" />
<rect x="106" y="11" width="1" height="2" fill="#181425" />
<rect x="107" y="11" width="1" height="3" fill="#733E39" />
<rect x="109" y="11" width="4" height="3" fill="#B55088" />
<rect x="113" y="11" width="2" height="2" fill="#F6757A" />
<rect x="115" y="11" width="1" height="1" fill="#181425" />
<rect x="140" y="11" width="1" height="1" fill="#68386C" />
<rect x="146" y="11" width="1" height="2" fill="#F6757A" />
<rect x="147" y="11" width="1" height="2" fill="#181425" />
<rect x="170" y="11" width="1" height="3" fill="#733E39" />
<rect x="171" y="11" width="2" height="2" fill="#181425" />
<rect x="173" y="11" width="4" height="3" fill="#B55088" />
<rect x="177" y="11" width="1" height="2" fill="#F6757A" />
<rect x="178" y="11" width="1" height="6" fill="#181425" />
<rect x="10" y="12" width="1" height="2" fill="#733E39" />
<rect x="11" y="12" width="1" height="1" fill="#181425" />
<rect x="43" y="12" width="1" height="3" fill="#733E39" />
<rect x="44" y="12" width="1" height="1" fill="#68386C" />
<rect x="48" y="12" width="2" height="1" fill="#B55088" />
<rect x="76" y="12" width="1" height="1" fill="#68386C" />
<rect x="82" y="12" width="1" height="2" fill="#B55088" />
<rect x="83" y="12" width="1" height="2" fill="#181425" />
<rect x="108" y="12" width="1" height="3" fill="#68386C" />
<rect x="115" y="12" width="1" height="3" fill="#B55088" />
<rect x="116" y="12" width="1" height="1" fill="#181425" />
<rect x="140" y="12" width="1" height="1" fill="#733E39" />
<rect x="144" y="12" width="1" height="6" fill="#B55088" />
<rect x="145" y="12" width="1" height="1" fill="#F6757A" />
<rect x="169" y="12" width="1" height="2" fill="#181425" />
<rect x="8" y="13" width="2" height="1" fill="#181425" />
<rect x="11" y="13" width="1" height="2" fill="#733E39" />
<rect x="16" y="13" width="2" height="1" fill="#B55088" />
<rect x="42" y="13" width="1" height="2" fill="#181425" />
<rect x="44" y="13" width="1" height="2" fill="#C28569" />
<rect x="45" y="13" width="3" height="1" fill="#68386C" />
<rect x="48" y="13" width="1" height="5" fill="#B55088" />
<rect x="49" y="13" width="1" height="1" fill="#68386C" />
<rect x="76" y="13" width="1" height="1" fill="#733E39" />
<rect x="80" y="13" width="2" height="1" fill="#B55088" />
<rect x="105" y="13" width="1" height="7" fill="#181425" />
<rect x="106" y="13" width="1" height="1" fill="#733E39" />
<rect x="113" y="13" width="2" height="1" fill="#B55088" />
<rect x="116" y="13" width="1" height="1" fill="#B55088" />
<rect x="117" y="13" width="1" height="1" fill="#181425" />
<rect x="139" y="13" width="2" height="2" fill="#C28569" />
<rect x="141" y="13" width="3" height="1" fill="#68386C" />
<rect x="145" y="13" width="1" height="1" fill="#68386C" />
<rect x="146" y="13" width="2" height="2" fill="#E8B796" />
<rect x="148" y="13" width="1" height="3" fill="#181425" />
<rect x="171" y="13" width="1" height="3" fill="#733E39" />
<rect x="172" y="13" width="1" height="1" fill="#68386C" />
<rect x="177" y="13" width="1" height="1" fill="#B55088" />
<rect x="10" y="14" width="1" height="1" fill="#181425" />
<rect x="12" y="14" width="1" height="2" fill="#733E39" />
<rect x="13" y="14" width="3" height="1" fill="#68386C" />
<rect x="16" y="14" width="1" height="5" fill="#B55088" />
<rect x="17" y="14" width="1" height="1" fill="#68386C" />
<rect x="45" y="14" width="1" height="3" fill="#B55088" />
<rect x="46" y="14" width="1" height="1" fill="#68386C" />
<rect x="47" y="14" width="1" height="4" fill="#B55088" />
<rect x="49" y="14" width="1" height="3" fill="#181425" />
<rect x="75" y="14" width="2" height="2" fill="#C28569" />
<rect x="77" y="14" width="3" height="1" fill="#68386C" />
<rect x="80" y="14" width="1" height="5" fill="#B55088" />
<rect x="81" y="14" width="1" height="1" fill="#68386C" />
<rect x="82" y="14" width="2" height="2" fill="#E8B796" />
<rect x="84" y="14" width="1" height="3" fill="#181425" />
<rect x="106" y="14" width="2" height="2" fill="#C28569" />
<rect x="109" y="14" width="3" height="1" fill="#68386C" />
<rect x="112" y="14" width="1" height="5" fill="#B55088" />
<rect x="113" y="14" width="1" height="1" fill="#68386C" />
<rect x="114" y="14" width="1" height="1" fill="#181425" />
<rect x="116" y="14" width="2" height="2" fill="#E8B796" />
<rect x="118" y="14" width="1" height="3" fill="#181425" />
<rect x="141" y="14" width="1" height="3" fill="#68386C" />
<rect x="142" y="14" width="1" height="4" fill="#B55088" />
<rect x="143" y="14" width="1" height="1" fill="#68386C" />
<rect x="145" y="14" width="1" height="4" fill="#B55088" />
<rect x="170" y="14" width="1" height="2" fill="#181425" />
<rect x="172" y="14" width="1" height="2" fill="#C28569" />
<rect x="173" y="14" width="3" height="1" fill="#68386C" />
<rect x="176" y="14" width="1" height="5" fill="#B55088" />
<rect x="177" y="14" width="1" height="1" fill="#68386C" />
<rect x="11" y="15" width="1" height="1" fill="#181425" />
<rect x="13" y="15" width="1" height="3" fill="#68386C" />
<rect x="14" y="15" width="1" height="4" fill="#B55088" />
<rect x="15" y="15" width="1" height="1" fill="#68386C" />
<rect x="17" y="15" width="2" height="3" fill="#B55088" />
<rect x="19" y="15" width="1" height="2" fill="#181425" />
<rect x="43" y="15" width="2" height="1" fill="#181425" />
<rect x="46" y="15" width="1" height="1" fill="#B55088" />
<rect x="77" y="15" width="1" height="3" fill="#68386C" />
<rect x="78" y="15" width="1" height="4" fill="#B55088" />
<rect x="79" y="15" width="1" height="1" fill="#68386C" />
<rect x="81" y="15" width="1" height="4" fill="#B55088" />
<rect x="108" y="15" width="1" height="2" fill="#181425" />
<rect x="109" y="15" width="1" height="3" fill="#68386C" />
<rect x="110" y="15" width="1" height="4" fill="#B55088" />
<rect x="111" y="15" width="1" height="1" fill="#68386C" />
<rect x="113" y="15" width="2" height="3" fill="#B55088" />
<rect x="115" y="15" width="1" height="2" fill="#181425" />
<rect x="139" y="15" width="2" height="1" fill="#733E39" />
<rect x="143" y="15" width="1" height="1" fill="#B55088" />
<rect x="146" y="15" width="1" height="2" fill="#B55088" />
<rect x="147" y="15" width="1" height="2" fill="#181425" />
<rect x="173" y="15" width="1" height="3" fill="#68386C" />
<rect x="174" y="15" width="1" height="4" fill="#B55088" />
<rect x="175" y="15" width="1" height="1" fill="#68386C" />
<rect x="177" y="15" width="1" height="4" fill="#B55088" />
<rect x="12" y="16" width="1" height="1" fill="#181425" />
<rect x="15" y="16" width="1" height="1" fill="#B55088" />
<rect x="44" y="16" width="1" height="1" fill="#181425" />
<rect x="46" y="16" width="1" height="2" fill="#68386C" />
<rect x="75" y="16" width="2" height="1" fill="#733E39" />
<rect x="79" y="16" width="1" height="1" fill="#B55088" />
<rect x="82" y="16" width="1" height="2" fill="#B55088" />
<rect x="83" y="16" width="1" height="2" fill="#181425" />
<rect x="106" y="16" width="1" height="4" fill="#733E39" />
<rect x="107" y="16" width="1" height="3" fill="#181425" />
<rect x="111" y="16" width="1" height="1" fill="#B55088" />
<rect x="116" y="16" width="2" height="1" fill="#181425" />
<rect x="140" y="16" width="1" height="4" fill="#733E39" />
<rect x="143" y="16" width="1" height="2" fill="#68386C" />
<rect x="171" y="16" width="1" height="1" fill="#181425" />
<rect x="172" y="16" width="1" height="3" fill="#733E39" />
<rect x="175" y="16" width="1" height="1" fill="#B55088" />
<rect x="11" y="17" width="1" height="2" fill="#181425" />
<rect x="12" y="17" width="1" height="1" fill="#733E39" />
<rect x="15" y="17" width="1" height="2" fill="#68386C" />
<rect x="19" y="17" width="1" height="2" fill="#B86F50" />
<rect x="20" y="17" width="1" height="1" fill="#181425" />
<rect x="45" y="17" width="1" height="1" fill="#181425" />
<rect x="49" y="17" width="1" height="1" fill="#68386C" />
<rect x="50" y="17" width="1" height="3" fill="#181425" />
<rect x="75" y="17" width="1" height="2" fill="#B86F50" />
<rect x="76" y="17" width="1" height="4" fill="#733E39" />
<rect x="79" y="17" width="1" height="2" fill="#68386C" />
<rect x="108" y="17" width="1" height="1" fill="#B86F50" />
<rect x="111" y="17" width="1" height="2" fill="#68386C" />
<rect x="115" y="17" width="1" height="2" fill="#733E39" />
<rect x="116" y="17" width="1" height="1" fill="#181425" />
<rect x="141" y="17" width="1" height="1" fill="#3E2731" />
<rect x="146" y="17" width="1" height="3" fill="#181425" />
<rect x="170" y="17" width="1" height="3" fill="#181425" />
<rect x="171" y="17" width="1" height="1" fill="#3E2731" />
<rect x="175" y="17" width="1" height="2" fill="#68386C" />
<rect x="178" y="17" width="1" height="1" fill="#B55088" />
<rect x="179" y="17" width="1" height="1" fill="#181425" />
<rect x="12" y="18" width="2" height="1" fill="#3E2731" />
<rect x="17" y="18" width="1" height="1" fill="#B55088" />
<rect x="18" y="18" width="1" height="1" fill="#B86F50" />
<rect x="20" y="18" width="1" height="2" fill="#B86F50" />
<rect x="21" y="18" width="1" height="3" fill="#181425" />
<rect x="46" y="18" width="1" height="2" fill="#181425" />
<rect x="47" y="18" width="1" height="1" fill="#B86F50" />
<rect x="48" y="18" width="1" height="2" fill="#733E39" />
<rect x="49" y="18" width="1" height="1" fill="#B86F50" />
<rect x="77" y="18" width="1" height="1" fill="#3E2731" />
<rect x="82" y="18" width="2" height="2" fill="#733E39" />
<rect x="84" y="18" width="1" height="3" fill="#181425" />
<rect x="108" y="18" width="1" height="1" fill="#733E39" />
<rect x="109" y="18" width="1" height="1" fill="#3E2731" />
<rect x="113" y="18" width="1" height="1" fill="#B55088" />
<rect x="114" y="18" width="1" height="1" fill="#733E39" />
<rect x="116" y="18" width="1" height="2" fill="#733E39" />
<rect x="117" y="18" width="1" height="3" fill="#181425" />
<rect x="142" y="18" width="1" height="2" fill="#181425" />
<rect x="143" y="18" width="1" height="1" fill="#733E39" />
<rect x="144" y="18" width="1" height="2" fill="#B86F50" />
<rect x="145" y="18" width="1" height="1" fill="#733E39" />
<rect x="171" y="18" width="1" height="1" fill="#733E39" />
<rect x="173" y="18" width="1" height="1" fill="#3E2731" />
<rect x="178" y="18" width="1" height="1" fill="#733E39" />
<rect x="179" y="18" width="1" height="2" fill="#B86F50" />
<rect x="180" y="18" width="1" height="3" fill="#181425" />
<rect x="11" y="19" width="3" height="1" fill="#733E39" />
<rect x="14" y="19" width="5" height="1" fill="#181425" />
<rect x="19" y="19" width="1" height="1" fill="#733E39" />
<rect x="47" y="19" width="1" height="1" fill="#733E39" />
<rect x="49" y="19" width="1" height="1" fill="#181425" />
<rect x="75" y="19" width="1" height="2" fill="#181425" />
<rect x="77" y="19" width="5" height="1" fill="#181425" />
<rect x="107" y="19" width="3" height="1" fill="#B86F50" />
<rect x="110" y="19" width="5" height="1" fill="#181425" />
<rect x="115" y="19" width="1" height="1" fill="#3E2731" />
<rect x="139" y="19" width="1" height="1" fill="#181425" />
<rect x="141" y="19" width="1" height="1" fill="#181425" />
<rect x="143" y="19" width="1" height="1" fill="#B86F50" />
<rect x="145" y="19" width="1" height="1" fill="#181425" />
<rect x="171" y="19" width="7" height="1" fill="#181425" />
<rect x="178" y="19" width="1" height="1" fill="#B86F50" />
<rect x="19" y="20" width="2" height="1" fill="#181425" />
<rect x="77" y="20" width="1" height="1" fill="#181425" />
<rect x="82" y="20" width="2" height="1" fill="#181425" />
<rect x="115" y="20" width="2" height="1" fill="#181425" />
<rect x="178" y="20" width="2" height="1" fill="#181425" />
</svg>