<?xml version="1.0" encoding="UTF-8" ?>
<svg version="1.1" width="256" height="32" xmlns="http://www.w3.org/2000/svg" shape-rendering="crispEdges">
<rect x="43" y="5" width="2" height="1" fill="#181425" />
<rect x="42" y="6" width="1" height="5" fill="#181425" />
<rect x="43" y="6" width="2" height="2" fill="#E43B44" />
<rect x="45" y="6" width="1" height="2" fill="#181425" />
<rect x="48" y="6" width="2" height="1" fill="#181425" />
<rect x="8" y="7" width="2" height="1" fill="#181425" />
<rect x="15" y="7" width="2" height="1" fill="#181425" />
<rect x="47" y="7" width="1" height="1" fill="#181425" />
<rect x="48" y="7" width="1" height="1" fill="#265C42" />
<rect x="49" y="7" width="4" height="1" fill="#181425" />
<rect x="7" y="8" width="1" height="2" fill="#181425" />
<rect x="8" y="8" width="2" height="2" fill="#E43B44" />
<rect x="10" y="8" width="1" height="6" fill="#181425" />
<rect x="14" y="8" width="1" height="1" fill="#181425" />
<rect x="15" y="8" width="1" height="1" fill="#265C42" />
<rect x="16" y="8" width="4" height="1" fill="#181425" />
<rect x="43" y="8" width="1" height="3" fill="#733E39" />
<rect x="44" y="8" width="1" height="4" fill="#181425" />
<rect x="46" y="8" width="1" height="2" fill="#181425" />
<rect x="47" y="8" width="3" height="2" fill="#FFFFFF" />
<rect x="50" y="8" width="1" height="1" fill="#181425" />
<rect x="51" y="8" width="1" height="2" fill="#3E8948" />
<rect x="52" y="8" width="1" height="2" fill="#181425" />
<rect x="75" y="8" width="2" height="1" fill="#181425" />
<rect x="13" y="9" width="1" height="2" fill="#181425" />
<rect x="14" y="9" width="3" height="2" fill="#FFFFFF" />
<rect x="17" y="9" width="1" height="1" fill="#181425" />
<rect x="18" y="9" width="1" height="2" fill="#3E8948" />
<rect x="19" y="9" width="1" height="2" fill="#181425" />
<rect x="50" y="9" width="1" height="2" fill="#C0CBDC" />
<rect x="74" y="9" width="1" height="4" fill="#181425" />
<rect x="75" y="9" width="2" height="2" fill="#E43B44" />
<rect x="77" y="9" width="1" height="2" fill="#181425" />
<rect x="89" y="9" width="2" height="1" fill="#181425" />
<rect x="107" y="9" width="2" height="1" fill="#181425" />
<rect x="8" y="10" width="1" height="10" fill="#181425" />
<rect x="9" y="10" width="1" height="4" fill="#733E39" />
<rect x="17" y="10" width="1" height="2" fill="#C0CBDC" />
<rect x="45" y="10" width="1" height="2" fill="#181425" />
<rect x="46" y="10" width="3" height="1" fill="#FFFFFF" />
<rect x="49" y="10" width="1" height="1" fill="#181425" />
<rect x="51" y="10" width="1" height="2" fill="#181425" />
<rect x="88" y="10" width="1" height="1" fill="#181425" />
<rect x="89" y="10" width="1" height="1" fill="#3E8948" />
<rect x="90" y="10" width="1" height="1" fill="#181425" />
<rect x="106" y="10" width="1" height="4" fill="#181425" />
<rect x="107" y="10" width="2" height="2" fill="#E43B44" />
<rect x="121" y="10" width="2" height="1" fill="#181425" />
<rect x="139" y="10" width="2" height="2" fill="#E43B44" />
<rect x="12" y="11" width="1" height="2" fill="#181425" />
<rect x="13" y="11" width="3" height="1" fill="#FFFFFF" />
<rect x="16" y="11" width="1" height="1" fill="#181425" />
<rect x="18" y="11" width="1" height="2" fill="#181425" />
<rect x="41" y="11" width="1" height="4" fill="#181425" />
<rect x="42" y="11" width="1" height="1" fill="#733E39" />
<rect x="43" y="11" width="1" height="1" fill="#181425" />
<rect x="46" y="11" width="2" height="1" fill="#FFFFFF" />
<rect x="48" y="11" width="2" height="1" fill="#C0CBDC" />
<rect x="50" y="11" width="1" height="1" fill="#181425" />
<rect x="52" y="11" width="4" height="1" fill="#181425" />
<rect x="75" y="11" width="1" height="3" fill="#733E39" />
<rect x="76" y="11" width="1" height="3" fill="#181425" />
<rect x="81" y="11" width="3" height="1" fill="#181425" />
<rect x="87" y="11" width="1" height="1" fill="#181425" />
<rect x="88" y="11" width="3" height="2" fill="#FFFFFF" />
<rect x="91" y="11" width="1" height="1" fill="#181425" />
<rect x="120" y="11" width="1" height="1" fill="#181425" />
<rect x="121" y="11" width="1" height="1" fill="#3E8948" />
<rect x="122" y="11" width="1" height="1" fill="#181425" />
<rect x="13" y="12" width="2" height="1" fill="#FFFFFF" />
<rect x="15" y="12" width="2" height="1" fill="#C0CBDC" />
<rect x="17" y="12" width="1" height="1" fill="#181425" />
<rect x="42" y="12" width="2" height="2" fill="#3E8948" />
<rect x="44" y="12" width="2" height="2" fill="#265C42" />
<rect x="46" y="12" width="3" height="2" fill="#63C74D" />
<rect x="49" y="12" width="1" height="1" fill="#3E8948" />
<rect x="50" y="12" width="2" height="2" fill="#63C74D" />
<rect x="52" y="12" width="1" height="2" fill="#3E8948" />
<rect x="53" y="12" width="2" height="2" fill="#63C74D" />
<rect x="55" y="12" width="1" height="2" fill="#181425" />
<rect x="81" y="12" width="1" height="3" fill="#181425" />
<rect x="82" y="12" width="2" height="2" fill="#3E8948" />
<rect x="84" y="12" width="3" height="1" fill="#181425" />
<rect x="87" y="12" width="1" height="2" fill="#FFFFFF" />
<rect x="91" y="12" width="1" height="2" fill="#C0CBDC" />
<rect x="92" y="12" width="1" height="2" fill="#181425" />
<rect x="107" y="12" width="1" height="3" fill="#733E39" />
<rect x="113" y="12" width="3" height="1" fill="#181425" />
<rect x="119" y="12" width="1" height="1" fill="#181425" />
<rect x="120" y="12" width="3" height="2" fill="#FFFFFF" />
<rect x="123" y="12" width="1" height="1" fill="#181425" />
<rect x="139" y="12" width="1" height="3" fill="#733E39" />
<rect x="152" y="12" width="3" height="2" fill="#FFFFFF" />
<rect x="11" y="13" width="1" height="1" fill="#181425" />
<rect x="12" y="13" width="1" height="3" fill="#265C42" />
<rect x="13" y="13" width="3" height="2" fill="#63C74D" />
<rect x="16" y="13" width="1" height="1" fill="#3E8948" />
<rect x="17" y="13" width="2" height="2" fill="#63C74D" />
<rect x="19" y="13" width="1" height="1" fill="#181425" />
<rect x="49" y="13" width="1" height="2" fill="#63C74D" />
<rect x="73" y="13" width="1" height="4" fill="#181425" />
<rect x="74" y="13" width="1" height="5" fill="#733E39" />
<rect x="84" y="13" width="2" height="1" fill="#265C42" />
<rect x="86" y="13" width="1" height="3" fill="#63C74D" />
<rect x="88" y="13" width="2" height="1" fill="#FFFFFF" />
<rect x="90" y="13" width="1" height="1" fill="#181425" />
<rect x="113" y="13" width="1" height="2" fill="#181425" />
<rect x="114" y="13" width="2" height="2" fill="#3E8948" />
<rect x="116" y="13" width="3" height="1" fill="#181425" />
<rect x="119" y="13" width="1" height="2" fill="#FFFFFF" />
<rect x="123" y="13" width="1" height="2" fill="#C0CBDC" />
<rect x="124" y="13" width="1" height="1" fill="#181425" />
<rect x="151" y="13" width="1" height="2" fill="#FFFFFF" />
<rect x="155" y="13" width="1" height="2" fill="#C0CBDC" />
<rect x="183" y="13" width="1" height="1" fill="#3E8948" />
<rect x="184" y="13" width="3" height="1" fill="#FFFFFF" />
<rect x="187" y="13" width="1" height="2" fill="#C0CBDC" />
<rect x="9" y="14" width="2" height="2" fill="#3E8948" />
<rect x="11" y="14" width="1" height="2" fill="#265C42" />
<rect x="16" y="14" width="1" height="2" fill="#63C74D" />
<rect x="19" y="14" width="1" height="1" fill="#3E8948" />
<rect x="20" y="14" width="1" height="1" fill="#181425" />
<rect x="42" y="14" width="1" height="1" fill="#733E39" />
<rect x="43" y="14" width="3" height="1" fill="#181425" />
<rect x="46" y="14" width="1" height="1" fill="#3E8948" />
<rect x="47" y="14" width="2" height="1" fill="#63C74D" />
<rect x="50" y="14" width="1" height="1" fill="#3E8948" />
<rect x="51" y="14" width="4" height="1" fill="#181425" />
<rect x="75" y="14" width="1" height="4" fill="#181425" />
<rect x="78" y="14" width="3" height="1" fill="#181425" />
<rect x="82" y="14" width="2" height="1" fill="#181425" />
<rect x="84" y="14" width="1" height="2" fill="#265C42" />
<rect x="85" y="14" width="1" height="2" fill="#63C74D" />
<rect x="87" y="14" width="1" height="4" fill="#63C74D" />
<rect x="88" y="14" width="1" height="2" fill="#3E8948" />
<rect x="89" y="14" width="2" height="1" fill="#C0CBDC" />
<rect x="91" y="14" width="1" height="1" fill="#181425" />
<rect x="105" y="14" width="1" height="4" fill="#181425" />
<rect x="106" y="14" width="1" height="5" fill="#733E39" />
<rect x="110" y="14" width="3" height="1" fill="#181425" />
<rect x="116" y="14" width="2" height="1" fill="#265C42" />
<rect x="118" y="14" width="1" height="3" fill="#63C74D" />
<rect x="120" y="14" width="2" height="1" fill="#FFFFFF" />
<rect x="122" y="14" width="1" height="1" fill="#181425" />
<rect x="138" y="14" width="1" height="5" fill="#733E39" />
<rect x="146" y="14" width="2" height="1" fill="#3E8948" />
<rect x="148" y="14" width="2" height="1" fill="#265C42" />
<rect x="150" y="14" width="1" height="3" fill="#63C74D" />
<rect x="152" y="14" width="2" height="1" fill="#FFFFFF" />
<rect x="154" y="14" width="1" height="1" fill="#181425" />
<rect x="170" y="14" width="1" height="4" fill="#733E39" />
<rect x="181" y="14" width="1" height="1" fill="#265C42" />
<rect x="182" y="14" width="2" height="3" fill="#63C74D" />
<rect x="184" y="14" width="2" height="1" fill="#FFFFFF" />
<rect x="186" y="14" width="1" height="1" fill="#181425" />
<rect x="213" y="14" width="1" height="1" fill="#265C42" />
<rect x="214" y="14" width="2" height="2" fill="#63C74D" />
<rect x="245" y="14" width="2" height="2" fill="#63C74D" />
<rect x="13" y="15" width="1" height="1" fill="#3E8948" />
<rect x="14" y="15" width="2" height="1" fill="#63C74D" />
<rect x="17" y="15" width="2" height="1" fill="#3E8948" />
<rect x="19" y="15" width="2" height="2" fill="#63C74D" />
<rect x="21" y="15" width="1" height="3" fill="#181425" />
<rect x="40" y="15" width="1" height="4" fill="#181425" />
<rect x="41" y="15" width="1" height="3" fill="#733E39" />
<rect x="42" y="15" width="1" height="3" fill="#181425" />
<rect x="45" y="15" width="1" height="2" fill="#181425" />
<rect x="46" y="15" width="3" height="1" fill="#A22633" />
<rect x="49" y="15" width="2" height="3" fill="#E43B44" />
<rect x="51" y="15" width="1" height="1" fill="#181425" />
<rect x="78" y="15" width="1" height="2" fill="#181425" />
<rect x="79" y="15" width="2" height="2" fill="#3E8948" />
<rect x="81" y="15" width="3" height="2" fill="#A22633" />
<rect x="89" y="15" width="2" height="1" fill="#181425" />
<rect x="110" y="15" width="1" height="1" fill="#181425" />
<rect x="111" y="15" width="2" height="2" fill="#3E8948" />
<rect x="113" y="15" width="3" height="2" fill="#A22633" />
<rect x="116" y="15" width="1" height="1" fill="#265C42" />
<rect x="117" y="15" width="1" height="1" fill="#63C74D" />
<rect x="119" y="15" width="1" height="4" fill="#63C74D" />
<rect x="120" y="15" width="1" height="2" fill="#3E8948" />
<rect x="121" y="15" width="2" height="1" fill="#C0CBDC" />
<rect x="143" y="15" width="2" height="2" fill="#3E8948" />
<rect x="145" y="15" width="3" height="2" fill="#A22633" />
<rect x="148" y="15" width="1" height="1" fill="#265C42" />
<rect x="149" y="15" width="1" height="1" fill="#63C74D" />
<rect x="151" y="15" width="1" height="4" fill="#63C74D" />
<rect x="152" y="15" width="1" height="2" fill="#3E8948" />
<rect x="153" y="15" width="2" height="1" fill="#C0CBDC" />
<rect x="177" y="15" width="3" height="2" fill="#A22633" />
<rect x="180" y="15" width="1" height="1" fill="#265C42" />
<rect x="181" y="15" width="1" height="1" fill="#63C74D" />
<rect x="184" y="15" width="2" height="1" fill="#3E8948" />
<rect x="212" y="15" width="1" height="1" fill="#265C42" />
<rect x="213" y="15" width="1" height="1" fill="#63C74D" />
<rect x="9" y="16" width="1" height="4" fill="#733E39" />
<rect x="10" y="16" width="3" height="1" fill="#181425" />
<rect x="13" y="16" width="3" height="1" fill="#A22633" />
<rect x="16" y="16" width="2" height="2" fill="#E43B44" />
<rect x="18" y="16" width="1" height="1" fill="#181425" />
<rect x="46" y="16" width="2" height="1" fill="#A22633" />
<rect x="48" y="16" width="1" height="1" fill="#3E2731" />
<rect x="51" y="16" width="1" height="2" fill="#E43B44" />
<rect x="52" y="16" width="1" height="5" fill="#181425" />
<rect x="84" y="16" width="1" height="1" fill="#A22633" />
<rect x="85" y="16" width="2" height="1" fill="#3E8948" />
<rect x="88" y="16" width="1" height="2" fill="#63C74D" />
<rect x="89" y="16" width="1" height="1" fill="#181425" />
<rect x="116" y="16" width="1" height="1" fill="#A22633" />
<rect x="117" y="16" width="1" height="1" fill="#3E8948" />
<rect x="121" y="16" width="1" height="2" fill="#181425" />
<rect x="148" y="16" width="1" height="1" fill="#A22633" />
<rect x="149" y="16" width="1" height="1" fill="#3E8948" />
<rect x="180" y="16" width="1" height="1" fill="#A22633" />
<rect x="181" y="16" width="1" height="1" fill="#3E8948" />
<rect x="212" y="16" width="1" height="1" fill="#A22633" />
<rect x="213" y="16" width="1" height="1" fill="#3E8948" />
<rect x="214" y="16" width="1" height="1" fill="#63C74D" />
<rect x="10" y="17" width="1" height="3" fill="#181425" />
<rect x="12" y="17" width="1" height="3" fill="#181425" />
<rect x="13" y="17" width="2" height="1" fill="#A22633" />
<rect x="15" y="17" width="1" height="1" fill="#3E2731" />
<rect x="18" y="17" width="1" height="2" fill="#E43B44" />
<rect x="19" y="17" width="2" height="2" fill="#181425" />
<rect x="44" y="17" width="1" height="3" fill="#181425" />
<rect x="45" y="17" width="3" height="1" fill="#3E8948" />
<rect x="48" y="17" width="1" height="2" fill="#181425" />
<rect x="72" y="17" width="1" height="5" fill="#181425" />
<rect x="73" y="17" width="1" height="4" fill="#733E39" />
<rect x="79" y="17" width="4" height="1" fill="#181425" />
<rect x="83" y="17" width="3" height="2" fill="#E43B44" />
<rect x="86" y="17" width="1" height="1" fill="#3E8948" />
<rect x="89" y="17" width="1" height="1" fill="#3E8948" />
<rect x="90" y="17" width="1" height="1" fill="#181425" />
<rect x="114" y="17" width="1" height="2" fill="#181425" />
<rect x="115" y="17" width="3" height="2" fill="#E43B44" />
<rect x="118" y="17" width="1" height="2" fill="#3E8948" />
<rect x="120" y="17" width="1" height="2" fill="#63C74D" />
<rect x="147" y="17" width="3" height="2" fill="#E43B44" />
<rect x="150" y="17" width="1" height="2" fill="#3E8948" />
<rect x="152" y="17" width="1" height="2" fill="#63C74D" />
<rect x="179" y="17" width="3" height="1" fill="#E43B44" />
<rect x="13" y="18" width="2" height="2" fill="#3E8948" />
<rect x="15" y="18" width="2" height="2" fill="#181425" />
<rect x="17" y="18" width="1" height="1" fill="#E43B44" />
<rect x="41" y="18" width="1" height="1" fill="#181425" />
<rect x="45" y="18" width="2" height="1" fill="#3E8948" />
<rect x="47" y="18" width="1" height="1" fill="#181425" />
<rect x="49" y="18" width="1" height="3" fill="#181425" />
<rect x="50" y="18" width="2" height="3" fill="#3E8948" />
<rect x="74" y="18" width="1" height="3" fill="#181425" />
<rect x="82" y="18" width="1" height="1" fill="#181425" />
<rect x="86" y="18" width="2" height="1" fill="#181425" />
<rect x="88" y="18" width="1" height="1" fill="#3E8948" />
<rect x="89" y="18" width="2" height="2" fill="#63C74D" />
<rect x="91" y="18" width="1" height="3" fill="#181425" />
<rect x="104" y="18" width="1" height="4" fill="#181425" />
<rect x="105" y="18" width="1" height="4" fill="#733E39" />
<rect x="121" y="18" width="1" height="1" fill="#3E8948" />
<rect x="122" y="18" width="1" height="1" fill="#181425" />
<rect x="137" y="18" width="1" height="4" fill="#733E39" />
<rect x="179" y="18" width="1" height="1" fill="#E43B44" />
<rect x="17" y="19" width="3" height="1" fill="#3E8948" />
<rect x="20" y="19" width="1" height="2" fill="#181425" />
<rect x="45" y="19" width="2" height="1" fill="#181425" />
<rect x="81" y="19" width="1" height="2" fill="#181425" />
<rect x="82" y="19" width="3" height="1" fill="#3E8948" />
<rect x="85" y="19" width="1" height="1" fill="#181425" />
<rect x="88" y="19" width="1" height="1" fill="#181425" />
<rect x="113" y="19" width="1" height="2" fill="#181425" />
<rect x="114" y="19" width="3" height="1" fill="#3E8948" />
<rect x="120" y="19" width="1" height="1" fill="#3E8948" />
<rect x="121" y="19" width="2" height="2" fill="#63C74D" />
<rect x="123" y="19" width="1" height="2" fill="#181425" />
<rect x="146" y="19" width="3" height="1" fill="#3E8948" />
<rect x="153" y="19" width="2" height="2" fill="#63C74D" />
<rect x="17" y="20" width="1" height="1" fill="#181425" />
<rect x="18" y="20" width="2" height="1" fill="#3E8948" />
<rect x="82" y="20" width="2" height="1" fill="#3E8948" />
<rect x="84" y="20" width="1" height="1" fill="#181425" />
<rect x="89" y="20" width="2" height="1" fill="#181425" />
<rect x="114" y="20" width="2" height="1" fill="#3E8948" />
<rect x="146" y="20" width="2" height="1" fill="#3E8948" />
<rect x="73" y="21" width="1" height="1" fill="#181425" />
</svg>