<?xml version="1.0" encoding="UTF-8" ?>
<svg version="1.1" width="192" height="32" xmlns="http://www.w3.org/2000/svg" shape-rendering="crispEdges">
<rect x="44" y="6" width="2" height="1" fill="#181425" />
<rect x="47" y="6" width="2" height="1" fill="#181425" />
<rect x="74" y="6" width="2" height="1" fill="#181425" />
<rect x="143" y="6" width="2" height="1" fill="#181425" />
<rect x="8" y="7" width="2" height="1" fill="#181425" />
<rect x="15" y="7" width="2" height="1" fill="#181425" />
<rect x="43" y="7" width="1" height="2" fill="#181425" />
<rect x="44" y="7" width="2" height="2" fill="#E43B44" />
<rect x="46" y="7" width="1" height="1" fill="#181425" />
<rect x="47" y="7" width="1" height="1" fill="#265C42" />
<rect x="48" y="7" width="4" height="1" fill="#181425" />
<rect x="73" y="7" width="1" height="2" fill="#181425" />
<rect x="74" y="7" width="2" height="2" fill="#E43B44" />
<rect x="76" y="7" width="1" height="6" fill="#181425" />
<rect x="79" y="7" width="2" height="1" fill="#181425" />
<rect x="106" y="7" width="2" height="1" fill="#181425" />
<rect x="111" y="7" width="2" height="1" fill="#181425" />
<rect x="138" y="7" width="2" height="1" fill="#181425" />
<rect x="142" y="7" width="1" height="1" fill="#181425" />
<rect x="143" y="7" width="1" height="1" fill="#265C42" />
<rect x="144" y="7" width="4" height="1" fill="#181425" />
<rect x="175" y="7" width="2" height="1" fill="#181425" />
<rect x="7" y="8" width="1" height="2" fill="#181425" />
<rect x="8" y="8" width="2" height="2" fill="#E43B44" />
<rect x="10" y="8" width="1" height="5" fill="#181425" />
<rect x="14" y="8" width="1" height="1" fill="#181425" />
<rect x="15" y="8" width="1" height="1" fill="#265C42" />
<rect x="16" y="8" width="4" height="1" fill="#181425" />
<rect x="46" y="8" width="3" height="2" fill="#FFFFFF" />
<rect x="49" y="8" width="1" height="1" fill="#181425" />
<rect x="50" y="8" width="1" height="2" fill="#3E8948" />
<rect x="51" y="8" width="1" height="2" fill="#181425" />
<rect x="78" y="8" width="1" height="1" fill="#181425" />
<rect x="79" y="8" width="1" height="1" fill="#265C42" />
<rect x="80" y="8" width="4" height="1" fill="#181425" />
<rect x="105" y="8" width="1" height="2" fill="#181425" />
<rect x="106" y="8" width="2" height="2" fill="#E43B44" />
<rect x="108" y="8" width="1" height="5" fill="#181425" />
<rect x="110" y="8" width="1" height="1" fill="#181425" />
<rect x="111" y="8" width="1" height="1" fill="#265C42" />
<rect x="112" y="8" width="4" height="1" fill="#181425" />
<rect x="137" y="8" width="1" height="2" fill="#181425" />
<rect x="138" y="8" width="2" height="2" fill="#E43B44" />
<rect x="140" y="8" width="2" height="2" fill="#181425" />
<rect x="142" y="8" width="3" height="2" fill="#FFFFFF" />
<rect x="145" y="8" width="1" height="1" fill="#181425" />
<rect x="146" y="8" width="1" height="2" fill="#3E8948" />
<rect x="147" y="8" width="1" height="2" fill="#181425" />
<rect x="171" y="8" width="2" height="1" fill="#181425" />
<rect x="174" y="8" width="1" height="1" fill="#181425" />
<rect x="175" y="8" width="1" height="1" fill="#265C42" />
<rect x="176" y="8" width="4" height="1" fill="#181425" />
<rect x="13" y="9" width="1" height="2" fill="#181425" />
<rect x="14" y="9" width="3" height="2" fill="#FFFFFF" />
<rect x="17" y="9" width="1" height="1" fill="#181425" />
<rect x="18" y="9" width="1" height="2" fill="#3E8948" />
<rect x="19" y="9" width="1" height="2" fill="#181425" />
<rect x="44" y="9" width="1" height="2" fill="#181425" />
<rect x="45" y="9" width="1" height="1" fill="#733E39" />
<rect x="49" y="9" width="1" height="2" fill="#C0CBDC" />
<rect x="74" y="9" width="1" height="3" fill="#181425" />
<rect x="75" y="9" width="1" height="4" fill="#733E39" />
<rect x="77" y="9" width="1" height="2" fill="#181425" />
<rect x="78" y="9" width="3" height="2" fill="#FFFFFF" />
<rect x="81" y="9" width="1" height="1" fill="#181425" />
<rect x="82" y="9" width="1" height="2" fill="#3E8948" />
<rect x="83" y="9" width="1" height="2" fill="#181425" />
<rect x="109" y="9" width="1" height="2" fill="#181425" />
<rect x="110" y="9" width="3" height="2" fill="#FFFFFF" />
<rect x="113" y="9" width="1" height="1" fill="#181425" />
<rect x="114" y="9" width="1" height="2" fill="#3E8948" />
<rect x="115" y="9" width="1" height="2" fill="#181425" />
<rect x="145" y="9" width="1" height="2" fill="#C0CBDC" />
<rect x="170" y="9" width="1" height="2" fill="#181425" />
<rect x="171" y="9" width="2" height="2" fill="#E43B44" />
<rect x="173" y="9" width="1" height="2" fill="#181425" />
<rect x="174" y="9" width="3" height="2" fill="#FFFFFF" />
<rect x="177" y="9" width="1" height="1" fill="#181425" />
<rect x="178" y="9" width="1" height="2" fill="#3E8948" />
<rect x="179" y="9" width="1" height="2" fill="#181425" />
<rect x="8" y="10" width="1" height="4" fill="#181425" />
<rect x="9" y="10" width="1" height="4" fill="#733E39" />
<rect x="17" y="10" width="1" height="2" fill="#C0CBDC" />
<rect x="45" y="10" width="3" height="1" fill="#FFFFFF" />
<rect x="48" y="10" width="1" height="1" fill="#181425" />
<rect x="50" y="10" width="1" height="2" fill="#181425" />
<rect x="81" y="10" width="1" height="2" fill="#C0CBDC" />
<rect x="106" y="10" width="1" height="3" fill="#181425" />
<rect x="107" y="10" width="1" height="4" fill="#733E39" />
<rect x="113" y="10" width="1" height="2" fill="#C0CBDC" />
<rect x="138" y="10" width="1" height="10" fill="#181425" />
<rect x="139" y="10" width="1" height="4" fill="#733E39" />
<rect x="140" y="10" width="1" height="3" fill="#181425" />
<rect x="141" y="10" width="3" height="1" fill="#FFFFFF" />
<rect x="144" y="10" width="1" height="1" fill="#181425" />
<rect x="146" y="10" width="1" height="2" fill="#181425" />
<rect x="177" y="10" width="1" height="2" fill="#C0CBDC" />
<rect x="12" y="11" width="1" height="3" fill="#181425" />
<rect x="13" y="11" width="3" height="1" fill="#FFFFFF" />
<rect x="16" y="11" width="1" height="1" fill="#181425" />
<rect x="18" y="11" width="1" height="2" fill="#181425" />
<rect x="43" y="11" width="1" height="2" fill="#181425" />
<rect x="44" y="11" width="1" height="2" fill="#733E39" />
<rect x="45" y="11" width="2" height="1" fill="#FFFFFF" />
<rect x="47" y="11" width="2" height="1" fill="#C0CBDC" />
<rect x="49" y="11" width="1" height="1" fill="#181425" />
<rect x="77" y="11" width="3" height="1" fill="#FFFFFF" />
<rect x="80" y="11" width="1" height="1" fill="#181425" />
<rect x="82" y="11" width="1" height="2" fill="#181425" />
<rect x="109" y="11" width="3" height="1" fill="#FFFFFF" />
<rect x="112" y="11" width="1" height="1" fill="#181425" />
<rect x="114" y="11" width="1" height="2" fill="#181425" />
<rect x="141" y="11" width="2" height="1" fill="#FFFFFF" />
<rect x="143" y="11" width="2" height="1" fill="#C0CBDC" />
<rect x="145" y="11" width="1" height="1" fill="#181425" />
<rect x="171" y="11" width="1" height="9" fill="#181425" />
<rect x="172" y="11" width="1" height="3" fill="#733E39" />
<rect x="173" y="11" width="3" height="1" fill="#FFFFFF" />
<rect x="176" y="11" width="1" height="1" fill="#181425" />
<rect x="178" y="11" width="1" height="2" fill="#181425" />
<rect x="13" y="12" width="2" height="1" fill="#FFFFFF" />
<rect x="15" y="12" width="2" height="1" fill="#C0CBDC" />
<rect x="17" y="12" width="1" height="1" fill="#181425" />
<rect x="45" y="12" width="3" height="2" fill="#63C74D" />
<rect x="48" y="12" width="1" height="1" fill="#3E8948" />
<rect x="49" y="12" width="2" height="2" fill="#63C74D" />
<rect x="51" y="12" width="1" height="4" fill="#181425" />
<rect x="73" y="12" width="1" height="7" fill="#181425" />
<rect x="74" y="12" width="1" height="1" fill="#733E39" />
<rect x="77" y="12" width="2" height="1" fill="#FFFFFF" />
<rect x="79" y="12" width="2" height="1" fill="#C0CBDC" />
<rect x="81" y="12" width="1" height="1" fill="#181425" />
<rect x="109" y="12" width="2" height="1" fill="#FFFFFF" />
<rect x="111" y="12" width="2" height="1" fill="#C0CBDC" />
<rect x="113" y="12" width="1" height="1" fill="#181425" />
<rect x="115" y="12" width="1" height="1" fill="#181425" />
<rect x="141" y="12" width="3" height="2" fill="#63C74D" />
<rect x="144" y="12" width="1" height="1" fill="#3E8948" />
<rect x="145" y="12" width="2" height="2" fill="#63C74D" />
<rect x="147" y="12" width="1" height="2" fill="#181425" />
<rect x="173" y="12" width="2" height="1" fill="#FFFFFF" />
<rect x="175" y="12" width="2" height="1" fill="#C0CBDC" />
<rect x="177" y="12" width="1" height="1" fill="#181425" />
<rect x="10" y="13" width="1" height="1" fill="#733E39" />
<rect x="11" y="13" width="1" height="1" fill="#181425" />
<rect x="13" y="13" width="3" height="2" fill="#63C74D" />
<rect x="16" y="13" width="1" height="1" fill="#3E8948" />
<rect x="17" y="13" width="2" height="2" fill="#63C74D" />
<rect x="19" y="13" width="1" height="4" fill="#181425" />
<rect x="42" y="13" width="1" height="6" fill="#181425" />
<rect x="43" y="13" width="2" height="2" fill="#3E8948" />
<rect x="48" y="13" width="1" height="2" fill="#63C74D" />
<rect x="74" y="13" width="2" height="2" fill="#3E8948" />
<rect x="76" y="13" width="1" height="3" fill="#265C42" />
<rect x="77" y="13" width="3" height="2" fill="#63C74D" />
<rect x="80" y="13" width="1" height="1" fill="#3E8948" />
<rect x="81" y="13" width="2" height="2" fill="#63C74D" />
<rect x="83" y="13" width="1" height="2" fill="#181425" />
<rect x="105" y="13" width="1" height="7" fill="#181425" />
<rect x="106" y="13" width="1" height="1" fill="#733E39" />
<rect x="108" y="13" width="1" height="3" fill="#265C42" />
<rect x="109" y="13" width="3" height="2" fill="#63C74D" />
<rect x="112" y="13" width="1" height="1" fill="#3E8948" />
<rect x="113" y="13" width="2" height="2" fill="#63C74D" />
<rect x="115" y="13" width="1" height="1" fill="#3E8948" />
<rect x="116" y="13" width="1" height="1" fill="#181425" />
<rect x="140" y="13" width="1" height="3" fill="#3E8948" />
<rect x="144" y="13" width="1" height="2" fill="#63C74D" />
<rect x="173" y="13" width="3" height="2" fill="#63C74D" />
<rect x="176" y="13" width="1" height="1" fill="#3E8948" />
<rect x="177" y="13" width="2" height="2" fill="#63C74D" />
<rect x="179" y="13" width="1" height="5" fill="#181425" />
<rect x="9" y="14" width="1" height="6" fill="#181425" />
<rect x="10" y="14" width="2" height="2" fill="#3E8948" />
<rect x="12" y="14" width="1" height="2" fill="#265C42" />
<rect x="16" y="14" width="1" height="2" fill="#63C74D" />
<rect x="45" y="14" width="1" height="1" fill="#3E8948" />
<rect x="46" y="14" width="2" height="1" fill="#63C74D" />
<rect x="49" y="14" width="2" height="1" fill="#3E8948" />
<rect x="80" y="14" width="1" height="2" fill="#63C74D" />
<rect x="106" y="14" width="2" height="2" fill="#3E8948" />
<rect x="112" y="14" width="1" height="2" fill="#63C74D" />
<rect x="115" y="14" width="2" height="2" fill="#63C74D" />
<rect x="117" y="14" width="1" height="3" fill="#181425" />
<rect x="139" y="14" width="1" height="2" fill="#3E8948" />
<rect x="141" y="14" width="1" height="1" fill="#3E8948" />
<rect x="142" y="14" width="2" height="1" fill="#63C74D" />
<rect x="145" y="14" width="1" height="1" fill="#3E8948" />
<rect x="146" y="14" width="2" height="2" fill="#63C74D" />
<rect x="148" y="14" width="1" height="3" fill="#181425" />
<rect x="172" y="14" width="1" height="2" fill="#265C42" />
<rect x="176" y="14" width="1" height="2" fill="#63C74D" />
<rect x="13" y="15" width="1" height="1" fill="#3E8948" />
<rect x="14" y="15" width="2" height="1" fill="#63C74D" />
<rect x="17" y="15" width="2" height="1" fill="#3E8948" />
<rect x="43" y="15" width="1" height="3" fill="#733E39" />
<rect x="44" y="15" width="2" height="2" fill="#181425" />
<rect x="46" y="15" width="1" height="2" fill="#A22633" />
<rect x="47" y="15" width="3" height="1" fill="#E43B44" />
<rect x="50" y="15" width="1" height="1" fill="#3E8948" />
<rect x="74" y="15" width="1" height="4" fill="#733E39" />
<rect x="75" y="15" width="1" height="5" fill="#181425" />
<rect x="77" y="15" width="1" height="1" fill="#3E8948" />
<rect x="78" y="15" width="2" height="1" fill="#63C74D" />
<rect x="81" y="15" width="1" height="1" fill="#3E8948" />
<rect x="82" y="15" width="2" height="2" fill="#63C74D" />
<rect x="84" y="15" width="1" height="6" fill="#181425" />
<rect x="109" y="15" width="1" height="1" fill="#3E8948" />
<rect x="110" y="15" width="2" height="1" fill="#63C74D" />
<rect x="113" y="15" width="2" height="1" fill="#3E8948" />
<rect x="141" y="15" width="1" height="2" fill="#181425" />
<rect x="142" y="15" width="1" height="2" fill="#A22633" />
<rect x="143" y="15" width="3" height="1" fill="#E43B44" />
<rect x="173" y="15" width="1" height="1" fill="#3E8948" />
<rect x="174" y="15" width="2" height="1" fill="#63C74D" />
<rect x="177" y="15" width="2" height="1" fill="#3E8948" />
<rect x="10" y="16" width="1" height="4" fill="#733E39" />
<rect x="11" y="16" width="2" height="1" fill="#181425" />
<rect x="13" y="16" width="3" height="1" fill="#A22633" />
<rect x="16" y="16" width="3" height="1" fill="#E43B44" />
<rect x="47" y="16" width="2" height="1" fill="#E43B44" />
<rect x="49" y="16" width="1" height="1" fill="#A22633" />
<rect x="50" y="16" width="1" height="4" fill="#181425" />
<rect x="76" y="16" width="4" height="1" fill="#E43B44" />
<rect x="80" y="16" width="2" height="1" fill="#A22633" />
<rect x="106" y="16" width="1" height="4" fill="#733E39" />
<rect x="107" y="16" width="2" height="1" fill="#181425" />
<rect x="109" y="16" width="3" height="1" fill="#E43B44" />
<rect x="112" y="16" width="3" height="1" fill="#A22633" />
<rect x="115" y="16" width="2" height="1" fill="#181425" />
<rect x="139" y="16" width="1" height="4" fill="#733E39" />
<rect x="140" y="16" width="1" height="4" fill="#181425" />
<rect x="143" y="16" width="2" height="2" fill="#E43B44" />
<rect x="145" y="16" width="1" height="1" fill="#A22633" />
<rect x="146" y="16" width="2" height="1" fill="#181425" />
<rect x="172" y="16" width="4" height="1" fill="#A22633" />
<rect x="176" y="16" width="3" height="1" fill="#E43B44" />
<rect x="11" y="17" width="1" height="3" fill="#181425" />
<rect x="12" y="17" width="3" height="1" fill="#A22633" />
<rect x="15" y="17" width="2" height="1" fill="#181425" />
<rect x="17" y="17" width="3" height="1" fill="#E43B44" />
<rect x="20" y="17" width="1" height="1" fill="#181425" />
<rect x="44" y="17" width="1" height="1" fill="#181425" />
<rect x="46" y="17" width="1" height="3" fill="#181425" />
<rect x="47" y="17" width="1" height="1" fill="#E43B44" />
<rect x="48" y="17" width="2" height="2" fill="#3E8948" />
<rect x="76" y="17" width="2" height="2" fill="#3E8948" />
<rect x="78" y="17" width="1" height="1" fill="#E43B44" />
<rect x="79" y="17" width="2" height="1" fill="#181425" />
<rect x="81" y="17" width="2" height="1" fill="#A22633" />
<rect x="83" y="17" width="1" height="1" fill="#181425" />
<rect x="107" y="17" width="1" height="3" fill="#181425" />
<rect x="108" y="17" width="3" height="1" fill="#E43B44" />
<rect x="111" y="17" width="2" height="1" fill="#181425" />
<rect x="113" y="17" width="3" height="1" fill="#A22633" />
<rect x="116" y="17" width="1" height="1" fill="#181425" />
<rect x="142" y="17" width="1" height="3" fill="#181425" />
<rect x="145" y="17" width="1" height="2" fill="#265C42" />
<rect x="146" y="17" width="1" height="3" fill="#181425" />
<rect x="172" y="17" width="2" height="2" fill="#3E8948" />
<rect x="174" y="17" width="1" height="1" fill="#A22633" />
<rect x="175" y="17" width="2" height="1" fill="#181425" />
<rect x="177" y="17" width="2" height="1" fill="#E43B44" />
<rect x="12" y="18" width="2" height="2" fill="#3E8948" />
<rect x="14" y="18" width="1" height="2" fill="#181425" />
<rect x="17" y="18" width="1" height="1" fill="#181425" />
<rect x="18" y="18" width="1" height="1" fill="#E43B44" />
<rect x="19" y="18" width="2" height="2" fill="#3E8948" />
<rect x="21" y="18" width="1" height="3" fill="#181425" />
<rect x="43" y="18" width="1" height="1" fill="#181425" />
<rect x="47" y="18" width="1" height="2" fill="#265C42" />
<rect x="78" y="18" width="1" height="1" fill="#181425" />
<rect x="80" y="18" width="1" height="1" fill="#181425" />
<rect x="81" y="18" width="1" height="1" fill="#A22633" />
<rect x="82" y="18" width="2" height="2" fill="#3E8948" />
<rect x="108" y="18" width="2" height="2" fill="#3E8948" />
<rect x="110" y="18" width="1" height="2" fill="#181425" />
<rect x="113" y="18" width="1" height="1" fill="#181425" />
<rect x="114" y="18" width="1" height="1" fill="#A22633" />
<rect x="115" y="18" width="2" height="2" fill="#3E8948" />
<rect x="117" y="18" width="1" height="3" fill="#181425" />
<rect x="143" y="18" width="2" height="2" fill="#3E8948" />
<rect x="174" y="18" width="1" height="1" fill="#181425" />
<rect x="176" y="18" width="1" height="1" fill="#181425" />
<rect x="177" y="18" width="1" height="1" fill="#E43B44" />
<rect x="178" y="18" width="2" height="2" fill="#3E8948" />
<rect x="180" y="18" width="1" height="3" fill="#181425" />
<rect x="18" y="19" width="1" height="1" fill="#181425" />
<rect x="48" y="19" width="1" height="1" fill="#265C42" />
<rect x="49" y="19" width="1" height="1" fill="#181425" />
<rect x="74" y="19" width="1" height="1" fill="#181425" />
<rect x="76" y="19" width="2" height="1" fill="#181425" />
<rect x="81" y="19" width="1" height="1" fill="#181425" />
<rect x="114" y="19" width="1" height="1" fill="#181425" />
<rect x="145" y="19" width="1" height="1" fill="#181425" />
<rect x="172" y="19" width="2" height="1" fill="#181425" />
<rect x="177" y="19" width="1" height="1" fill="#181425" />
<rect x="19" y="20" width="2" height="1" fill="#181425" />
<rect x="82" y="20" width="2" height="1" fill="#181425" />
<rect x="115" y="20" width="2" height="1" fill="#181425" />
<rect x="178" y="20" width="2" height="1" fill="#181425" />
</svg>