<?xml version="1.0" encoding="UTF-8" ?>
<svg version="1.1" width="128" height="32" xmlns="http://www.w3.org/2000/svg" shape-rendering="crispEdges">
<rect x="45" y="3" width="3" height="1" fill="#181425" />
<rect x="75" y="3" width="5" height="1" fill="#181425" />
<rect x="11" y="4" width="5" height="1" fill="#181425" />
<rect x="43" y="4" width="3" height="1" fill="#181425" />
<rect x="46" y="4" width="2" height="3" fill="#3E8948" />
<rect x="48" y="4" width="1" height="1" fill="#181425" />
<rect x="75" y="4" width="1" height="2" fill="#181425" />
<rect x="76" y="4" width="1" height="2" fill="#EAD4AA" />
<rect x="77" y="4" width="1" height="1" fill="#181425" />
<rect x="78" y="4" width="2" height="3" fill="#3E8948" />
<rect x="80" y="4" width="1" height="1" fill="#181425" />
<rect x="107" y="4" width="5" height="1" fill="#181425" />
<rect x="11" y="5" width="1" height="2" fill="#181425" />
<rect x="12" y="5" width="1" height="2" fill="#EAD4AA" />
<rect x="13" y="5" width="1" height="1" fill="#181425" />
<rect x="14" y="5" width="2" height="3" fill="#3E8948" />
<rect x="16" y="5" width="1" height="1" fill="#181425" />
<rect x="43" y="5" width="1" height="2" fill="#181425" />
<rect x="44" y="5" width="2" height="2" fill="#EAD4AA" />
<rect x="48" y="5" width="1" height="1" fill="#3E8948" />
<rect x="49" y="5" width="1" height="1" fill="#181425" />
<rect x="77" y="5" width="1" height="2" fill="#EAD4AA" />
<rect x="80" y="5" width="1" height="1" fill="#3E8948" />
<rect x="81" y="5" width="1" height="1" fill="#181425" />
<rect x="107" y="5" width="1" height="2" fill="#181425" />
<rect x="108" y="5" width="1" height="2" fill="#EAD4AA" />
<rect x="109" y="5" width="1" height="1" fill="#181425" />
<rect x="110" y="5" width="2" height="3" fill="#3E8948" />
<rect x="112" y="5" width="1" height="1" fill="#181425" />
<rect x="13" y="6" width="1" height="2" fill="#EAD4AA" />
<rect x="16" y="6" width="1" height="1" fill="#3E8948" />
<rect x="17" y="6" width="1" height="1" fill="#181425" />
<rect x="48" y="6" width="2" height="1" fill="#63C74D" />
<rect x="50" y="6" width="1" height="2" fill="#181425" />
<rect x="76" y="6" width="1" height="3" fill="#181425" />
<rect x="80" y="6" width="2" height="1" fill="#63C74D" />
<rect x="82" y="6" width="1" height="2" fill="#181425" />
<rect x="109" y="6" width="1" height="2" fill="#EAD4AA" />
<rect x="112" y="6" width="1" height="1" fill="#3E8948" />
<rect x="113" y="6" width="1" height="1" fill="#181425" />
<rect x="12" y="7" width="1" height="3" fill="#181425" />
<rect x="16" y="7" width="2" height="1" fill="#63C74D" />
<rect x="18" y="7" width="1" height="2" fill="#181425" />
<rect x="44" y="7" width="1" height="2" fill="#181425" />
<rect x="45" y="7" width="3" height="1" fill="#63C74D" />
<rect x="48" y="7" width="1" height="1" fill="#265C42" />
<rect x="49" y="7" width="1" height="3" fill="#181425" />
<rect x="77" y="7" width="3" height="1" fill="#63C74D" />
<rect x="80" y="7" width="1" height="1" fill="#265C42" />
<rect x="81" y="7" width="1" height="3" fill="#181425" />
<rect x="108" y="7" width="1" height="3" fill="#181425" />
<rect x="112" y="7" width="2" height="1" fill="#63C74D" />
<rect x="114" y="7" width="1" height="2" fill="#181425" />
<rect x="13" y="8" width="3" height="1" fill="#63C74D" />
<rect x="16" y="8" width="1" height="1" fill="#265C42" />
<rect x="17" y="8" width="1" height="3" fill="#181425" />
<rect x="45" y="8" width="2" height="1" fill="#181425" />
<rect x="47" y="8" width="1" height="2" fill="#E8B796" />
<rect x="48" y="8" width="1" height="1" fill="#181425" />
<rect x="77" y="8" width="2" height="1" fill="#181425" />
<rect x="79" y="8" width="1" height="2" fill="#E8B796" />
<rect x="80" y="8" width="1" height="1" fill="#181425" />
<rect x="109" y="8" width="3" height="1" fill="#63C74D" />
<rect x="112" y="8" width="1" height="1" fill="#265C42" />
<rect x="113" y="8" width="1" height="3" fill="#181425" />
<rect x="13" y="9" width="2" height="1" fill="#181425" />
<rect x="15" y="9" width="1" height="2" fill="#E8B796" />
<rect x="16" y="9" width="1" height="1" fill="#181425" />
<rect x="45" y="9" width="1" height="1" fill="#181425" />
<rect x="46" y="9" width="1" height="1" fill="#E8B796" />
<rect x="48" y="9" width="1" height="1" fill="#E8B796" />
<rect x="77" y="9" width="1" height="1" fill="#181425" />
<rect x="78" y="9" width="1" height="1" fill="#E8B796" />
<rect x="80" y="9" width="1" height="1" fill="#E8B796" />
<rect x="109" y="9" width="2" height="1" fill="#181425" />
<rect x="111" y="9" width="1" height="2" fill="#E8B796" />
<rect x="112" y="9" width="1" height="1" fill="#181425" />
<rect x="13" y="10" width="1" height="1" fill="#181425" />
<rect x="14" y="10" width="1" height="1" fill="#E8B796" />
<rect x="16" y="10" width="1" height="1" fill="#E8B796" />
<rect x="44" y="10" width="1" height="1" fill="#181425" />
<rect x="45" y="10" width="5" height="2" fill="#63C74D" />
<rect x="50" y="10" width="1" height="3" fill="#181425" />
<rect x="76" y="10" width="1" height="1" fill="#181425" />
<rect x="77" y="10" width="5" height="2" fill="#63C74D" />
<rect x="82" y="10" width="1" height="2" fill="#181425" />
<rect x="109" y="10" width="1" height="1" fill="#181425" />
<rect x="110" y="10" width="1" height="1" fill="#E8B796" />
<rect x="112" y="10" width="1" height="1" fill="#E8B796" />
<rect x="12" y="11" width="1" height="1" fill="#181425" />
<rect x="13" y="11" width="5" height="2" fill="#63C74D" />
<rect x="18" y="11" width="1" height="2" fill="#181425" />
<rect x="43" y="11" width="1" height="2" fill="#181425" />
<rect x="44" y="11" width="1" height="2" fill="#3E8948" />
<rect x="75" y="11" width="1" height="1" fill="#181425" />
<rect x="76" y="11" width="1" height="3" fill="#3E8948" />
<rect x="83" y="11" width="3" height="1" fill="#181425" />
<rect x="108" y="11" width="1" height="1" fill="#181425" />
<rect x="109" y="11" width="5" height="2" fill="#63C74D" />
<rect x="114" y="11" width="4" height="1" fill="#181425" />
<rect x="11" y="12" width="1" height="1" fill="#181425" />
<rect x="12" y="12" width="1" height="3" fill="#3E8948" />
<rect x="19" y="12" width="3" height="1" fill="#181425" />
<rect x="45" y="12" width="1" height="1" fill="#3E8948" />
<rect x="46" y="12" width="3" height="1" fill="#63C74D" />
<rect x="49" y="12" width="1" height="1" fill="#3E8948" />
<rect x="51" y="12" width="3" height="1" fill="#181425" />
<rect x="74" y="12" width="1" height="1" fill="#181425" />
<rect x="75" y="12" width="1" height="1" fill="#3E8948" />
<rect x="77" y="12" width="1" height="1" fill="#3E8948" />
<rect x="78" y="12" width="3" height="1" fill="#63C74D" />
<rect x="81" y="12" width="1" height="1" fill="#3E8948" />
<rect x="82" y="12" width="1" height="1" fill="#265C42" />
<rect x="83" y="12" width="1" height="1" fill="#8B9BB4" />
<rect x="84" y="12" width="1" height="3" fill="#733E39" />
<rect x="85" y="12" width="1" height="3" fill="#181425" />
<rect x="106" y="12" width="2" height="1" fill="#181425" />
<rect x="108" y="12" width="1" height="3" fill="#3E8948" />
<rect x="114" y="12" width="1" height="1" fill="#265C42" />
<rect x="115" y="12" width="1" height="1" fill="#8B9BB4" />
<rect x="116" y="12" width="1" height="3" fill="#733E39" />
<rect x="117" y="12" width="1" height="3" fill="#181425" />
<rect x="10" y="13" width="1" height="1" fill="#181425" />
<rect x="11" y="13" width="1" height="1" fill="#3E8948" />
<rect x="13" y="13" width="1" height="1" fill="#3E8948" />
<rect x="14" y="13" width="3" height="1" fill="#63C74D" />
<rect x="17" y="13" width="1" height="1" fill="#3E8948" />
<rect x="18" y="13" width="1" height="1" fill="#265C42" />
<rect x="19" y="13" width="1" height="1" fill="#8B9BB4" />
<rect x="20" y="13" width="1" height="3" fill="#733E39" />
<rect x="21" y="13" width="1" height="3" fill="#181425" />
<rect x="42" y="13" width="1" height="3" fill="#181425" />
<rect x="43" y="13" width="2" height="2" fill="#E8B796" />
<rect x="45" y="13" width="6" height="1" fill="#265C42" />
<rect x="51" y="13" width="1" height="1" fill="#8B9BB4" />
<rect x="52" y="13" width="1" height="3" fill="#733E39" />
<rect x="53" y="13" width="1" height="3" fill="#181425" />
<rect x="73" y="13" width="1" height="3" fill="#181425" />
<rect x="74" y="13" width="2" height="2" fill="#E8B796" />
<rect x="77" y="13" width="5" height="1" fill="#265C42" />
<rect x="82" y="13" width="1" height="1" fill="#8B9BB4" />
<rect x="83" y="13" width="1" height="1" fill="#181425" />
<rect x="105" y="13" width="1" height="3" fill="#181425" />
<rect x="106" y="13" width="2" height="2" fill="#E8B796" />
<rect x="109" y="13" width="1" height="1" fill="#3E8948" />
<rect x="110" y="13" width="3" height="1" fill="#63C74D" />
<rect x="113" y="13" width="1" height="1" fill="#3E8948" />
<rect x="114" y="13" width="1" height="1" fill="#8B9BB4" />
<rect x="115" y="13" width="1" height="1" fill="#181425" />
<rect x="9" y="14" width="1" height="3" fill="#181425" />
<rect x="10" y="14" width="2" height="2" fill="#E8B796" />
<rect x="13" y="14" width="5" height="1" fill="#265C42" />
<rect x="18" y="14" width="1" height="1" fill="#8B9BB4" />
<rect x="19" y="14" width="1" height="1" fill="#181425" />
<rect x="45" y="14" width="2" height="2" fill="#265C42" />
<rect x="47" y="14" width="3" height="2" fill="#3E8948" />
<rect x="50" y="14" width="1" height="1" fill="#8B9BB4" />
<rect x="51" y="14" width="1" height="1" fill="#181425" />
<rect x="76" y="14" width="1" height="1" fill="#181425" />
<rect x="77" y="14" width="2" height="2" fill="#265C42" />
<rect x="79" y="14" width="3" height="2" fill="#3E8948" />
<rect x="82" y="14" width="2" height="2" fill="#C28569" />
<rect x="109" y="14" width="5" height="1" fill="#265C42" />
<rect x="114" y="14" width="2" height="2" fill="#C28569" />
<rect x="12" y="15" width="1" height="1" fill="#181425" />
<rect x="13" y="15" width="2" height="2" fill="#265C42" />
<rect x="15" y="15" width="3" height="2" fill="#3E8948" />
<rect x="18" y="15" width="2" height="2" fill="#C28569" />
<rect x="43" y="15" width="1" height="3" fill="#181425" />
<rect x="44" y="15" width="1" height="1" fill="#265C42" />
<rect x="50" y="15" width="2" height="2" fill="#C28569" />
<rect x="74" y="15" width="2" height="1" fill="#181425" />
<rect x="76" y="15" width="1" height="1" fill="#265C42" />
<rect x="84" y="15" width="1" height="2" fill="#181425" />
<rect x="106" y="15" width="3" height="1" fill="#181425" />
<rect x="109" y="15" width="2" height="2" fill="#265C42" />
<rect x="111" y="15" width="3" height="2" fill="#3E8948" />
<rect x="116" y="15" width="1" height="2" fill="#181425" />
<rect x="10" y="16" width="2" height="1" fill="#181425" />
<rect x="12" y="16" width="1" height="1" fill="#265C42" />
<rect x="20" y="16" width="1" height="2" fill="#181425" />
<rect x="44" y="16" width="2" height="2" fill="#733E39" />
<rect x="46" y="16" width="2" height="1" fill="#181425" />
<rect x="48" y="16" width="2" height="3" fill="#B86F50" />
<rect x="52" y="16" width="1" height="2" fill="#181425" />
<rect x="75" y="16" width="1" height="2" fill="#181425" />
<rect x="76" y="16" width="2" height="2" fill="#733E39" />
<rect x="78" y="16" width="2" height="1" fill="#181425" />
<rect x="80" y="16" width="2" height="3" fill="#B86F50" />
<rect x="82" y="16" width="2" height="1" fill="#181425" />
<rect x="107" y="16" width="1" height="2" fill="#181425" />
<rect x="108" y="16" width="1" height="1" fill="#265C42" />
<rect x="114" y="16" width="2" height="1" fill="#181425" />
<rect x="11" y="17" width="1" height="1" fill="#181425" />
<rect x="12" y="17" width="2" height="1" fill="#733E39" />
<rect x="14" y="17" width="2" height="1" fill="#181425" />
<rect x="16" y="17" width="2" height="2" fill="#B86F50" />
<rect x="18" y="17" width="2" height="1" fill="#181425" />
<rect x="46" y="17" width="1" height="3" fill="#733E39" />
<rect x="47" y="17" width="1" height="4" fill="#181425" />
<rect x="50" y="17" width="2" height="1" fill="#181425" />
<rect x="78" y="17" width="1" height="3" fill="#733E39" />
<rect x="79" y="17" width="1" height="4" fill="#181425" />
<rect x="82" y="17" width="1" height="4" fill="#181425" />
<rect x="108" y="17" width="2" height="1" fill="#733E39" />
<rect x="110" y="17" width="2" height="1" fill="#181425" />
<rect x="112" y="17" width="2" height="2" fill="#B86F50" />
<rect x="114" y="17" width="1" height="4" fill="#181425" />
<rect x="12" y="18" width="1" height="2" fill="#181425" />
<rect x="13" y="18" width="1" height="1" fill="#3E2731" />
<rect x="14" y="18" width="1" height="2" fill="#733E39" />
<rect x="15" y="18" width="1" height="3" fill="#181425" />
<rect x="18" y="18" width="1" height="3" fill="#181425" />
<rect x="44" y="18" width="1" height="2" fill="#181425" />
<rect x="45" y="18" width="1" height="1" fill="#3E2731" />
<rect x="50" y="18" width="1" height="3" fill="#181425" />
<rect x="76" y="18" width="1" height="2" fill="#181425" />
<rect x="77" y="18" width="1" height="1" fill="#3E2731" />
<rect x="108" y="18" width="1" height="2" fill="#181425" />
<rect x="109" y="18" width="1" height="1" fill="#3E2731" />
<rect x="110" y="18" width="1" height="2" fill="#733E39" />
<rect x="111" y="18" width="1" height="3" fill="#181425" />
<rect x="13" y="19" width="1" height="1" fill="#733E39" />
<rect x="16" y="19" width="1" height="2" fill="#B86F50" />
<rect x="17" y="19" width="1" height="1" fill="#733E39" />
<rect x="45" y="19" width="1" height="1" fill="#733E39" />
<rect x="48" y="19" width="1" height="2" fill="#B86F50" />
<rect x="49" y="19" width="1" height="1" fill="#733E39" />
<rect x="77" y="19" width="1" height="1" fill="#733E39" />
<rect x="80" y="19" width="1" height="2" fill="#B86F50" />
<rect x="81" y="19" width="1" height="1" fill="#733E39" />
<rect x="109" y="19" width="1" height="1" fill="#733E39" />
<rect x="112" y="19" width="1" height="2" fill="#B86F50" />
<rect x="113" y="19" width="1" height="1" fill="#733E39" />
<rect x="17" y="20" width="1" height="1" fill="#B86F50" />
<rect x="49" y="20" width="1" height="1" fill="#B86F50" />
<rect x="81" y="20" width="1" height="1" fill="#B86F50" />
<rect x="113" y="20" width="1" height="1" fill="#B86F50" />
</svg>