<?xml version="1.0" encoding="UTF-8" ?>
<svg version="1.1" width="192" height="32" xmlns="http://www.w3.org/2000/svg" shape-rendering="crispEdges">
<rect x="43" y="3" width="5" height="1" fill="#181425" />
<rect x="139" y="3" width="5" height="1" fill="#181425" />
<rect x="11" y="4" width="5" height="1" fill="#181425" />
<rect x="43" y="4" width="1" height="2" fill="#181425" />
<rect x="44" y="4" width="1" height="2" fill="#EAD4AA" />
<rect x="45" y="4" width="1" height="1" fill="#181425" />
<rect x="46" y="4" width="2" height="3" fill="#3E8948" />
<rect x="48" y="4" width="1" height="1" fill="#181425" />
<rect x="75" y="4" width="5" height="1" fill="#181425" />
<rect x="107" y="4" width="5" height="1" fill="#181425" />
<rect x="139" y="4" width="1" height="2" fill="#181425" />
<rect x="140" y="4" width="1" height="2" fill="#EAD4AA" />
<rect x="141" y="4" width="1" height="1" fill="#181425" />
<rect x="142" y="4" width="2" height="3" fill="#3E8948" />
<rect x="144" y="4" width="1" height="1" fill="#181425" />
<rect x="171" y="4" width="5" height="1" fill="#181425" />
<rect x="11" y="5" width="1" height="2" fill="#181425" />
<rect x="12" y="5" width="1" height="2" fill="#EAD4AA" />
<rect x="13" y="5" width="1" height="1" fill="#181425" />
<rect x="14" y="5" width="2" height="3" fill="#3E8948" />
<rect x="16" y="5" width="1" height="1" fill="#181425" />
<rect x="45" y="5" width="1" height="2" fill="#EAD4AA" />
<rect x="48" y="5" width="1" height="1" fill="#3E8948" />
<rect x="49" y="5" width="1" height="1" fill="#181425" />
<rect x="75" y="5" width="1" height="2" fill="#181425" />
<rect x="76" y="5" width="1" height="2" fill="#EAD4AA" />
<rect x="77" y="5" width="1" height="1" fill="#181425" />
<rect x="78" y="5" width="2" height="3" fill="#3E8948" />
<rect x="80" y="5" width="1" height="1" fill="#181425" />
<rect x="107" y="5" width="1" height="2" fill="#181425" />
<rect x="108" y="5" width="1" height="2" fill="#EAD4AA" />
<rect x="109" y="5" width="1" height="1" fill="#181425" />
<rect x="110" y="5" width="2" height="3" fill="#3E8948" />
<rect x="112" y="5" width="1" height="1" fill="#181425" />
<rect x="141" y="5" width="1" height="2" fill="#EAD4AA" />
<rect x="144" y="5" width="1" height="1" fill="#3E8948" />
<rect x="145" y="5" width="1" height="1" fill="#181425" />
<rect x="171" y="5" width="1" height="2" fill="#181425" />
<rect x="172" y="5" width="1" height="2" fill="#EAD4AA" />
<rect x="173" y="5" width="1" height="1" fill="#181425" />
<rect x="174" y="5" width="2" height="3" fill="#3E8948" />
<rect x="176" y="5" width="1" height="1" fill="#181425" />
<rect x="13" y="6" width="1" height="2" fill="#EAD4AA" />
<rect x="16" y="6" width="1" height="1" fill="#3E8948" />
<rect x="17" y="6" width="1" height="1" fill="#181425" />
<rect x="44" y="6" width="1" height="3" fill="#181425" />
<rect x="48" y="6" width="2" height="1" fill="#63C74D" />
<rect x="50" y="6" width="1" height="2" fill="#181425" />
<rect x="77" y="6" width="1" height="2" fill="#EAD4AA" />
<rect x="80" y="6" width="1" height="1" fill="#3E8948" />
<rect x="81" y="6" width="1" height="1" fill="#181425" />
<rect x="109" y="6" width="1" height="2" fill="#EAD4AA" />
<rect x="112" y="6" width="1" height="1" fill="#3E8948" />
<rect x="113" y="6" width="1" height="1" fill="#181425" />
<rect x="140" y="6" width="1" height="3" fill="#181425" />
<rect x="144" y="6" width="2" height="1" fill="#63C74D" />
<rect x="146" y="6" width="1" height="2" fill="#181425" />
<rect x="173" y="6" width="1" height="2" fill="#EAD4AA" />
<rect x="176" y="6" width="1" height="1" fill="#3E8948" />
<rect x="177" y="6" width="1" height="1" fill="#181425" />
<rect x="12" y="7" width="1" height="3" fill="#181425" />
<rect x="16" y="7" width="2" height="1" fill="#63C74D" />
<rect x="18" y="7" width="1" height="2" fill="#181425" />
<rect x="45" y="7" width="3" height="1" fill="#63C74D" />
<rect x="48" y="7" width="1" height="1" fill="#265C42" />
<rect x="49" y="7" width="1" height="3" fill="#181425" />
<rect x="76" y="7" width="1" height="3" fill="#181425" />
<rect x="80" y="7" width="2" height="1" fill="#63C74D" />
<rect x="82" y="7" width="1" height="2" fill="#181425" />
<rect x="108" y="7" width="1" height="3" fill="#181425" />
<rect x="112" y="7" width="2" height="1" fill="#63C74D" />
<rect x="114" y="7" width="1" height="1" fill="#181425" />
<rect x="141" y="7" width="3" height="1" fill="#63C74D" />
<rect x="144" y="7" width="1" height="1" fill="#265C42" />
<rect x="145" y="7" width="1" height="3" fill="#181425" />
<rect x="172" y="7" width="1" height="3" fill="#181425" />
<rect x="176" y="7" width="2" height="1" fill="#63C74D" />
<rect x="178" y="7" width="1" height="2" fill="#181425" />
<rect x="13" y="8" width="3" height="1" fill="#63C74D" />
<rect x="16" y="8" width="1" height="1" fill="#265C42" />
<rect x="17" y="8" width="1" height="3" fill="#181425" />
<rect x="45" y="8" width="2" height="1" fill="#181425" />
<rect x="47" y="8" width="1" height="2" fill="#E8B796" />
<rect x="48" y="8" width="1" height="1" fill="#181425" />
<rect x="77" y="8" width="3" height="1" fill="#63C74D" />
<rect x="80" y="8" width="1" height="1" fill="#265C42" />
<rect x="81" y="8" width="1" height="3" fill="#181425" />
<rect x="109" y="8" width="3" height="1" fill="#63C74D" />
<rect x="112" y="8" width="1" height="1" fill="#265C42" />
<rect x="113" y="8" width="1" height="2" fill="#181425" />
<rect x="114" y="8" width="1" height="4" fill="#733E39" />
<rect x="115" y="8" width="1" height="9" fill="#181425" />
<rect x="141" y="8" width="2" height="1" fill="#181425" />
<rect x="143" y="8" width="1" height="2" fill="#E8B796" />
<rect x="144" y="8" width="1" height="1" fill="#181425" />
<rect x="146" y="8" width="1" height="4" fill="#733E39" />
<rect x="147" y="8" width="1" height="2" fill="#181425" />
<rect x="173" y="8" width="3" height="1" fill="#63C74D" />
<rect x="176" y="8" width="1" height="1" fill="#265C42" />
<rect x="177" y="8" width="1" height="3" fill="#181425" />
<rect x="13" y="9" width="2" height="1" fill="#181425" />
<rect x="15" y="9" width="1" height="2" fill="#E8B796" />
<rect x="16" y="9" width="1" height="1" fill="#181425" />
<rect x="45" y="9" width="1" height="1" fill="#181425" />
<rect x="46" y="9" width="1" height="1" fill="#E8B796" />
<rect x="48" y="9" width="1" height="1" fill="#E8B796" />
<rect x="77" y="9" width="2" height="1" fill="#181425" />
<rect x="79" y="9" width="1" height="2" fill="#E8B796" />
<rect x="80" y="9" width="1" height="1" fill="#181425" />
<rect x="82" y="9" width="1" height="4" fill="#733E39" />
<rect x="83" y="9" width="1" height="2" fill="#181425" />
<rect x="109" y="9" width="2" height="1" fill="#181425" />
<rect x="111" y="9" width="1" height="2" fill="#E8B796" />
<rect x="112" y="9" width="1" height="1" fill="#181425" />
<rect x="141" y="9" width="1" height="1" fill="#181425" />
<rect x="142" y="9" width="1" height="1" fill="#E8B796" />
<rect x="144" y="9" width="1" height="1" fill="#E8B796" />
<rect x="173" y="9" width="2" height="1" fill="#181425" />
<rect x="175" y="9" width="1" height="2" fill="#E8B796" />
<rect x="176" y="9" width="1" height="1" fill="#181425" />
<rect x="13" y="10" width="1" height="1" fill="#181425" />
<rect x="14" y="10" width="1" height="1" fill="#E8B796" />
<rect x="16" y="10" width="1" height="1" fill="#E8B796" />
<rect x="44" y="10" width="1" height="1" fill="#181425" />
<rect x="45" y="10" width="5" height="1" fill="#63C74D" />
<rect x="50" y="10" width="1" height="2" fill="#181425" />
<rect x="77" y="10" width="1" height="1" fill="#181425" />
<rect x="78" y="10" width="1" height="1" fill="#E8B796" />
<rect x="80" y="10" width="1" height="1" fill="#E8B796" />
<rect x="109" y="10" width="1" height="1" fill="#181425" />
<rect x="110" y="10" width="1" height="1" fill="#E8B796" />
<rect x="112" y="10" width="1" height="1" fill="#E8B796" />
<rect x="113" y="10" width="1" height="2" fill="#733E39" />
<rect x="140" y="10" width="1" height="2" fill="#181425" />
<rect x="141" y="10" width="5" height="2" fill="#63C74D" />
<rect x="147" y="10" width="1" height="2" fill="#733E39" />
<rect x="148" y="10" width="1" height="8" fill="#181425" />
<rect x="173" y="10" width="1" height="1" fill="#181425" />
<rect x="174" y="10" width="1" height="1" fill="#E8B796" />
<rect x="176" y="10" width="1" height="1" fill="#E8B796" />
<rect x="12" y="11" width="1" height="1" fill="#181425" />
<rect x="13" y="11" width="5" height="1" fill="#63C74D" />
<rect x="18" y="11" width="1" height="2" fill="#181425" />
<rect x="43" y="11" width="1" height="1" fill="#181425" />
<rect x="44" y="11" width="1" height="1" fill="#3E8948" />
<rect x="45" y="11" width="4" height="1" fill="#63C74D" />
<rect x="49" y="11" width="1" height="4" fill="#733E39" />
<rect x="76" y="11" width="1" height="2" fill="#181425" />
<rect x="77" y="11" width="5" height="2" fill="#63C74D" />
<rect x="83" y="11" width="1" height="2" fill="#733E39" />
<rect x="84" y="11" width="1" height="8" fill="#181425" />
<rect x="108" y="11" width="1" height="3" fill="#181425" />
<rect x="109" y="11" width="4" height="2" fill="#63C74D" />
<rect x="172" y="11" width="1" height="1" fill="#181425" />
<rect x="173" y="11" width="5" height="1" fill="#63C74D" />
<rect x="178" y="11" width="1" height="2" fill="#181425" />
<rect x="11" y="12" width="1" height="3" fill="#181425" />
<rect x="12" y="12" width="2" height="2" fill="#E8B796" />
<rect x="14" y="12" width="3" height="2" fill="#63C74D" />
<rect x="17" y="12" width="1" height="4" fill="#733E39" />
<rect x="42" y="12" width="1" height="3" fill="#181425" />
<rect x="43" y="12" width="2" height="2" fill="#E8B796" />
<rect x="45" y="12" width="1" height="1" fill="#3E8948" />
<rect x="46" y="12" width="3" height="1" fill="#63C74D" />
<rect x="50" y="12" width="1" height="1" fill="#8B9BB4" />
<rect x="51" y="12" width="1" height="1" fill="#181425" />
<rect x="113" y="12" width="2" height="2" fill="#E8B796" />
<rect x="139" y="12" width="1" height="2" fill="#181425" />
<rect x="140" y="12" width="1" height="2" fill="#265C42" />
<rect x="141" y="12" width="1" height="1" fill="#3E8948" />
<rect x="142" y="12" width="3" height="1" fill="#63C74D" />
<rect x="145" y="12" width="1" height="1" fill="#3E8948" />
<rect x="146" y="12" width="2" height="2" fill="#E8B796" />
<rect x="171" y="12" width="1" height="1" fill="#181425" />
<rect x="172" y="12" width="1" height="1" fill="#3E8948" />
<rect x="173" y="12" width="4" height="1" fill="#63C74D" />
<rect x="177" y="12" width="1" height="4" fill="#733E39" />
<rect x="18" y="13" width="1" height="1" fill="#8B9BB4" />
<rect x="19" y="13" width="1" height="1" fill="#181425" />
<rect x="45" y="13" width="4" height="1" fill="#265C42" />
<rect x="50" y="13" width="1" height="1" fill="#733E39" />
<rect x="51" y="13" width="1" height="1" fill="#8B9BB4" />
<rect x="52" y="13" width="1" height="2" fill="#181425" />
<rect x="75" y="13" width="1" height="2" fill="#181425" />
<rect x="76" y="13" width="1" height="2" fill="#265C42" />
<rect x="77" y="13" width="1" height="1" fill="#3E8948" />
<rect x="78" y="13" width="3" height="1" fill="#63C74D" />
<rect x="81" y="13" width="1" height="1" fill="#3E8948" />
<rect x="82" y="13" width="2" height="2" fill="#E8B796" />
<rect x="109" y="13" width="1" height="1" fill="#3E8948" />
<rect x="110" y="13" width="3" height="1" fill="#63C74D" />
<rect x="141" y="13" width="5" height="1" fill="#265C42" />
<rect x="170" y="13" width="1" height="3" fill="#181425" />
<rect x="171" y="13" width="2" height="2" fill="#E8B796" />
<rect x="173" y="13" width="1" height="1" fill="#3E8948" />
<rect x="174" y="13" width="3" height="1" fill="#63C74D" />
<rect x="178" y="13" width="1" height="1" fill="#8B9BB4" />
<rect x="179" y="13" width="1" height="1" fill="#181425" />
<rect x="12" y="14" width="1" height="5" fill="#181425" />
<rect x="13" y="14" width="4" height="1" fill="#265C42" />
<rect x="18" y="14" width="1" height="1" fill="#733E39" />
<rect x="19" y="14" width="1" height="1" fill="#8B9BB4" />
<rect x="20" y="14" width="1" height="1" fill="#181425" />
<rect x="43" y="14" width="2" height="1" fill="#181425" />
<rect x="45" y="14" width="2" height="2" fill="#265C42" />
<rect x="47" y="14" width="2" height="2" fill="#3E8948" />
<rect x="50" y="14" width="2" height="2" fill="#C28569" />
<rect x="77" y="14" width="5" height="1" fill="#265C42" />
<rect x="107" y="14" width="1" height="4" fill="#181425" />
<rect x="108" y="14" width="5" height="1" fill="#265C42" />
<rect x="113" y="14" width="2" height="1" fill="#733E39" />
<rect x="138" y="14" width="1" height="3" fill="#181425" />
<rect x="139" y="14" width="2" height="2" fill="#C28569" />
<rect x="141" y="14" width="2" height="2" fill="#265C42" />
<rect x="143" y="14" width="3" height="2" fill="#3E8948" />
<rect x="146" y="14" width="2" height="1" fill="#733E39" />
<rect x="173" y="14" width="4" height="1" fill="#265C42" />
<rect x="178" y="14" width="1" height="1" fill="#733E39" />
<rect x="179" y="14" width="1" height="1" fill="#8B9BB4" />
<rect x="180" y="14" width="1" height="2" fill="#181425" />
<rect x="13" y="15" width="2" height="2" fill="#265C42" />
<rect x="15" y="15" width="2" height="2" fill="#3E8948" />
<rect x="18" y="15" width="1" height="2" fill="#C28569" />
<rect x="19" y="15" width="1" height="1" fill="#181425" />
<rect x="20" y="15" width="1" height="1" fill="#8B9BB4" />
<rect x="21" y="15" width="1" height="1" fill="#181425" />
<rect x="43" y="15" width="1" height="3" fill="#181425" />
<rect x="44" y="15" width="1" height="1" fill="#265C42" />
<rect x="49" y="15" width="1" height="1" fill="#3E8948" />
<rect x="52" y="15" width="1" height="2" fill="#733E39" />
<rect x="53" y="15" width="1" height="1" fill="#181425" />
<rect x="74" y="15" width="1" height="3" fill="#181425" />
<rect x="75" y="15" width="2" height="2" fill="#C28569" />
<rect x="77" y="15" width="2" height="2" fill="#265C42" />
<rect x="79" y="15" width="3" height="2" fill="#3E8948" />
<rect x="82" y="15" width="2" height="1" fill="#733E39" />
<rect x="108" y="15" width="1" height="2" fill="#C28569" />
<rect x="109" y="15" width="2" height="2" fill="#265C42" />
<rect x="111" y="15" width="3" height="2" fill="#3E8948" />
<rect x="114" y="15" width="1" height="2" fill="#733E39" />
<rect x="146" y="15" width="1" height="1" fill="#265C42" />
<rect x="147" y="15" width="1" height="2" fill="#733E39" />
<rect x="171" y="15" width="2" height="1" fill="#181425" />
<rect x="173" y="15" width="2" height="2" fill="#265C42" />
<rect x="175" y="15" width="2" height="2" fill="#3E8948" />
<rect x="178" y="15" width="2" height="2" fill="#C28569" />
<rect x="17" y="16" width="1" height="1" fill="#3E8948" />
<rect x="19" y="16" width="1" height="2" fill="#733E39" />
<rect x="20" y="16" width="1" height="1" fill="#181425" />
<rect x="21" y="16" width="1" height="1" fill="#8B9BB4" />
<rect x="22" y="16" width="1" height="3" fill="#181425" />
<rect x="44" y="16" width="1" height="1" fill="#3E2731" />
<rect x="45" y="16" width="1" height="2" fill="#733E39" />
<rect x="46" y="16" width="2" height="3" fill="#181425" />
<rect x="48" y="16" width="2" height="2" fill="#B86F50" />
<rect x="50" y="16" width="1" height="4" fill="#181425" />
<rect x="51" y="16" width="1" height="1" fill="#733E39" />
<rect x="53" y="16" width="1" height="1" fill="#733E39" />
<rect x="54" y="16" width="1" height="2" fill="#181425" />
<rect x="82" y="16" width="1" height="1" fill="#265C42" />
<rect x="83" y="16" width="1" height="2" fill="#733E39" />
<rect x="139" y="16" width="2" height="1" fill="#181425" />
<rect x="141" y="16" width="2" height="2" fill="#B86F50" />
<rect x="143" y="16" width="2" height="3" fill="#181425" />
<rect x="145" y="16" width="1" height="2" fill="#733E39" />
<rect x="146" y="16" width="1" height="1" fill="#3E2731" />
<rect x="171" y="16" width="1" height="3" fill="#181425" />
<rect x="172" y="16" width="1" height="1" fill="#265C42" />
<rect x="177" y="16" width="1" height="1" fill="#3E8948" />
<rect x="180" y="16" width="1" height="2" fill="#733E39" />
<rect x="181" y="16" width="1" height="1" fill="#181425" />
<rect x="13" y="17" width="1" height="1" fill="#3E2731" />
<rect x="14" y="17" width="1" height="2" fill="#733E39" />
<rect x="15" y="17" width="1" height="5" fill="#181425" />
<rect x="16" y="17" width="2" height="3" fill="#B86F50" />
<rect x="18" y="17" width="1" height="5" fill="#181425" />
<rect x="20" y="17" width="2" height="1" fill="#733E39" />
<rect x="44" y="17" width="1" height="1" fill="#733E39" />
<rect x="51" y="17" width="3" height="1" fill="#181425" />
<rect x="75" y="17" width="2" height="1" fill="#181425" />
<rect x="77" y="17" width="2" height="2" fill="#B86F50" />
<rect x="79" y="17" width="2" height="2" fill="#181425" />
<rect x="81" y="17" width="1" height="2" fill="#733E39" />
<rect x="82" y="17" width="1" height="1" fill="#3E2731" />
<rect x="108" y="17" width="1" height="5" fill="#181425" />
<rect x="109" y="17" width="2" height="3" fill="#B86F50" />
<rect x="111" y="17" width="1" height="5" fill="#181425" />
<rect x="112" y="17" width="1" height="2" fill="#733E39" />
<rect x="113" y="17" width="1" height="1" fill="#3E2731" />
<rect x="114" y="17" width="1" height="2" fill="#181425" />
<rect x="140" y="17" width="1" height="3" fill="#181425" />
<rect x="146" y="17" width="1" height="1" fill="#733E39" />
<rect x="147" y="17" width="1" height="1" fill="#181425" />
<rect x="172" y="17" width="1" height="1" fill="#3E2731" />
<rect x="173" y="17" width="1" height="2" fill="#733E39" />
<rect x="174" y="17" width="2" height="2" fill="#181425" />
<rect x="176" y="17" width="2" height="2" fill="#B86F50" />
<rect x="178" y="17" width="1" height="2" fill="#181425" />
<rect x="179" y="17" width="1" height="1" fill="#733E39" />
<rect x="181" y="17" width="1" height="1" fill="#733E39" />
<rect x="182" y="17" width="1" height="2" fill="#181425" />
<rect x="13" y="18" width="1" height="1" fill="#733E39" />
<rect x="19" y="18" width="3" height="1" fill="#181425" />
<rect x="44" y="18" width="2" height="1" fill="#181425" />
<rect x="48" y="18" width="1" height="2" fill="#B86F50" />
<rect x="49" y="18" width="1" height="1" fill="#733E39" />
<rect x="76" y="18" width="1" height="1" fill="#181425" />
<rect x="82" y="18" width="1" height="1" fill="#733E39" />
<rect x="83" y="18" width="1" height="1" fill="#181425" />
<rect x="113" y="18" width="1" height="1" fill="#733E39" />
<rect x="141" y="18" width="1" height="1" fill="#733E39" />
<rect x="142" y="18" width="1" height="2" fill="#B86F50" />
<rect x="145" y="18" width="2" height="1" fill="#181425" />
<rect x="172" y="18" width="1" height="1" fill="#733E39" />
<rect x="179" y="18" width="3" height="1" fill="#181425" />
<rect x="13" y="19" width="2" height="1" fill="#181425" />
<rect x="47" y="19" width="1" height="1" fill="#181425" />
<rect x="49" y="19" width="1" height="1" fill="#B86F50" />
<rect x="75" y="19" width="1" height="3" fill="#181425" />
<rect x="76" y="19" width="1" height="1" fill="#733E39" />
<rect x="77" y="19" width="1" height="2" fill="#B86F50" />
<rect x="78" y="19" width="1" height="2" fill="#181425" />
<rect x="80" y="19" width="3" height="1" fill="#181425" />
<rect x="112" y="19" width="2" height="1" fill="#181425" />
<rect x="141" y="19" width="1" height="1" fill="#B86F50" />
<rect x="143" y="19" width="1" height="1" fill="#181425" />
<rect x="172" y="19" width="3" height="1" fill="#181425" />
<rect x="176" y="19" width="1" height="2" fill="#181425" />
<rect x="177" y="19" width="1" height="2" fill="#B86F50" />
<rect x="178" y="19" width="1" height="1" fill="#733E39" />
<rect x="179" y="19" width="1" height="3" fill="#181425" />
<rect x="16" y="20" width="1" height="2" fill="#B86F50" />
<rect x="17" y="20" width="1" height="1" fill="#733E39" />
<rect x="76" y="20" width="1" height="1" fill="#B86F50" />
<rect x="109" y="20" width="1" height="1" fill="#733E39" />
<rect x="110" y="20" width="1" height="2" fill="#B86F50" />
<rect x="178" y="20" width="1" height="1" fill="#B86F50" />
<rect x="17" y="21" width="1" height="1" fill="#B86F50" />
<rect x="76" y="21" width="2" height="1" fill="#181425" />
<rect x="109" y="21" width="1" height="1" fill="#B86F50" />
<rect x="177" y="21" width="2" height="1" fill="#181425" />
</svg>